<svg xmlns="http://www.w3.org/2000/svg" viewBox="0 0 829.12 188.76"><defs><style>.cls-1,.cls-2{fill:#511100;}.cls-1{fill-rule:evenodd;}</style></defs><title>Asset 10</title><g id="Layer_2" data-name="Layer 2"><g id="OBJECTS"><path class="cls-1" d="M378.75,184.65c1.86-3.26,14.43-14.05-3.12-62-1.68,1.3,21.6,18.8,13.26,62,.54-1.66,4-47,21.17-54.87-.93.66-19,32.69-11.58,55.51Q388.61,185.06,378.75,184.65Z"/><path class="cls-1" d="M444.27,186.14c1.74-3.32,13.89-14.55-5.25-61.82-1.63,1.35,22.16,18,15.35,61.51.48-1.68,2.33-47.13,19.18-55.59-.91.7-17.8,33.35-9.61,55.9Q454.12,186.19,444.27,186.14Z"/><path class="cls-1" d="M414.09,185.74c1.25-3.15,9.77-13.78-2.71-59.21-1.14,1.27,15,17.48,9.68,59,.35-1.59,2.29-45.09,14.07-52.9-.65.64-12.81,31.63-7.48,53.32Q420.87,185.89,414.09,185.74Z"/><path class="cls-2" d="M403.32,182.82c-.1-1.35-13.14-21.93,12.31-45.23.12,0-20.95,25.41-5.4,46.07Q406.77,183.26,403.32,182.82Z"/><path class="cls-2" d="M467.13,186.35c-.23-2.21-13.9-35.45,10.22-75.09.2,0-19.69,42.88-3.29,76.12Z"/><path class="cls-2" d="M434.41,186.06c.11-1.34,12.57-21.43-10.51-45.65-.12,0,18.85,26.16,4.07,46.24Z"/><path class="cls-2" d="M418.2,184.5c.08-.06,5.93-40-23.08-57.09-.17,0,25.79,34.26,18.29,57.65A30.07,30.07,0,0,0,418.2,184.5Z"/><path class="cls-2" d="M446.93,186.15c.08-.05,5.31-40.06-23.94-56.72-.16,0,26.29,33.85,19.16,57.36A30,30,0,0,0,446.93,186.15Z"/><path class="cls-1" d="M471.38,188.76C473.07,185.42,485,174,465.22,127c-1.61,1.38,22.42,17.69,16.25,61.29.45-1.69,1.63-47.16,18.36-55.87-.9.71-17.3,33.61-8.79,56Q481.22,188.67,471.38,188.76Z"/><path class="cls-1" d="M536.67,187c1.57-3.4,13.1-15.23-8.29-61.48-1.55,1.43,23,16.89,18.33,60.67.39-1.7,0-47.18,16.34-56.47-.87.74-16.07,34.19-6.8,56.3Q546.47,186.54,536.67,187Z"/><path class="cls-1" d="M506.61,188.09c1.08-3.22,9-14.26-5.63-59-1.07,1.32,15.8,16.7,12.55,58.47.27-1.61.05-45.15,11.39-53.54-.61.67-11.18,32.23-4.81,53.63Q513.36,187.89,506.61,188.09Z"/><path class="cls-2" d="M495.74,185.71c-.17-1.35-14.16-21.25,10-45.79.12,0-19.6,26.42-3.1,46.28Z"/><path class="cls-2" d="M559.44,186.05c-.35-2.19-15.6-34.71,6.46-75.5.19,0-17.49,43.81.49,76.18Z"/><path class="cls-2" d="M526.84,187.4c0-1.36,11.46-22-12.71-45.08-.12,0,20,25.19,6.33,46C522.59,188,524.72,187.7,526.84,187.4Z"/><path class="cls-2" d="M510.64,186.64c.07-.06,3.92-40.22-25.8-55.87-.16.06,27.36,32.93,21.05,56.67A28.61,28.61,0,0,0,510.64,186.64Z"/><path class="cls-2" d="M539.31,186.86c.08-.06,3.3-40.27-26.63-55.46-.16.06,27.84,32.5,21.9,56.34A29.42,29.42,0,0,0,539.31,186.86Z"/><path class="cls-1" d="M538.45,184.21c1.57-3.4,13.07-15.24-8.32-61.48-1.55,1.44,22.93,16.87,18.35,60.66.39-1.7-.06-47.18,16.27-56.49-.87.74-16,34.21-6.75,56.31Q548.24,183.77,538.45,184.21Z"/><path class="cls-1" d="M603.33,180.08c1.45-3.46,12.49-15.69-10.44-61.15-1.49,1.49,23.44,16,20.4,60,.33-1.71-1.7-47.15,14.24-57-.84.77-14.76,34.75-4.75,56.51Q613.07,179.27,603.33,180.08Z"/><path class="cls-1" d="M573.47,182.27c1-3.26,8.48-14.58-7.7-58.76-1,1.36,16.31,16.12,14.57,58,.21-1.62-1.57-45.12,9.41-53.92-.58.7-10,32.61-2.86,53.77C582.42,181.67,578,182,573.47,182.27Z"/><path class="cls-2" d="M562.58,180.28c-.22-1.34-14.85-20.72,8.32-46.12.13,0-18.54,27.11-1.43,46.36C567.17,180.45,564.88,180.37,562.58,180.28Z"/><path class="cls-2" d="M626,178.33c-.43-2.18-16.76-34.13,3.71-75.69.2,0-15.82,44.41,3.23,76.12Z"/><path class="cls-2" d="M593.58,180.84c0-1.35,10.6-22.43-14.26-44.58-.12,0,20.85,24.44,7.94,45.72C589.37,181.61,591.47,181.23,593.58,180.84Z"/><path class="cls-2" d="M577.43,180.67c.07-.06,2.46-40.33-27.65-54.9-.16.07,28.38,31.92,23,55.88A29.35,29.35,0,0,0,577.43,180.67Z"/><path class="cls-2" d="M606,179.86c.08-.06,1.84-40.37-28.47-54.46-.17.06,28.85,31.47,23.8,55.51C601.29,180.91,605.47,180.24,606,179.86Z"/><path class="cls-1" d="M610.63,174.75C612.05,171.29,623,159,600,113.64c-1.48,1.5,23.43,16,20.59,59.9.32-1.72-1.9-47.15,14-57.08-.83.77-14.58,34.8-4.5,56.52Q620.33,173.93,610.63,174.75Z"/><path class="cls-1" d="M674.93,168.09c1.3-3.51,11.8-16.16-12.76-60.69-1.43,1.54,23.91,15.13,22.62,59.13.26-1.72-3.54-47,11.91-57.53-.8.8-13.31,35.29-2.5,56.65Q684.57,166.93,674.93,168.09Z"/><path class="cls-1" d="M645.34,171.44c.84-3.29,7.86-14.89-9.94-58.41-.95,1.4,16.83,15.48,16.74,57.36.14-1.62-3.31-45,7.25-54.23-.55.71-8.63,33-.75,53.84C654.21,170.49,649.78,171,645.34,171.44Z"/><path class="cls-2" d="M634.44,169.88c-.26-1.33-15.55-20.13,6.48-46.41.12,0-17.37,27.81.39,46.39Z"/><path class="cls-2" d="M697.35,165.47c-.51-2.17-18-33.46.73-75.77.2,0-14,45,6.18,75.93Z"/><path class="cls-2" d="M665.27,169.24c0-1.35,9.66-22.83-15.91-44-.11,0,21.67,23.62,9.68,45.38Z"/><path class="cls-2" d="M649.21,169.69c.08-.06.88-40.4-29.6-53.78-.16.08,29.43,30.79,25,54.94C644.59,170.85,648.73,170.08,649.21,169.69Z"/><path class="cls-2" d="M677.54,167.77c.07-.06.25-40.4-30.42-53.31-.16.07,29.89,30.33,25.81,54.54C672.93,169,677.06,168.17,677.54,167.77Z"/><path class="cls-1" d="M687.38,163.15c1.27-3.52,11.65-16.24-13.16-60.6-1.42,1.56,24,15,23,59,.25-1.73-3.86-47,11.49-57.61-.8.81-13,35.38-2.1,56.66Q697,161.92,687.38,163.15Z"/><path class="cls-1" d="M751,153.82c1.14-3.56,11-16.64-15.26-60.11-1.35,1.61,24.42,14.12,25,58.14.19-1.73-5.51-46.86,9.42-58-.76.83-11.74,35.81-.1,56.7Q760.58,152.25,751,153.82Z"/><path class="cls-1" d="M721.75,158.4c.7-3.32,7.19-15.21-12.34-57.95-.89,1.44,17.38,14.77,19.06,56.62.07-1.63-5.2-44.85,4.92-54.49-.52.74-7.19,33.3,1.53,53.82Q728.34,157.42,721.75,158.4Z"/><path class="cls-2" d="M710.85,157.3c-.32-1.32-16.31-19.46,4.49-46.64.12,0-16.1,28.51,2.33,46.32Z"/><path class="cls-2" d="M773.22,150.27c-.6-2.14-19.3-32.68-2.47-75.74.19,0-12,45.53,9.35,75.61Z"/><path class="cls-2" d="M741.47,155.37c-.11-1.35,8.65-23.21-17.67-43.3-.11,0,22.54,22.7,11.54,44.94Z"/><path class="cls-2" d="M725.53,156.49c.07-.06-.84-40.4-31.7-52.49-.16.07,30.56,29.53,27.15,53.84A28.76,28.76,0,0,0,725.53,156.49Z"/><path class="cls-2" d="M753.62,153.4c.07-.07-1.47-40.39-32.5-52-.16.08,31,29.06,28,53.43A29.43,29.43,0,0,0,753.62,153.4Z"/><path class="cls-1" d="M737,154c1.17-3.55,11.16-16.55-14.79-60.22-1.37,1.59,24.29,14.31,24.53,58.33.2-1.73-5.15-46.9,9.85-57.9-.77.83-12,35.72-.53,56.7Q746.58,152.53,737,154Z"/><path class="cls-1" d="M800.24,143c1-3.59,10.55-16.93-16.87-59.67-1.31,1.64,24.73,13.46,26.52,57.44.14-1.74-6.79-46.69,7.78-58.21-.74.86-10.71,36.12,1.48,56.69Q809.7,141.14,800.24,143Z"/><path class="cls-1" d="M771.17,148.35c.6-3.34,6.74-15.4-13.9-57.59-.85,1.46,17.73,14.28,20.56,56.08,0-1.63-6.42-44.69,3.4-54.61-.5.75-6.25,33.49,3,53.76Q777.71,147.19,771.17,148.35Z"/><path class="cls-2" d="M760.27,147.54c-.36-1.31-16.8-19,3.18-46.74.13,0-15.25,28.94,3.61,46.24Z"/><path class="cls-2" d="M822.26,138.82c-.66-2.13-20.15-32.14-4.57-75.64.2,0-10.72,45.84,11.43,75.33Z"/><path class="cls-2" d="M790.75,144.78c-.15-1.34,8-23.43-18.82-42.8-.11,0,23.1,22.07,12.74,44.61Z"/><path class="cls-2" d="M774.88,146.34c.07-.07-2-40.36-33-51.62-.16.08,31.27,28.69,28.54,53.09A28.61,28.61,0,0,0,774.88,146.34Z"/><path class="cls-2" d="M802.8,142.48c.07-.07-2.58-40.33-33.84-51.1-.15.08,31.71,28.21,29.36,52.64A29.63,29.63,0,0,0,802.8,142.48Z"/><path class="cls-1" d="M0,65.27C2.87,62.45,18.73,55.21,21.23,0,19.16.81,33.6,26.2,9,68.42c1.28-1.51,22-47.52,40.11-50.5-1,.42-29.23,28.24-31.83,54.11Q8.61,68.7,0,65.27Z"/><path class="cls-1" d="M57.89,87.06C60.67,84.14,76.39,76.37,77,21.11c-2,.87,13.39,25.77-9.91,68.79,1.24-1.55,20.51-48.24,38.63-51.82-1,.45-28.46,29.21-30.16,55.15Q66.68,90.19,57.89,87.06Z"/><path class="cls-1" d="M31.05,77.26c2.29-2.91,14.48-11.2,20.46-62.36-1.57.94,7.07,22.9-14.16,64.32,1.07-1.5,19.73-46.08,33-50.62-.77.48-23.34,29-27.31,53.11Q37.06,79.51,31.05,77.26Z"/><path class="cls-2" d="M22.61,70.91c.44-1.44-2.93-26.73,28.53-43.18.12.06-28.28,20-22.71,46.18Z"/><path class="cls-2" d="M78.32,94.46c.65-2.38,1.72-41.13,37.78-75,.23.1-33.35,38.65-32,78.28Z"/><path class="cls-2" d="M49.08,83.9c.65-1.35,19.81-18.31,8.37-50.69-.11,0,6.91,33.09-14.36,49.29Z"/><path class="cls-2" d="M35.22,77.24c.2,0,21-39.67,1.51-66.4-.15,0,10.07,43.59-6,65.5C30.71,76.34,34.61,77.41,35.22,77.24Z"/><path class="cls-2" d="M60.26,87.9c.2,0,20.5-40,.51-66.42-.15,0,10.78,43.45-5.05,65.59C55.72,87.07,59.66,88.08,60.26,87.9Z"/><path class="cls-1" d="M81.17,98.3c2.76-3,18.44-10.93,18.24-66.2-2,.91,13.82,25.59-9,68.93,1.22-1.57,19.93-48.51,38.09-52.34-1,.47-28.2,29.59-29.53,55.55Q90.05,101.32,81.17,98.3Z"/><path class="cls-1" d="M140.81,117.34c2.68-3,18.21-11.56,16.08-66.79-2,1,14.82,25.11-6.65,69.19,1.17-1.61,18.39-49.16,36.57-53.6-1,.51-27.39,30.53-27.84,56.52Q149.87,120.05,140.81,117.34Z"/><path class="cls-1" d="M113.18,108.81c2.16-3,14.09-11.86,17.62-63.25-1.53,1,8.28,22.54-11.16,64.92,1-1.55,17.7-47,31-52.13-.77.52-22.21,30.07-25,54.34Q119.35,110.79,113.18,108.81Z"/><path class="cls-2" d="M104.32,102.87c.38-1.46-4.3-26.56,26.74-44.48.13.06-27.64,21.32-20.7,47.2Z"/><path class="cls-2" d="M161.85,123.76c.55-2.4-.28-41.16,34.59-76.73.24.09-31.88,40.19-28.54,79.71Z"/><path class="cls-2" d="M131.75,114.6c.58-1.38,19.15-19.23,6-51-.11,0,8.62,32.73-12.11,49.93Z"/><path class="cls-2" d="M117.39,108.6c.2,0,19.31-40.61-1.75-66.4-.15,0,12.35,43.07-2.86,65.71C112.78,107.92,116.79,108.8,117.39,108.6Z"/><path class="cls-2" d="M143.26,118.07c.2,0,18.79-40.89-2.76-66.37-.15,0,13.05,42.88-1.88,65.75C138.62,117.45,142.65,118.27,143.26,118.07Z"/><path class="cls-1" d="M143.53,115c2.67-3,18.16-11.58,16-66.8-2,1,14.84,25.08-6.54,69.2,1.17-1.62,18.29-49.19,36.44-53.66-1,.51-27.31,30.57-27.72,56.56Q152.58,117.73,143.53,115Z"/><path class="cls-1" d="M204.24,131.94c2.58-3.14,17.9-12.2,13.78-67.32-2,1,15.82,24.56-4.21,69.39,1.12-1.66,16.75-49.79,34.89-54.88-1,.54-26.48,31.49-26,57.48Q213.44,134.32,204.24,131.94Z"/><path class="cls-1" d="M176.12,124.4c2.07-3.08,13.76-12.36,15.46-63.84-1.51,1.07,9.14,22.23-8.89,65.28.95-1.59,16.12-47.57,29.26-53.2-.75.54-21.27,30.84-23.23,55.2Q182.4,126.14,176.12,124.4Z"/><path class="cls-2" d="M167,118.78c.33-1.47-5.29-26.4,25.31-45.41.12.06-27.05,22.3-19.13,47.91Z"/><path class="cls-2" d="M225.64,137.6c.47-2.42-1.76-41.12,32.08-77.92.23.08-30.67,41.31-25.88,80.68Q228.74,139,225.64,137.6Z"/><path class="cls-2" d="M195,129.52c.54-1.4,18.58-19.9,4.17-51.21-.11,0,9.86,32.4-10.39,50.32Z"/><path class="cls-2" d="M180.35,124c.2,0,18-41.28-4.15-66.3-.15,0,14,42.6-.51,65.78C175.69,123.52,179.75,124.26,180.35,124Z"/><path class="cls-2" d="M206.73,132.58c.2,0,17.44-41.54-5.17-66.23-.15,0,14.68,42.39.48,65.78C202,132.13,206.12,132.81,206.73,132.58Z"/><path class="cls-1" d="M213,128.79c2.56-3.15,17.82-12.28,13.43-67.38-2,1.06,15.91,24.49-3.86,69.41,1.11-1.66,16.47-49.87,34.56-55-1,.54-26.28,31.61-25.67,57.6Q222.22,131.13,213,128.79Z"/><path class="cls-1" d="M274.75,143.3c2.47-3.24,17.54-12.89,11.23-67.8-2,1.12,16.88,23.92-1.52,69.49,1.07-1.69,14.9-50.4,33-56.2-1,.58-25.42,32.5-23.91,58.46Q284.1,145.33,274.75,143.3Z"/><path class="cls-1" d="M246.16,136.88c2-3.16,13.36-12.89,13-64.4-1.48,1.12,10.08,21.85-6.38,65.58.9-1.63,14.35-48.16,27.36-54.31-.73.57-20.2,31.65-21.22,56.07Q252.56,138.37,246.16,136.88Z"/><path class="cls-2" d="M236.76,131.62c.27-1.49-6.36-26.17,23.68-46.37.13.06-26.34,23.34-17.37,48.63Z"/><path class="cls-2" d="M296.51,148.12c.37-2.44-3.39-41,29.24-79.12.24.07-29.26,42.48-22.9,81.64C300.73,149.8,298.62,149,296.51,148.12Z"/><path class="cls-2" d="M265.38,141.25c.48-1.42,17.91-20.61,2.18-51.34-.1,0,11.2,32-8.47,50.69Z"/><path class="cls-2" d="M250.41,136.35c.2,0,16.46-41.95-6.79-66.09-.15,0,15.74,42,2.08,65.75C245.7,136,249.81,136.59,250.41,136.35Z"/><path class="cls-2" d="M277.28,143.85c.2,0,15.92-42.19-7.79-66-.15,0,16.43,41.79,3.05,65.71C272.54,143.58,276.68,144.1,277.28,143.85Z"/><path class="cls-1" d="M288.19,142.34c2.45-3.26,17.44-13,10.72-67.89-2,1.14,17.06,23.79-1,69.51,1-1.71,14.52-50.52,32.55-56.46-1,.59-25.18,32.7-23.48,58.64Q297.56,144.3,288.19,142.34Z"/><path class="cls-1" d="M351,154.23c2.37-3.34,17.15-13.63,8.53-68.23-1.95,1.21,18,23.19,1.34,69.51,1-1.74,12.93-51,30.92-57.56-1,.62-24.3,33.56-21.7,59.43Q360.52,155.85,351,154.23Z"/><path class="cls-1" d="M321.93,149c1.85-3.24,12.92-13.45,10.48-64.9-1.44,1.19,11.06,21.41-3.72,65.8.84-1.67,12.47-48.73,25.34-55.42C353.31,95.1,335,127,335,151.42Q328.44,150.24,321.93,149Z"/><path class="cls-2" d="M312.23,144.16c.22-1.5-7.5-25.88,21.95-47.33.13,0-25.59,24.43-15.49,49.32Z"/><path class="cls-2" d="M373.14,158.12c.28-2.45-5.12-40.83,26.22-80.3.24.06-27.75,43.7-19.73,82.55C377.47,159.62,375.3,158.88,373.14,158.12Z"/><path class="cls-2" d="M341.47,152.58c.44-1.44,17.21-21.36.08-51.39-.1,0,12.61,31.49-6.44,51C337.23,152.33,339.35,152.45,341.47,152.58Z"/><path class="cls-2" d="M326.19,148.31c.2,0,14.85-42.61-9.59-65.74-.15,0,17.61,41.32,4.83,65.6C321.43,148.17,325.59,148.58,326.19,148.31Z"/><path class="cls-2" d="M353.58,154.67c.2,0,14.31-42.83-10.59-65.59-.15,0,18.29,41.05,5.8,65.52C348.79,154.6,353,154.94,353.58,154.67Z"/><path class="cls-1" d="M337.86,149.66c2.38-3.32,17.19-13.5,9-68.16-1.95,1.19,17.79,23.32.87,69.51,1-1.73,13.24-50.9,31.21-57.33-1,.61-24.45,33.38-22,59.27Q347.35,151.35,337.86,149.66Z"/><path class="cls-1" d="M401.35,159.81c2.29-3.4,16.88-14.1,6.75-68.44-1.93,1.26,18.73,22.68,3.2,69.44,1-1.76,11.65-51.34,29.57-58.41-1,.65-23.74,38.31-20.46,64.1Q410.84,163.2,401.35,159.81Z"/><path class="cls-1" d="M372,155.41c1.78-3.3,12.64-13.8,8.8-65.17-1.42,1.23,11.7,21.1-2,65.88.8-1.69,11.23-49.06,24-56.11-.71.62-18.3,33-17.66,57.43Q378.56,156.45,372,155.41Z"/><path class="cls-2" d="M362.09,150.82c.18-1.5-8.24-25.66,20.8-47.92.13,0-25.07,25.13-14.25,49.73Z"/><path class="cls-2" d="M391.72,158.42c.4-1.45,16.73-21.83-1.29-51.37-.11,0,13.51,31.13-5.11,51.17Z"/><path class="cls-2" d="M376.24,154.58c.19,0,13.79-43-11.41-65.45-.15,0,18.82,40.82,6.61,65.44C371.44,154.58,375.65,154.86,376.24,154.58Z"/><path class="cls-2" d="M404,160.17c.2,0,13.25-43.21-12.4-65.27-.15,0,19.49,40.53,7.59,65.34C399.14,160.24,403.36,160.47,404,160.17Z"/></g></g></svg>