<svg xmlns="http://www.w3.org/2000/svg" xmlns:xlink="http://www.w3.org/1999/xlink" viewBox="0 0 806.54 307.24"><defs><style>.cls-1{isolation:isolate;}.cls-103,.cls-104,.cls-105,.cls-15,.cls-17,.cls-19,.cls-2,.cls-22,.cls-26,.cls-27,.cls-28,.cls-5,.cls-69,.cls-72,.cls-78,.cls-8,.cls-81,.cls-84,.cls-88,.cls-89,.cls-90,.cls-96,.cls-99{mix-blend-mode:overlay;}.cls-3{fill:#f4810e;}.cls-4{fill:url(#Degradado_sin_nombre_7);}.cls-5{fill:url(#Degradado_sin_nombre_17);}.cls-6{fill:url(#Degradado_sin_nombre_137);}.cls-7{fill:url(#Degradado_sin_nombre_7-2);}.cls-8{fill:url(#Degradado_sin_nombre_17-2);}.cls-9{fill:url(#Degradado_sin_nombre_137-2);}.cls-10{fill:url(#Degradado_sin_nombre_152);}.cls-108,.cls-11,.cls-141,.cls-31,.cls-36,.cls-66,.cls-75,.cls-93{mix-blend-mode:multiply;}.cls-11{fill:url(#Degradado_sin_nombre_160);}.cls-12{fill:url(#Degradado_sin_nombre_137-3);}.cls-13{fill:#ffe597;}.cls-14{fill:url(#Degradado_sin_nombre_137-4);}.cls-15{fill:url(#Degradado_sin_nombre_17-3);}.cls-16{fill:url(#Degradado_sin_nombre_137-6);}.cls-17{opacity:0.73;}.cls-18{fill:url(#Degradado_sin_nombre_7-3);}.cls-19{fill:url(#Degradado_sin_nombre_17-4);}.cls-20{fill:url(#Degradado_sin_nombre_137-8);}.cls-21{fill:url(#Degradado_sin_nombre_7-4);}.cls-22{fill:url(#Degradado_sin_nombre_17-5);}.cls-23{fill:url(#Degradado_sin_nombre_137-9);}.cls-24{fill:url(#Degradado_sin_nombre_137-10);}.cls-25{fill:url(#Degradado_sin_nombre_137-11);}.cls-26{fill:url(#Degradado_sin_nombre_17-6);}.cls-27{fill:url(#Degradado_sin_nombre_19);}.cls-28{fill:url(#Degradado_sin_nombre_19-2);}.cls-29{fill:url(#Degradado_sin_nombre_137-12);}.cls-30{fill:url(#Degradado_sin_nombre_152-2);}.cls-31{fill:url(#Degradado_sin_nombre_160-2);}.cls-32{fill:url(#Degradado_sin_nombre_137-14);}.cls-33{fill:url(#Degradado_sin_nombre_152-3);}.cls-34{fill:url(#Degradado_sin_nombre_137-15);}.cls-35{fill:url(#Degradado_sin_nombre_156);}.cls-37{fill:url(#Degradado_sin_nombre_160-3);}.cls-38{fill:#841800;}.cls-39{fill:url(#Degradado_sin_nombre_152-4);}.cls-40{fill:url(#Degradado_sin_nombre_137-16);}.cls-41{fill:url(#Degradado_sin_nombre_156-2);}.cls-42{fill:url(#Degradado_sin_nombre_160-4);}.cls-43{fill:url(#Degradado_sin_nombre_137-17);}.cls-44{fill:url(#Degradado_sin_nombre_137-18);}.cls-45{fill:url(#Degradado_sin_nombre_137-19);}.cls-46{fill:url(#Degradado_sin_nombre_137-20);}.cls-47{fill:url(#Degradado_sin_nombre_137-21);}.cls-48{fill:url(#Degradado_sin_nombre_137-22);}.cls-49{fill:url(#Degradado_sin_nombre_137-23);}.cls-50{fill:url(#Degradado_sin_nombre_152-5);}.cls-51{fill:url(#Degradado_sin_nombre_152-6);}.cls-52{fill:url(#Degradado_sin_nombre_152-7);}.cls-53{fill:url(#Degradado_sin_nombre_152-8);}.cls-54{fill:url(#Degradado_sin_nombre_152-9);}.cls-55{fill:url(#Degradado_sin_nombre_137-24);}.cls-56{fill:url(#Degradado_sin_nombre_137-25);}.cls-57{fill:url(#Degradado_sin_nombre_160-5);}.cls-58{fill:url(#Degradado_sin_nombre_160-6);}.cls-59{fill:url(#Degradado_sin_nombre_160-7);}.cls-60{fill:url(#Degradado_sin_nombre_160-8);}.cls-61{fill:url(#Degradado_sin_nombre_160-9);}.cls-62{fill:url(#Degradado_sin_nombre_160-10);}.cls-63{fill:url(#Degradado_sin_nombre_160-11);}.cls-64{fill:url(#Degradado_sin_nombre_160-12);}.cls-65{fill:url(#Degradado_sin_nombre_152-10);}.cls-66{fill:url(#Degradado_sin_nombre_160-13);}.cls-67{fill:url(#Degradado_sin_nombre_137-26);}.cls-68{fill:url(#Degradado_sin_nombre_7-5);}.cls-69{fill:url(#Degradado_sin_nombre_17-7);}.cls-70{fill:url(#Degradado_sin_nombre_137-27);}.cls-71{fill:url(#Degradado_sin_nombre_7-6);}.cls-72{fill:url(#Degradado_sin_nombre_17-8);}.cls-73{fill:url(#Degradado_sin_nombre_137-28);}.cls-74{fill:url(#Degradado_sin_nombre_152-11);}.cls-75{fill:url(#Degradado_sin_nombre_160-14);}.cls-76{fill:url(#Degradado_sin_nombre_137-29);}.cls-77{fill:url(#Degradado_sin_nombre_137-30);}.cls-78{fill:url(#Degradado_sin_nombre_17-9);}.cls-79{fill:url(#Degradado_sin_nombre_137-32);}.cls-80{fill:url(#Degradado_sin_nombre_7-7);}.cls-81{fill:url(#Degradado_sin_nombre_17-10);}.cls-82{fill:url(#Degradado_sin_nombre_137-34);}.cls-83{fill:url(#Degradado_sin_nombre_7-8);}.cls-84{fill:url(#Degradado_sin_nombre_17-11);}.cls-85{fill:url(#Degradado_sin_nombre_137-35);}.cls-86{fill:url(#Degradado_sin_nombre_137-36);}.cls-87{fill:url(#Degradado_sin_nombre_137-37);}.cls-88{fill:url(#Degradado_sin_nombre_17-12);}.cls-89{fill:url(#Degradado_sin_nombre_19-3);}.cls-90{fill:url(#Degradado_sin_nombre_19-4);}.cls-91{fill:url(#Degradado_sin_nombre_137-38);}.cls-92{fill:url(#Degradado_sin_nombre_152-12);}.cls-93{fill:url(#Degradado_sin_nombre_160-15);}.cls-94{fill:url(#Degradado_sin_nombre_137-40);}.cls-95{fill:url(#Degradado_sin_nombre_7-9);}.cls-96{fill:url(#Degradado_sin_nombre_17-13);}.cls-97{fill:url(#Degradado_sin_nombre_137-41);}.cls-98{fill:url(#Degradado_sin_nombre_7-10);}.cls-99{fill:url(#Degradado_sin_nombre_17-14);}.cls-100{fill:url(#Degradado_sin_nombre_137-42);}.cls-101{fill:url(#Degradado_sin_nombre_137-43);}.cls-102{fill:url(#Degradado_sin_nombre_137-44);}.cls-103{fill:url(#Degradado_sin_nombre_17-15);}.cls-104{fill:url(#Degradado_sin_nombre_19-5);}.cls-105{fill:url(#Degradado_sin_nombre_19-6);}.cls-106{fill:url(#Degradado_sin_nombre_137-45);}.cls-107{fill:url(#Degradado_sin_nombre_152-13);}.cls-108{fill:url(#Degradado_sin_nombre_160-16);}.cls-109{fill:url(#Degradado_sin_nombre_137-47);}.cls-110{fill:url(#Degradado_sin_nombre_152-14);}.cls-111{fill:url(#Degradado_sin_nombre_137-48);}.cls-112{fill:url(#Degradado_sin_nombre_156-3);}.cls-113{fill:url(#Degradado_sin_nombre_160-17);}.cls-114{fill:url(#Degradado_sin_nombre_152-15);}.cls-115{fill:url(#Degradado_sin_nombre_137-49);}.cls-116{fill:url(#Degradado_sin_nombre_156-4);}.cls-117{fill:url(#Degradado_sin_nombre_160-18);}.cls-118{fill:url(#Degradado_sin_nombre_137-50);}.cls-119{fill:url(#Degradado_sin_nombre_137-51);}.cls-120{fill:url(#Degradado_sin_nombre_137-52);}.cls-121{fill:url(#Degradado_sin_nombre_137-53);}.cls-122{fill:url(#Degradado_sin_nombre_137-54);}.cls-123{fill:url(#Degradado_sin_nombre_137-55);}.cls-124{fill:url(#Degradado_sin_nombre_137-56);}.cls-125{fill:url(#Degradado_sin_nombre_152-16);}.cls-126{fill:url(#Degradado_sin_nombre_152-17);}.cls-127{fill:url(#Degradado_sin_nombre_152-18);}.cls-128{fill:url(#Degradado_sin_nombre_152-19);}.cls-129{fill:url(#Degradado_sin_nombre_152-20);}.cls-130{fill:url(#Degradado_sin_nombre_137-57);}.cls-131{fill:url(#Degradado_sin_nombre_137-58);}.cls-132{fill:url(#Degradado_sin_nombre_160-19);}.cls-133{fill:url(#Degradado_sin_nombre_160-20);}.cls-134{fill:url(#Degradado_sin_nombre_160-21);}.cls-135{fill:url(#Degradado_sin_nombre_160-22);}.cls-136{fill:url(#Degradado_sin_nombre_160-23);}.cls-137{fill:url(#Degradado_sin_nombre_160-24);}.cls-138{fill:url(#Degradado_sin_nombre_160-25);}.cls-139{fill:url(#Degradado_sin_nombre_160-26);}.cls-140{fill:url(#Degradado_sin_nombre_152-21);}.cls-141{fill:url(#Degradado_sin_nombre_160-27);}.cls-142{fill:url(#Degradado_sin_nombre_137-59);}</style><linearGradient id="Degradado_sin_nombre_7" x1="529.52" y1="209.07" x2="498.66" y2="213.11" gradientUnits="userSpaceOnUse"><stop offset="0" stop-color="#fff"/><stop offset="1" stop-color="#fff" stop-opacity="0"/></linearGradient><linearGradient id="Degradado_sin_nombre_17" x1="242.5" y1="171.05" x2="272.37" y2="171.05" gradientTransform="matrix(-0.99, 0.13, 0.13, 0.99, 747.58, 8.25)" gradientUnits="userSpaceOnUse"><stop offset="0" stop-color="#fff"/><stop offset="0.08" stop-color="#fdece7"/><stop offset="0.33" stop-color="#f6b59f"/><stop offset="0.56" stop-color="#f08966"/><stop offset="0.75" stop-color="#ec693d"/><stop offset="0.9" stop-color="#ea5524"/><stop offset="0.99" stop-color="#e94e1b"/></linearGradient><linearGradient id="Degradado_sin_nombre_137" x1="242.3" y1="167.45" x2="270.88" y2="167.45" gradientTransform="matrix(-0.99, 0.13, 0.13, 0.99, 747.58, 8.25)" gradientUnits="userSpaceOnUse"><stop offset="0" stop-color="#461f1b"/><stop offset="0.3" stop-color="#481f1b"/><stop offset="0.46" stop-color="#50201c"/><stop offset="0.58" stop-color="#5d221d"/><stop offset="0.69" stop-color="#70241f"/><stop offset="0.78" stop-color="#892721"/><stop offset="0.87" stop-color="#a72b24"/><stop offset="0.95" stop-color="#cb3027"/><stop offset="1" stop-color="#e6332a"/></linearGradient><linearGradient id="Degradado_sin_nombre_7-2" x1="545.81" y1="206.82" x2="576.67" y2="202.77" xlink:href="#Degradado_sin_nombre_7"/><linearGradient id="Degradado_sin_nombre_17-2" x1="825.05" y1="170.21" x2="854.94" y2="170.21" gradientTransform="translate(-294.12 145.46) rotate(-7.46)" xlink:href="#Degradado_sin_nombre_17"/><linearGradient id="Degradado_sin_nombre_137-2" x1="824.87" y1="166.61" x2="853.47" y2="166.61" gradientTransform="translate(-294.12 145.46) rotate(-7.46)" xlink:href="#Degradado_sin_nombre_137"/><linearGradient id="Degradado_sin_nombre_152" x1="119.91" y1="140.58" x2="138.39" y2="140.58" gradientTransform="matrix(-0.8, 0.19, 0.24, 0.97, 609.22, 63.27)" gradientUnits="userSpaceOnUse"><stop offset="0" stop-color="#fcea10"/><stop offset="0.08" stop-color="#fbdc19"/><stop offset="0.22" stop-color="#fac924"/><stop offset="0.38" stop-color="#fabc2d"/><stop offset="0.59" stop-color="#f9b432"/><stop offset="1" stop-color="#f9b233"/></linearGradient><linearGradient id="Degradado_sin_nombre_160" x1="119.91" y1="140.58" x2="138.39" y2="140.58" gradientTransform="matrix(-0.8, 0.19, 0.24, 0.97, 609.22, 63.27)" gradientUnits="userSpaceOnUse"><stop offset="0" stop-color="#fff"/><stop offset="0.99" stop-color="#f39200"/></linearGradient><linearGradient id="Degradado_sin_nombre_137-3" x1="122.22" y1="140.09" x2="136.08" y2="140.09" gradientTransform="matrix(-0.8, 0.19, 0.24, 0.97, 609.22, 63.27)" xlink:href="#Degradado_sin_nombre_137"/><linearGradient id="Degradado_sin_nombre_137-4" x1="189.16" y1="210.29" x2="284.22" y2="210.29" gradientTransform="matrix(-0.99, 0.14, 0.14, 0.99, 747.03, 7.58)" xlink:href="#Degradado_sin_nombre_137"/><linearGradient id="Degradado_sin_nombre_17-3" x1="189.16" y1="210.29" x2="284.22" y2="210.29" gradientTransform="matrix(-0.99, 0.14, 0.14, 0.99, 747.03, 7.58)" xlink:href="#Degradado_sin_nombre_17"/><linearGradient id="Degradado_sin_nombre_137-6" x1="189.16" y1="210.08" x2="284.22" y2="210.08" gradientTransform="matrix(-0.99, 0.14, 0.14, 0.99, 747.03, 7.58)" xlink:href="#Degradado_sin_nombre_137"/><linearGradient id="Degradado_sin_nombre_7-3" x1="688.07" y1="155.47" x2="636.3" y2="151.18" xlink:href="#Degradado_sin_nombre_7"/><linearGradient id="Degradado_sin_nombre_17-4" x1="226.09" y1="59.16" x2="275.96" y2="59.16" gradientTransform="matrix(-1, -0.08, -0.08, 1, 917.92, 115.58)" xlink:href="#Degradado_sin_nombre_17"/><linearGradient id="Degradado_sin_nombre_137-8" x1="225.78" y1="53.15" x2="273.51" y2="53.15" gradientTransform="matrix(-1, -0.08, -0.08, 1, 917.92, 115.58)" xlink:href="#Degradado_sin_nombre_137"/><linearGradient id="Degradado_sin_nombre_7-4" x1="715.4" y1="157.85" x2="767.16" y2="162.14" xlink:href="#Degradado_sin_nombre_7"/><linearGradient id="Degradado_sin_nombre_17-5" x1="851.98" y1="59.34" x2="901.84" y2="59.34" gradientTransform="translate(-128.5 28.79) rotate(4.74)" xlink:href="#Degradado_sin_nombre_17"/><linearGradient id="Degradado_sin_nombre_137-9" x1="851.66" y1="53.33" x2="899.36" y2="53.33" gradientTransform="translate(-128.5 28.79) rotate(4.74)" xlink:href="#Degradado_sin_nombre_137"/><linearGradient id="Degradado_sin_nombre_137-10" x1="138.92" y1="112.93" x2="282.08" y2="112.93" gradientTransform="matrix(-1, -0.08, -0.08, 1, 917.92, 115.58)" xlink:href="#Degradado_sin_nombre_137"/><linearGradient id="Degradado_sin_nombre_137-11" x1="137.38" y1="111.56" x2="285.24" y2="111.56" gradientTransform="matrix(-1, -0.08, -0.08, 1, 917.92, 115.58)" xlink:href="#Degradado_sin_nombre_137"/><linearGradient id="Degradado_sin_nombre_17-6" x1="138.92" y1="113.02" x2="220.57" y2="113.02" gradientTransform="matrix(-1, -0.08, -0.08, 1, 917.92, 115.58)" xlink:href="#Degradado_sin_nombre_17"/><linearGradient id="Degradado_sin_nombre_19" x1="220.59" y1="117.98" x2="243.9" y2="117.98" gradientTransform="matrix(-1, -0.08, -0.08, 1, 917.92, 115.58)" gradientUnits="userSpaceOnUse"><stop offset="0.47" stop-color="#e94e1b"/><stop offset="0.99" stop-color="#e94e1b"/></linearGradient><linearGradient id="Degradado_sin_nombre_19-2" x1="243.88" y1="108.82" x2="282.08" y2="108.82" xlink:href="#Degradado_sin_nombre_19"/><linearGradient id="Degradado_sin_nombre_137-12" x1="138.91" y1="110.25" x2="282.08" y2="110.25" gradientTransform="matrix(-1, -0.08, -0.08, 1, 917.92, 115.58)" xlink:href="#Degradado_sin_nombre_137"/><linearGradient id="Degradado_sin_nombre_152-2" x1="74.1" y1="43.98" x2="104.93" y2="43.98" gradientTransform="matrix(-0.82, 0.02, 0.03, 1, 770.71, 139.12)" xlink:href="#Degradado_sin_nombre_152"/><linearGradient id="Degradado_sin_nombre_160-2" x1="74.1" y1="43.98" x2="104.93" y2="43.98" gradientTransform="matrix(-0.82, 0.02, 0.03, 1, 770.71, 139.12)" xlink:href="#Degradado_sin_nombre_160"/><linearGradient id="Degradado_sin_nombre_137-14" x1="77.96" y1="43.16" x2="101.07" y2="43.16" gradientTransform="matrix(-0.82, 0.02, 0.03, 1, 770.71, 139.12)" xlink:href="#Degradado_sin_nombre_137"/><linearGradient id="Degradado_sin_nombre_152-3" x1="501.46" y1="292.54" x2="525.04" y2="292.54" gradientTransform="translate(-75.93 -23.21) rotate(-6.36)" xlink:href="#Degradado_sin_nombre_152"/><linearGradient id="Degradado_sin_nombre_137-15" x1="502.37" y1="292.55" x2="522.19" y2="292.55" gradientTransform="translate(-75.93 -23.21) rotate(-6.36)" xlink:href="#Degradado_sin_nombre_137"/><linearGradient id="Degradado_sin_nombre_156" x1="501.35" y1="292.59" x2="524.93" y2="292.59" gradientTransform="translate(-75.93 -23.21) rotate(-6.36)" gradientUnits="userSpaceOnUse"><stop offset="0" stop-color="#fff"/><stop offset="1" stop-color="#fff" stop-opacity="0"/></linearGradient><linearGradient id="Degradado_sin_nombre_160-3" x1="501.35" y1="292.59" x2="524.93" y2="292.59" gradientTransform="translate(-75.93 -23.21) rotate(-6.36)" xlink:href="#Degradado_sin_nombre_160"/><linearGradient id="Degradado_sin_nombre_152-4" x1="143.89" y1="291.72" x2="167.47" y2="291.72" gradientTransform="matrix(-0.99, 0.11, 0.11, 0.99, 553.88, -92.49)" xlink:href="#Degradado_sin_nombre_152"/><linearGradient id="Degradado_sin_nombre_137-16" x1="144.79" y1="291.73" x2="164.61" y2="291.73" gradientTransform="matrix(-0.99, 0.11, 0.11, 0.99, 553.88, -92.49)" xlink:href="#Degradado_sin_nombre_137"/><linearGradient id="Degradado_sin_nombre_156-2" x1="143.78" y1="291.78" x2="167.35" y2="291.78" gradientTransform="matrix(-0.99, 0.11, 0.11, 0.99, 553.88, -92.49)" xlink:href="#Degradado_sin_nombre_156"/><linearGradient id="Degradado_sin_nombre_160-4" x1="143.78" y1="291.78" x2="167.35" y2="291.78" gradientTransform="matrix(-0.99, 0.11, 0.11, 0.99, 553.88, -92.49)" xlink:href="#Degradado_sin_nombre_160"/><linearGradient id="Degradado_sin_nombre_137-17" x1="471.24" y1="312.78" x2="519.85" y2="312.78" gradientTransform="translate(-75.93 -23.21) rotate(-6.36)" xlink:href="#Degradado_sin_nombre_137"/><linearGradient id="Degradado_sin_nombre_137-18" x1="471.41" y1="319.13" x2="519.69" y2="319.13" gradientTransform="translate(-75.93 -23.21) rotate(-6.36)" xlink:href="#Degradado_sin_nombre_137"/><linearGradient id="Degradado_sin_nombre_137-19" x1="470.96" y1="319.2" x2="520.15" y2="319.2" gradientTransform="translate(-75.93 -23.21) rotate(-6.36)" xlink:href="#Degradado_sin_nombre_137"/><linearGradient id="Degradado_sin_nombre_137-20" x1="471.5" y1="318.47" x2="519.78" y2="318.47" gradientTransform="translate(-75.93 -23.21) rotate(-6.36)" xlink:href="#Degradado_sin_nombre_137"/><linearGradient id="Degradado_sin_nombre_137-21" x1="473.04" y1="316.51" x2="519.45" y2="316.51" gradientTransform="translate(-75.93 -23.21) rotate(-6.36)" xlink:href="#Degradado_sin_nombre_137"/><linearGradient id="Degradado_sin_nombre_137-22" x1="471.58" y1="319.53" x2="519.64" y2="319.53" gradientTransform="translate(-75.93 -23.21) rotate(-6.36)" xlink:href="#Degradado_sin_nombre_137"/><linearGradient id="Degradado_sin_nombre_137-23" x1="471.22" y1="317.49" x2="519.83" y2="317.49" gradientTransform="translate(-75.93 -23.21) rotate(-6.36)" xlink:href="#Degradado_sin_nombre_137"/><linearGradient id="Degradado_sin_nombre_152-5" x1="456.09" y1="311.27" x2="531.81" y2="311.27" gradientTransform="translate(-75.93 -23.21) rotate(-6.36)" xlink:href="#Degradado_sin_nombre_152"/><linearGradient id="Degradado_sin_nombre_152-6" x1="475.93" y1="320.92" x2="504.09" y2="320.92" gradientTransform="translate(-75.93 -23.21) rotate(-6.36)" xlink:href="#Degradado_sin_nombre_152"/><linearGradient id="Degradado_sin_nombre_152-7" x1="456.35" y1="319.28" x2="516.25" y2="319.28" gradientTransform="translate(-75.93 -23.21) rotate(-6.36)" xlink:href="#Degradado_sin_nombre_152"/><linearGradient id="Degradado_sin_nombre_152-8" x1="339.47" y1="313.53" x2="522.64" y2="313.53" gradientTransform="translate(-75.93 -23.21) rotate(-6.36)" xlink:href="#Degradado_sin_nombre_152"/><linearGradient id="Degradado_sin_nombre_152-9" x1="471.24" y1="317.22" x2="519.83" y2="317.22" gradientTransform="translate(-75.93 -23.21) rotate(-6.36)" xlink:href="#Degradado_sin_nombre_152"/><linearGradient id="Degradado_sin_nombre_137-24" x1="471.28" y1="312.26" x2="519.89" y2="312.26" gradientTransform="translate(-75.93 -23.21) rotate(-6.36)" xlink:href="#Degradado_sin_nombre_137"/><linearGradient id="Degradado_sin_nombre_137-25" x1="471.24" y1="312.26" x2="519.85" y2="312.26" gradientTransform="translate(-75.93 -23.21) rotate(-6.36)" xlink:href="#Degradado_sin_nombre_137"/><linearGradient id="Degradado_sin_nombre_160-5" x1="427.11" y1="236.27" x2="449.46" y2="233.78" gradientTransform="matrix(1, 0, 0, 1, 0, 0)" xlink:href="#Degradado_sin_nombre_160"/><linearGradient id="Degradado_sin_nombre_160-6" x1="452.95" y1="241.32" x2="456.41" y2="240.93" gradientTransform="matrix(1, 0, 0, 1, 0, 0)" xlink:href="#Degradado_sin_nombre_160"/><linearGradient id="Degradado_sin_nombre_160-7" x1="455.68" y1="238.4" x2="468.39" y2="236.98" gradientTransform="matrix(1, 0, 0, 1, 0, 0)" xlink:href="#Degradado_sin_nombre_160"/><linearGradient id="Degradado_sin_nombre_160-8" x1="468.42" y1="228.52" x2="475.22" y2="227.76" gradientTransform="matrix(1, 0, 0, 1, 0, 0)" xlink:href="#Degradado_sin_nombre_160"/><linearGradient id="Degradado_sin_nombre_160-9" x1="446.2" y1="234.31" x2="450.46" y2="233.84" gradientTransform="matrix(1, 0, 0, 1, 0, 0)" xlink:href="#Degradado_sin_nombre_160"/><linearGradient id="Degradado_sin_nombre_160-10" x1="466.33" y1="229.76" x2="469.62" y2="229.39" gradientTransform="matrix(1, 0, 0, 1, 0, 0)" xlink:href="#Degradado_sin_nombre_160"/><linearGradient id="Degradado_sin_nombre_160-11" x1="438.98" y1="235.01" x2="443.65" y2="234.49" gradientTransform="matrix(1, 0, 0, 1, 0, 0)" xlink:href="#Degradado_sin_nombre_160"/><linearGradient id="Degradado_sin_nombre_160-12" x1="452.42" y1="234.44" x2="458.38" y2="233.77" gradientTransform="matrix(1, 0, 0, 1, 0, 0)" xlink:href="#Degradado_sin_nombre_160"/><linearGradient id="Degradado_sin_nombre_152-10" x1="490.8" y1="301.73" x2="502.26" y2="301.73" gradientTransform="translate(-75.93 -23.21) rotate(-6.36)" xlink:href="#Degradado_sin_nombre_152"/><linearGradient id="Degradado_sin_nombre_160-13" x1="490.8" y1="301.73" x2="502.26" y2="301.73" gradientTransform="translate(-75.93 -23.21) rotate(-6.36)" xlink:href="#Degradado_sin_nombre_160"/><linearGradient id="Degradado_sin_nombre_137-26" x1="492.24" y1="301.43" x2="500.83" y2="301.43" gradientTransform="translate(-75.93 -23.21) rotate(-6.36)" xlink:href="#Degradado_sin_nombre_137"/><linearGradient id="Degradado_sin_nombre_7-5" x1="279.3" y1="199.18" x2="304.63" y2="202.5" xlink:href="#Degradado_sin_nombre_7"/><linearGradient id="Degradado_sin_nombre_17-7" x1="223.87" y1="163.47" x2="248.4" y2="163.47" gradientTransform="translate(78.7 8.25) rotate(7.46)" xlink:href="#Degradado_sin_nombre_17"/><linearGradient id="Degradado_sin_nombre_137-27" x1="223.71" y1="160.52" x2="247.18" y2="160.52" gradientTransform="translate(78.7 8.25) rotate(7.46)" xlink:href="#Degradado_sin_nombre_137"/><linearGradient id="Degradado_sin_nombre_7-6" x1="265.93" y1="197.34" x2="240.58" y2="194.02" xlink:href="#Degradado_sin_nombre_7"/><linearGradient id="Degradado_sin_nombre_17-8" x1="840.67" y1="162.65" x2="865.2" y2="162.65" gradientTransform="matrix(-0.99, -0.13, -0.13, 0.99, 1120.39, 145.46)" xlink:href="#Degradado_sin_nombre_17"/><linearGradient id="Degradado_sin_nombre_137-28" x1="840.51" y1="159.7" x2="864" y2="159.7" gradientTransform="matrix(-0.99, -0.13, -0.13, 0.99, 1120.39, 145.46)" xlink:href="#Degradado_sin_nombre_137"/><linearGradient id="Degradado_sin_nombre_152-11" x1="99.33" y1="131.92" x2="114.5" y2="131.92" gradientTransform="matrix(0.8, 0.19, -0.24, 0.97, 217.05, 63.27)" xlink:href="#Degradado_sin_nombre_152"/><linearGradient id="Degradado_sin_nombre_160-14" x1="99.33" y1="131.92" x2="114.5" y2="131.92" gradientTransform="matrix(0.8, 0.19, -0.24, 0.97, 217.05, 63.27)" xlink:href="#Degradado_sin_nombre_160"/><linearGradient id="Degradado_sin_nombre_137-29" x1="101.22" y1="131.52" x2="112.6" y2="131.52" gradientTransform="matrix(0.8, 0.19, -0.24, 0.97, 217.05, 63.27)" xlink:href="#Degradado_sin_nombre_137"/><linearGradient id="Degradado_sin_nombre_137-30" x1="180.17" y1="195.63" x2="258.22" y2="195.63" gradientTransform="translate(79.24 7.58) rotate(7.89)" xlink:href="#Degradado_sin_nombre_137"/><linearGradient id="Degradado_sin_nombre_17-9" x1="180.17" y1="195.63" x2="258.22" y2="195.63" gradientTransform="translate(79.24 7.58) rotate(7.89)" xlink:href="#Degradado_sin_nombre_17"/><linearGradient id="Degradado_sin_nombre_137-32" x1="180.17" y1="195.46" x2="258.22" y2="195.46" gradientTransform="translate(79.24 7.58) rotate(7.89)" xlink:href="#Degradado_sin_nombre_137"/><linearGradient id="Degradado_sin_nombre_7-7" x1="156.04" y1="181.17" x2="193.21" y2="178.09" xlink:href="#Degradado_sin_nombre_7"/><linearGradient id="Degradado_sin_nombre_17-10" x1="241.65" y1="86.12" x2="277.45" y2="86.12" gradientTransform="translate(-91.64 115.58) rotate(-4.74)" xlink:href="#Degradado_sin_nombre_17"/><linearGradient id="Degradado_sin_nombre_137-34" x1="241.42" y1="81.81" x2="275.69" y2="81.81" gradientTransform="translate(-91.64 115.58) rotate(-4.74)" xlink:href="#Degradado_sin_nombre_137"/><linearGradient id="Degradado_sin_nombre_7-8" x1="136.42" y1="182.88" x2="99.26" y2="185.96" xlink:href="#Degradado_sin_nombre_7"/><linearGradient id="Degradado_sin_nombre_17-11" x1="828.5" y1="86.27" x2="864.29" y2="86.27" gradientTransform="matrix(-1, 0.08, 0.08, 1, 954.77, 28.79)" xlink:href="#Degradado_sin_nombre_17"/><linearGradient id="Degradado_sin_nombre_137-35" x1="828.27" y1="81.96" x2="862.51" y2="81.96" gradientTransform="matrix(-1, 0.08, 0.08, 1, 954.77, 28.79)" xlink:href="#Degradado_sin_nombre_137"/><linearGradient id="Degradado_sin_nombre_137-36" x1="179.07" y1="124.73" x2="281.84" y2="124.73" gradientTransform="translate(-91.64 115.58) rotate(-4.74)" xlink:href="#Degradado_sin_nombre_137"/><linearGradient id="Degradado_sin_nombre_137-37" x1="177.96" y1="123.74" x2="284.11" y2="123.74" gradientTransform="translate(-91.64 115.58) rotate(-4.74)" xlink:href="#Degradado_sin_nombre_137"/><linearGradient id="Degradado_sin_nombre_17-12" x1="179.07" y1="124.79" x2="237.69" y2="124.79" gradientTransform="translate(-91.64 115.58) rotate(-4.74)" xlink:href="#Degradado_sin_nombre_17"/><linearGradient id="Degradado_sin_nombre_19-3" x1="237.7" y1="128.35" x2="254.43" y2="128.35" gradientTransform="translate(-91.64 115.58) rotate(-4.74)" xlink:href="#Degradado_sin_nombre_19"/><linearGradient id="Degradado_sin_nombre_19-4" x1="254.42" y1="121.77" x2="281.84" y2="121.77" gradientTransform="translate(-91.64 115.58) rotate(-4.74)" xlink:href="#Degradado_sin_nombre_19"/><linearGradient id="Degradado_sin_nombre_137-38" x1="179.06" y1="122.8" x2="281.84" y2="122.8" gradientTransform="translate(-91.64 115.58) rotate(-4.74)" xlink:href="#Degradado_sin_nombre_137"/><linearGradient id="Degradado_sin_nombre_152-12" x1="104.1" y1="60.84" x2="126.23" y2="60.84" gradientTransform="matrix(0.82, 0.02, -0.03, 1, 55.57, 139.12)" xlink:href="#Degradado_sin_nombre_152"/><linearGradient id="Degradado_sin_nombre_160-15" x1="104.1" y1="60.84" x2="126.23" y2="60.84" gradientTransform="matrix(0.82, 0.02, -0.03, 1, 55.57, 139.12)" xlink:href="#Degradado_sin_nombre_160"/><linearGradient id="Degradado_sin_nombre_137-40" x1="106.87" y1="60.25" x2="123.46" y2="60.25" gradientTransform="matrix(0.82, 0.02, -0.03, 1, 55.57, 139.12)" xlink:href="#Degradado_sin_nombre_137"/><linearGradient id="Degradado_sin_nombre_7-9" x1="377.16" y1="245.79" x2="403.8" y2="251.7" xlink:href="#Degradado_sin_nombre_7"/><linearGradient id="Degradado_sin_nombre_17-13" x1="415.83" y1="162.46" x2="442.02" y2="162.46" gradientTransform="translate(6.55 -2.66) rotate(12.52)" xlink:href="#Degradado_sin_nombre_17"/><linearGradient id="Degradado_sin_nombre_137-41" x1="415.66" y1="159.3" x2="440.71" y2="159.3" gradientTransform="translate(6.55 -2.66) rotate(12.52)" xlink:href="#Degradado_sin_nombre_137"/><linearGradient id="Degradado_sin_nombre_7-10" x1="363.12" y1="242.51" x2="336.46" y2="236.59" xlink:href="#Degradado_sin_nombre_7"/><linearGradient id="Degradado_sin_nombre_17-14" x1="649.83" y1="163.61" x2="676.04" y2="163.61" gradientTransform="matrix(-0.98, -0.22, -0.22, 0.98, 1032.72, 223.79)" xlink:href="#Degradado_sin_nombre_17"/><linearGradient id="Degradado_sin_nombre_137-42" x1="649.66" y1="160.46" x2="674.76" y2="160.46" gradientTransform="matrix(-0.98, -0.22, -0.22, 0.98, 1032.72, 223.79)" xlink:href="#Degradado_sin_nombre_137"/><linearGradient id="Degradado_sin_nombre_137-43" x1="370.06" y1="190.55" x2="445.31" y2="190.55" gradientTransform="translate(6.55 -2.66) rotate(12.52)" xlink:href="#Degradado_sin_nombre_137"/><linearGradient id="Degradado_sin_nombre_137-44" x1="372.16" y1="189.8" x2="440.98" y2="189.8" gradientTransform="translate(6.55 -2.66) rotate(12.52)" xlink:href="#Degradado_sin_nombre_137"/><linearGradient id="Degradado_sin_nombre_17-15" x1="370.06" y1="190.55" x2="413.1" y2="190.55" gradientTransform="translate(6.55 -2.66) rotate(12.52)" xlink:href="#Degradado_sin_nombre_17"/><linearGradient id="Degradado_sin_nombre_19-5" x1="413.06" y1="193.28" x2="425.31" y2="193.28" gradientTransform="translate(6.55 -2.66) rotate(12.52)" xlink:href="#Degradado_sin_nombre_19"/><linearGradient id="Degradado_sin_nombre_19-6" x1="425.32" y1="188.54" x2="445.31" y2="188.54" gradientTransform="translate(6.55 -2.66) rotate(12.52)" xlink:href="#Degradado_sin_nombre_19"/><linearGradient id="Degradado_sin_nombre_137-45" x1="370.07" y1="189.25" x2="445.3" y2="189.25" gradientTransform="translate(6.55 -2.66) rotate(12.52)" xlink:href="#Degradado_sin_nombre_137"/><linearGradient id="Degradado_sin_nombre_152-13" x1="328.75" y1="112.01" x2="344.96" y2="112.01" gradientTransform="matrix(0.78, 0.26, -0.32, 0.95, 140.86, 63.94)" xlink:href="#Degradado_sin_nombre_152"/><linearGradient id="Degradado_sin_nombre_160-16" x1="328.75" y1="112.01" x2="344.96" y2="112.01" gradientTransform="matrix(0.78, 0.26, -0.32, 0.95, 140.86, 63.94)" xlink:href="#Degradado_sin_nombre_160"/><linearGradient id="Degradado_sin_nombre_137-47" x1="330.77" y1="111.58" x2="342.92" y2="111.58" gradientTransform="matrix(0.78, 0.26, -0.32, 0.95, 140.86, 63.94)" xlink:href="#Degradado_sin_nombre_137"/><linearGradient id="Degradado_sin_nombre_152-14" x1="150.36" y1="127.1" x2="192.03" y2="127.1" gradientTransform="translate(-75.93 -23.21) rotate(-6.36)" xlink:href="#Degradado_sin_nombre_152"/><linearGradient id="Degradado_sin_nombre_137-48" x1="151.96" y1="127.12" x2="186.99" y2="127.12" gradientTransform="translate(-75.93 -23.21) rotate(-6.36)" xlink:href="#Degradado_sin_nombre_137"/><linearGradient id="Degradado_sin_nombre_156-3" x1="150.16" y1="127.2" x2="191.83" y2="127.2" xlink:href="#Degradado_sin_nombre_156"/><linearGradient id="Degradado_sin_nombre_160-17" x1="150.16" y1="127.2" x2="191.83" y2="127.2" gradientTransform="translate(-75.93 -23.21) rotate(-6.36)" xlink:href="#Degradado_sin_nombre_160"/><linearGradient id="Degradado_sin_nombre_152-15" x1="503.98" y1="126.37" x2="545.64" y2="126.37" gradientTransform="matrix(-0.99, 0.11, 0.11, 0.99, 553.88, -92.49)" xlink:href="#Degradado_sin_nombre_152"/><linearGradient id="Degradado_sin_nombre_137-49" x1="505.57" y1="126.38" x2="540.59" y2="126.38" gradientTransform="matrix(-0.99, 0.11, 0.11, 0.99, 553.88, -92.49)" xlink:href="#Degradado_sin_nombre_137"/><linearGradient id="Degradado_sin_nombre_156-4" x1="503.78" y1="126.47" x2="545.44" y2="126.47" gradientTransform="matrix(-0.99, 0.11, 0.11, 0.99, 553.88, -92.49)" xlink:href="#Degradado_sin_nombre_156"/><linearGradient id="Degradado_sin_nombre_160-18" x1="503.78" y1="126.47" x2="545.44" y2="126.47" gradientTransform="matrix(-0.99, 0.11, 0.11, 0.99, 553.88, -92.49)" xlink:href="#Degradado_sin_nombre_160"/><linearGradient id="Degradado_sin_nombre_137-50" x1="96.95" y1="163.07" x2="182.85" y2="163.07" gradientTransform="translate(-75.93 -23.21) rotate(-6.36)" xlink:href="#Degradado_sin_nombre_137"/><linearGradient id="Degradado_sin_nombre_137-51" x1="97.32" y1="174.35" x2="182.45" y2="174.35" gradientTransform="translate(-75.93 -23.21) rotate(-6.36)" xlink:href="#Degradado_sin_nombre_137"/><linearGradient id="Degradado_sin_nombre_137-52" x1="96.26" y1="174.47" x2="183.53" y2="174.47" gradientTransform="translate(-75.93 -23.21) rotate(-6.36)" xlink:href="#Degradado_sin_nombre_137"/><linearGradient id="Degradado_sin_nombre_137-53" x1="97.56" y1="173.17" x2="182.64" y2="173.17" gradientTransform="translate(-75.93 -23.21) rotate(-6.36)" xlink:href="#Degradado_sin_nombre_137"/><linearGradient id="Degradado_sin_nombre_137-54" x1="100.18" y1="169.67" x2="182.12" y2="169.67" gradientTransform="translate(-75.93 -23.21) rotate(-6.36)" xlink:href="#Degradado_sin_nombre_137"/><linearGradient id="Degradado_sin_nombre_137-55" x1="97.74" y1="175.05" x2="182.31" y2="175.05" gradientTransform="translate(-75.93 -23.21) rotate(-6.36)" xlink:href="#Degradado_sin_nombre_137"/><linearGradient id="Degradado_sin_nombre_137-56" x1="96.91" y1="171.43" x2="182.79" y2="171.43" gradientTransform="translate(-75.93 -23.21) rotate(-6.36)" xlink:href="#Degradado_sin_nombre_137"/><linearGradient id="Degradado_sin_nombre_152-16" x1="70.12" y1="160.36" x2="203.98" y2="160.36" gradientTransform="translate(-75.93 -23.21) rotate(-6.36)" xlink:href="#Degradado_sin_nombre_152"/><linearGradient id="Degradado_sin_nombre_152-17" x1="105.23" y1="177.51" x2="154.98" y2="177.51" gradientTransform="translate(-75.93 -23.21) rotate(-6.36)" xlink:href="#Degradado_sin_nombre_152"/><linearGradient id="Degradado_sin_nombre_152-18" x1="70.64" y1="174.59" x2="176.47" y2="174.59" gradientTransform="translate(-75.93 -23.21) rotate(-6.36)" xlink:href="#Degradado_sin_nombre_152"/><linearGradient id="Degradado_sin_nombre_152-19" x1="-135.8" y1="164.41" x2="187.74" y2="164.41" gradientTransform="translate(-75.93 -23.21) rotate(-6.36)" xlink:href="#Degradado_sin_nombre_152"/><linearGradient id="Degradado_sin_nombre_152-20" x1="96.95" y1="170.94" x2="182.79" y2="170.94" gradientTransform="translate(-75.93 -23.21) rotate(-6.36)" xlink:href="#Degradado_sin_nombre_152"/><linearGradient id="Degradado_sin_nombre_137-57" x1="97.02" y1="162.14" x2="182.92" y2="162.14" gradientTransform="translate(-75.93 -23.21) rotate(-6.36)" xlink:href="#Degradado_sin_nombre_137"/><linearGradient id="Degradado_sin_nombre_137-58" x1="96.95" y1="162.14" x2="182.85" y2="162.14" gradientTransform="translate(-75.93 -23.21) rotate(-6.36)" xlink:href="#Degradado_sin_nombre_137"/><linearGradient id="Degradado_sin_nombre_160-19" x1="38.64" y1="129.56" x2="78.11" y2="125.16" gradientTransform="matrix(1, 0, 0, 1, 0, 0)" xlink:href="#Degradado_sin_nombre_160"/><linearGradient id="Degradado_sin_nombre_160-20" x1="84.29" y1="138.54" x2="90.41" y2="137.86" gradientTransform="matrix(1, 0, 0, 1, 0, 0)" xlink:href="#Degradado_sin_nombre_160"/><linearGradient id="Degradado_sin_nombre_160-21" x1="89.11" y1="133.34" x2="111.57" y2="130.84" gradientTransform="matrix(1, 0, 0, 1, 0, 0)" xlink:href="#Degradado_sin_nombre_160"/><linearGradient id="Degradado_sin_nombre_160-22" x1="111.62" y1="115.8" x2="123.65" y2="114.46" gradientTransform="matrix(1, 0, 0, 1, 0, 0)" xlink:href="#Degradado_sin_nombre_160"/><linearGradient id="Degradado_sin_nombre_160-23" x1="72.37" y1="126.09" x2="79.89" y2="125.26" gradientTransform="matrix(1, 0, 0, 1, 0, 0)" xlink:href="#Degradado_sin_nombre_160"/><linearGradient id="Degradado_sin_nombre_160-24" x1="107.92" y1="118.01" x2="113.75" y2="117.36" gradientTransform="matrix(1, 0, 0, 1, 0, 0)" xlink:href="#Degradado_sin_nombre_160"/><linearGradient id="Degradado_sin_nombre_160-25" x1="59.62" y1="127.34" x2="67.86" y2="126.42" gradientTransform="matrix(1, 0, 0, 1, 0, 0)" xlink:href="#Degradado_sin_nombre_160"/><linearGradient id="Degradado_sin_nombre_160-26" x1="83.35" y1="126.31" x2="93.89" y2="125.14" gradientTransform="matrix(1, 0, 0, 1, 0, 0)" xlink:href="#Degradado_sin_nombre_160"/><linearGradient id="Degradado_sin_nombre_152-21" x1="131.52" y1="143.45" x2="151.77" y2="143.45" gradientTransform="translate(-75.93 -23.21) rotate(-6.36)" xlink:href="#Degradado_sin_nombre_152"/><linearGradient id="Degradado_sin_nombre_160-27" x1="131.52" y1="143.45" x2="151.77" y2="143.45" gradientTransform="translate(-75.93 -23.21) rotate(-6.36)" xlink:href="#Degradado_sin_nombre_160"/><linearGradient id="Degradado_sin_nombre_137-59" x1="134.06" y1="142.91" x2="149.23" y2="142.91" gradientTransform="translate(-75.93 -23.21) rotate(-6.36)" xlink:href="#Degradado_sin_nombre_137"/></defs><title>Asset 7</title><g class="cls-1"><g id="Layer_2" data-name="Layer 2"><g id="OBJECTS"><path d="M612.39,208.43c-13.21-54.41-49.9-66.35-67.2-47.5a41.26,41.26,0,0,0-12.09-2.22c-.85-17.45-8.25-50.14-37.29-18.33L508.68,147s-3.56-19.15,9.57-13.57c5.54,2.35-6.62,32.44-7.54,36.49-.45.72-56.06-10.21-43,63.92,0,0,14,71.77,50.93,48.38,1-.2,20.43,11.46,35-4.69,0,0,19.68,5.85,25-4.73C579.37,272.38,625.61,262.83,612.39,208.43Z"/><g class="cls-2"><path class="cls-3" d="M529,211c-.76.1-18.93,4.74-28.28-12.42,0,0-7.44,27,11.56,27.82S529,211,529,211Z"/><path class="cls-4" d="M500.72,198.6c6,11.06,15.72,13.07,22,13.07A29.94,29.94,0,0,0,529,211s2.18,15.43-15.38,15.43l-1.34,0c-19-.8-11.56-27.82-11.56-27.82m-.24-2-.5,1.84a46.59,46.59,0,0,0-1.38,8.68c-.42,6.5.64,11.55,3.16,15,2.33,3.2,5.86,4.92,10.49,5.11l1.37,0c5.77,0,10.12-1.62,12.9-4.83,4.14-4.76,3.28-11.2,3.24-11.48l-.1-.75-.76.1-.29.05a28.6,28.6,0,0,1-5.84.59c-6.6,0-15.67-2.2-21.38-12.66l-.91-1.68Z"/></g><path class="cls-3" d="M529.57,210.91c-.76.1-19.56,3.88-28.91-13.28,0,0-7.06,28,11.95,28.81S529.57,210.91,529.57,210.91Z"/><path class="cls-5" d="M529.57,210.91c-.76.1-19.56,3.88-28.91-13.28,0,0-6.91,28.13,12.09,28.93S529.57,210.91,529.57,210.91Z"/><path class="cls-6" d="M513.24,220.42c-13.26-.55-13.74-14.9-12.83-23.53.06-.26.1-.41.1-.41,9.35,17.15,28.37,13.64,29.13,13.54a9.17,9.17,0,0,1,0,.94C528.08,215.63,523.93,220.87,513.24,220.42Z"/><g class="cls-2"><path class="cls-3" d="M546.82,208.65c.76-.1,19.5-.37,24.18-19.39,0,0,14,24.16-4.11,29.9S546.82,208.65,546.82,208.65Z"/><path class="cls-7" d="M571,189.26s14,24.16-4.11,29.9a23.86,23.86,0,0,1-7.13,1.23c-11.56,0-12.94-11.74-12.94-11.74.76-.1,19.5-.37,24.18-19.39m-.29-2-.46,1.85c-4,16.27-18.8,18.5-23.24,18.79l-.29,0-.75.1.09.75c0,.13,1.59,12.42,13.7,12.42a24.65,24.65,0,0,0,7.36-1.27c4.44-1.4,7.42-4,8.85-7.7,1.54-4,1.28-9.14-.78-15.3a46.74,46.74,0,0,0-3.53-8l-.95-1.65Z"/></g><path class="cls-3" d="M546.25,208.7c.76-.11,19.88-1.38,24.56-20.39,0,0,13.93,25.21-4.23,31S546.25,208.7,546.25,208.7Z"/><path class="cls-8" d="M546.25,208.7c.76-.11,19.88-1.38,24.56-20.39,0,0,13.82,25.36-4.34,31.1S546.25,208.7,546.25,208.7Z"/><path class="cls-9" d="M564.44,213.62c12.67-4,9.49-18,6.42-26.1l-.2-.37c-4.68,19-23.95,20.6-24.71,20.7,0,0,.06.35.2.92C548.88,212.87,554.23,216.84,564.44,213.62Z"/><polygon class="cls-10" points="537.53 218.38 548.06 229.7 533.29 233.34 537.53 218.38 548.06 229.7 533.29 233.34 537.53 218.38"/><polygon class="cls-11" points="537.53 218.38 548.06 229.7 533.29 233.34 537.53 218.38 548.06 229.7 533.29 233.34 537.53 218.38"/><polygon class="cls-12" points="537.58 218.56 545.94 229.02 534.87 231.75 537.58 218.56 545.94 229.02 534.87 231.75 537.58 218.56"/><path class="cls-13" d="M548.06,229.7c-2.43.72-4.89,1.33-7.35,2s-4.93,1.19-7.42,1.68c2.44-.72,4.9-1.33,7.35-2S545.57,230.2,548.06,229.7Z"/><path class="cls-14" d="M586.82,229.4c-.89.52-13.53,22.47-13.53,22.47L566,248l-6.37,11.28-8.55-4.67-6.94,10L531,254.88l-10.85,12.49-6.56-8.48L511,265l-18.85-26.34,18.05,11.95,4.18-4.7L521,256.29l11.45-10.82,9.82,6.85,7.78-10.89,6.81,6.09,5.7-10.59,9.51,3.16Z"/><path class="cls-14" d="M586.82,229.4c-.89.52-13.53,22.47-13.53,22.47L566,248l-6.37,11.28-8.55-4.67-6.94,10L531,254.88l-10.85,12.49-6.56-8.48L511,265l-18.85-26.34,18.05,11.95,4.18-4.7L521,256.29l11.45-10.82,9.82,6.85,7.78-10.89,6.81,6.09,5.7-10.59,9.51,3.16Z"/><path class="cls-15" d="M510.56,261.87l2.65-6.05,6.56,8.48,10.85-12.5,13.1,9.72,6.94-10,8.55,4.67,6.37-11.28,7.29,3.88s5.46-9.5,9.46-16.14l4.49-3.26c-.89.52-13.53,22.47-13.53,22.47L566,248l-6.37,11.28-8.55-4.67-6.94,10L531,254.88l-10.85,12.49-6.56-8.48L511,265l-18.85-26.34,3.39,2.24Z"/><path class="cls-16" d="M565.58,244.92l-6.37,11.28-8.55-4.67-6.94,10-13.1-9.72-10.85,12.5-6.56-8.48-2.65,6.05-15-21,14.66,9.71,4.18-4.7L521,256.29l11.45-10.82,9.82,6.85,7.78-10.89,6.81,6.09,5.7-10.59,9.51,3.16,10.26-7.43c-4,6.64-9.46,16.14-9.46,16.14Z"/><path class="cls-16" d="M565.58,244.92l-6.37,11.28-8.55-4.67-6.94,10-13.1-9.72-10.85,12.5-6.56-8.48-2.65,6.05-15-21,14.66,9.71,4.18-4.7L521,256.29l11.45-10.82,9.82,6.85,7.78-10.89,6.81,6.09,5.7-10.59,9.51,3.16,10.26-7.43c-4,6.64-9.46,16.14-9.46,16.14Z"/><g class="cls-17"><path class="cls-13" d="M586.82,229.4l-8.76,14.87-4.41,7.42-.14.24,0,0s0,0-.07.08a.28.28,0,0,1-.18,0l-.18,0c-.18-.07-.35-.15-.51-.23l-1-.48-1.91-1-3.77-2.11.34-.1c-1.78,3.35-3.54,6.7-5.44,10-.25.41-.48.81-.78,1.23l-.08.09,0,.05a.38.38,0,0,1-.26.09c-.15,0-.11,0-.13,0l0,0-.08,0-.31-.17-.63-.34-2.5-1.35-5-2.71.42-.1-6.9,10-.21.3-.31-.22q-6.57-4.81-13.09-9.72l.47,0-10.88,12.46-.24.27-.22-.29-6.54-8.5.45-.05-2.67,6-.17.38-.24-.34-9.36-13.21-9.3-13.26,9.56,13.07,9.48,13.13-.4,0,2.62-6.06.18-.4.27.34,6.59,8.46H520l10.8-12.53.21-.25.27.19c4.38,3.22,8.76,6.45,13.1,9.71l-.51.09,7-10,.17-.23.25.13,5,2.74,2.48,1.37.62.34c.17.11.59.28.25.2.25-.34.5-.76.74-1.16,1.91-3.25,3.7-6.6,5.5-9.92l.12-.22.22.12,3.74,2.12,1.89,1,1,.49c.16.08.33.15.48.21l.08,0s-.06,0-.11,0,0,0,0,0l0-.06.14-.23,4.48-7.36Z"/></g><path d="M594.92,185c4-80.66,52.66-107.79,82.25-85.93a59.29,59.29,0,0,1,16.49-6.51c-3.51-24.93-1.89-73.25,47.81-36.32L725.05,69.12S724.91,41,707.83,52.58c-7.21,4.87,18.14,44.06,20.55,49.53.83.9,76.57-30.06,78.16,78.47,0,0-.35,105.45-59,82.65-1.52,0-25.81,21.91-50.78,3.11,0,0-26.26,13.77-36.68.29C659,266.25,591,265.62,594.92,185Z"/><g class="cls-2"><path class="cls-3" d="M686.52,158.58c-1.28-.1-32.53.95-41.83-30.38,0,0-21.53,41.41,9.2,49.52S686.52,158.58,686.52,158.58Z"/><path class="cls-18" d="M644.69,128.2c9.3,31.33,40.55,30.28,41.83,30.38,0,0-1.45,20.65-22.09,20.65a41.46,41.46,0,0,1-10.54-1.51c-30.73-8.11-9.2-49.52-9.2-49.52m.33-3.42-1.47,2.83a79.31,79.31,0,0,0-5.25,13.65c-2.95,10.44-3,19.05-.1,25.58,2.69,6.07,7.85,10.14,15.36,12.12a42.92,42.92,0,0,0,10.87,1.55c21.59,0,23.35-21.62,23.37-21.84l.09-1.26-1.27-.11h-.48a47.88,47.88,0,0,1-18.37-3.94c-10.9-4.8-18.25-13.38-21.84-25.52l-.91-3Z"/></g><path class="cls-3" d="M687.48,158.61c-1.28-.11-33.26-.68-42.55-32,0,0-21.25,43.16,9.48,51.27S687.48,158.61,687.48,158.61Z"/><path class="cls-19" d="M687.48,158.61c-1.28-.11-33.26-.68-42.55-32,0,0-21,43.4,9.67,51.51S687.48,158.61,687.48,158.61Z"/><path class="cls-20" d="M657.54,168.28c-21.44-5.66-17.24-29.24-12.75-43l.3-.63c9.29,31.33,41.55,32.42,42.82,32.52,0,0-.07.59-.27,1.55C683.42,165.78,674.81,172.84,657.54,168.28Z"/><g class="cls-2"><path class="cls-3" d="M716.42,161.1c1.27.11,31.93,6.37,46.18-23,0,0,14.52,44.44-17.1,47.31S716.42,161.1,716.42,161.1Z"/><path class="cls-21" d="M762.6,138.12s14.52,44.44-17.1,47.31c-1.59.14-3.08.21-4.5.21-26.88,0-24.58-24.54-24.58-24.54a51.32,51.32,0,0,0,8,.63c10.37,0,28.27-3.16,38.2-23.61m.23-3.43-1.39,2.86c-9.18,18.92-25.21,22.89-37,22.89a47.11,47.11,0,0,1-7.39-.56l-.49-.06-1.26-.11-.12,1.27c0,.44-.94,10.93,6,18.51,4.49,4.93,11.18,7.43,19.89,7.43,1.47,0,3-.07,4.61-.21,7.72-.7,13.47-3.85,17.1-9.37,3.93-6,5.3-14.46,4.08-25.26a78.46,78.46,0,0,0-3-14.36l-1-3Z"/></g><path class="cls-3" d="M715.47,161c1.27.11,32.91,4.88,47.16-24.47,0,0,14,46.13-17.67,49S715.47,161,715.47,161Z"/><path class="cls-22" d="M715.47,161c1.27.11,32.91,4.88,47.16-24.47,0,0,13.72,46.33-17.9,49.2S715.47,161,715.47,161Z"/><path class="cls-23" d="M743.42,175.5c22.07-2,21.76-26,19.55-40.27-.11-.42-.19-.67-.19-.67-14.24,29.35-46.24,25-47.51,24.92,0,0,0,.59,0,1.57C718.31,168.72,725.65,177.11,743.42,175.5Z"/><path class="cls-24" d="M772.44,189s-12,21.09-47.6,18.1c-.32,3.87-.84,14.23-.84,14.23l-20-1.69.42-13s-44.64-2.46-74.45-29.66c0,0-6.85,25.09,34,50.63l1-11.95,23.22,2-1.64,20S756.37,248.41,772.44,189Z"/><path class="cls-3" d="M769.94,192.31a22.15,22.15,0,0,0,2.5-3.32c-16.07,59.42-86,48.67-86,48.67l.44-5.38S749.72,241.93,769.94,192.31Z"/><path class="cls-25" d="M724.29,215.92c.17-3.13.39-6.84.55-8.83h.08c-.25,4.23-.48,8.85-.48,8.85Z"/><polygon class="cls-3" points="688.55 212.27 688.11 217.65 664.89 215.69 665.33 210.31 688.55 212.27"/><path class="cls-3" d="M630,177c.33,8.74,5,26.87,34.39,45.23l-.44,5.38c-40.83-25.54-34-50.63-34-50.63Z"/><path class="cls-26" d="M769.94,192.31a22.15,22.15,0,0,0,2.5-3.32c-16.07,59.42-86,48.67-86,48.67l.44-5.38S749.72,241.93,769.94,192.31Z"/><polygon class="cls-27" points="665.33 210.31 688.55 212.27 688.11 217.65 664.89 215.69 665.33 210.31"/><path class="cls-28" d="M629.93,177l0,0c.33,8.74,5,26.87,34.39,45.23l-.44,5.38C623.08,202.1,629.93,177,629.93,177Z"/><path class="cls-29" d="M630,177c29.8,27.18,74.42,29.64,74.42,29.64l-.42,13,20,1.69s.12-2.45.29-5.4l.15,0s.23-4.62.48-8.85c26.56,2.21,39.94-9,45-14.78-20.22,49.62-83,40-83,40l1.2-14.63.44-5.38-23.22-2-.44,5.38-.54,6.57C635,203.9,630.29,185.77,630,177Z"/><path class="cls-29" d="M630,177c29.8,27.18,74.42,29.64,74.42,29.64l-.42,13,20,1.69s.12-2.45.29-5.4l.15,0s.23-4.62.48-8.85c26.56,2.21,39.94-9,45-14.78-20.22,49.62-83,40-83,40l1.2-14.63.44-5.38-23.22-2-.44,5.38-.54,6.57C635,203.9,630.29,185.77,630,177Z"/><polygon class="cls-30" points="697.88 173.65 711.12 195.88 685.75 196.53 697.88 173.65 711.12 195.88 685.75 196.53 697.88 173.65"/><polygon class="cls-31" points="697.88 173.65 711.12 195.88 685.75 196.53 697.88 173.65 711.12 195.88 685.75 196.53 697.88 173.65"/><polygon class="cls-32" points="697.89 173.96 707.9 194.02 688.88 194.5 697.89 173.96 707.9 194.02 688.88 194.5 697.89 173.96"/><path class="cls-13" d="M711.12,195.88c-2.11.14-4.22.26-6.34.34l-6.34.22-6.34.11q-3.17,0-6.35,0,3.18-.21,6.34-.34l6.34-.21,6.34-.11C706.89,195.85,709,195.85,711.12,195.88Z"/><g class="cls-17"><path class="cls-13" d="M663.91,227.64a87.49,87.49,0,0,1-13.36-9.07,75.85,75.85,0,0,1-11.41-11.46A47.76,47.76,0,0,1,631.27,193a38.45,38.45,0,0,1-1.66-7.93A36.23,36.23,0,0,1,630,177a35.45,35.45,0,0,0-.12,8,38.12,38.12,0,0,0,1.77,7.83,48.4,48.4,0,0,0,7.89,13.93,78.34,78.34,0,0,0,11.27,11.47q3.09,2.59,6.38,4.93C659.34,224.79,661.58,226.29,663.91,227.64Z"/></g><path d="M405.7,230c-3.61-33.6,14.75-48.08,28.4-41a24.86,24.86,0,0,1,6.39-3.8c-3.07-10.07-5.54-30.15,17.39-18.22l-5.94,6.45s-1.88-11.6-8.19-5.68c-2.66,2.5,10.36,17,11.72,19.09.4.32,29.68-17.55,37.4,27.19,0,0,6.72,43.6-19,38.11-.63.1-9.24,10.78-20.79,4.68,0,0-9.95,7.46-15.13,2.58C437.46,259.32,409.31,263.62,405.7,230Z"/><path class="cls-33" d="M455.53,218.46c10.16,3.19,23.27-4.08,23.27-4.08-2-6.83-8.48-12.25-8.48-12.25"/><path class="cls-34" d="M469,203.48s5.13,4.44,6.83,10.23c0,0-10.92,6.48-19.53,3.78"/><path class="cls-13" d="M455.53,218.49a27.83,27.83,0,0,0,6,.53,32.85,32.85,0,0,0,5.94-.58,33.74,33.74,0,0,0,5.75-1.57,44.5,44.5,0,0,0,5.47-2.44c-.86.51-1.71,1-2.6,1.51s-1.8.91-2.74,1.25a30.85,30.85,0,0,1-5.8,1.7,30.38,30.38,0,0,1-6,.48A22.67,22.67,0,0,1,455.53,218.49Z"/><g class="cls-2"><path class="cls-35" d="M470.22,202.2,469,203.58c.45.4,5.18,4.69,6.79,10.2,0,0-10.87,6.45-19.46,3.79l-.87,1c10.16,3.19,23.27-4.08,23.27-4.08C476.7,207.62,470.22,202.2,470.22,202.2Z"/></g><g class="cls-36"><path class="cls-37" d="M470.22,202.2,469,203.58c.45.4,5.18,4.69,6.79,10.2,0,0-10.87,6.45-19.46,3.79l-.87,1c10.16,3.19,23.27-4.08,23.27-4.08C476.7,207.62,470.22,202.2,470.22,202.2Z"/></g><path class="cls-13" d="M470.29,202.19a30.76,30.76,0,0,1,5.17,5.4,23.21,23.21,0,0,1,2,3.18,12.83,12.83,0,0,1,1.23,3.54,23.15,23.15,0,0,0-3.58-6.45c-.72-1-1.52-2-2.32-2.9S471.14,203.1,470.29,202.19Z"/><path class="cls-38" d="M455.63,218.37c1.19-1.39,2.37-2.79,3.57-4.16l3.63-4.11c2.46-2.69,4.91-5.4,7.49-8-2.3,2.84-4.73,5.57-7.16,8.3l-3.7,4C458.2,215.77,457,217.1,455.63,218.37Z"/><path class="cls-39" d="M443.89,219.77c-9.22,5.39-23.59,1.22-23.59,1.22.47-7.11,5.62-13.84,5.62-13.84"/><path class="cls-40" d="M427.47,208.18s-4,5.47-4.44,11.5c0,0,12.06,3.88,19.87-.68"/><path class="cls-13" d="M443.89,219.81a22.38,22.38,0,0,1-5.61,2.18,29.26,29.26,0,0,1-6,.87,30.44,30.44,0,0,1-6-.35,29.68,29.68,0,0,1-2.95-.61c-1-.25-1.92-.59-2.87-.9a43.82,43.82,0,0,0,5.87,1.16,33,33,0,0,0,6,.25,31.77,31.77,0,0,0,5.91-.76A28.42,28.42,0,0,0,443.89,219.81Z"/><g class="cls-2"><path class="cls-41" d="M426,207.19l1.52,1.07c-.35.49-4,5.72-4.41,11.46,0,0,12,3.87,19.81-.64l1.05.74c-9.22,5.38-23.59,1.21-23.59,1.21C420.89,213.92,426,207.19,426,207.19Z"/></g><g class="cls-36"><path class="cls-42" d="M426,207.19l1.52,1.07c-.35.49-4,5.72-4.41,11.46,0,0,12,3.87,19.81-.64l1.05.74c-9.22,5.38-23.59,1.21-23.59,1.21C420.89,213.92,426,207.19,426,207.19Z"/></g><path class="cls-13" d="M426,207.2c-.64,1.07-1.25,2.16-1.83,3.26s-1.16,2.19-1.64,3.34a23.09,23.09,0,0,0-2.09,7.09,13.07,13.07,0,0,1,.42-3.73,25,25,0,0,1,1.26-3.55A30.77,30.77,0,0,1,426,207.2Z"/><path class="cls-38" d="M443.77,219.71c-1.57-.94-3.07-2-4.58-3l-4.49-3.11c-3-2.12-5.92-4.23-8.78-6.49,3.08,2,6.05,4,9,6.12l4.43,3.2C440.86,217.52,442.31,218.62,443.77,219.71Z"/><path class="cls-43" d="M426.23,228c-.28-.21,1.48,9,8.94,11.33a9.12,9.12,0,0,1,.32-2.3l3.3.63.61,2.54s2.83,1.61,2.8,1.36.15-3.12.15-3.12l3.87-.19s.46,4.15.78,4,3.31-.71,3.31-.71l-1-3.5,3.39-.05v3.11l3.47-.06-.58-3,3.58-.49,1.53,2.6,2.32-.77-.86-3.26,2.78-1.07.34,2.31,2.93-1.17-2-2.8,2.13-.91.71,2.69s6.95-2.3,5.17-14c0,0-.91,4.55-5,5.35l.21,2.67-3.14.86-.53-1.88-1.75.71.49,2.13-3.68,1.17-.59-3-1.21.23-.66,4.61s-6,.59-5.94.16,0-4.7,0-4.7l-2,.48,0,4-4.26.48-.27-4-2.15.74v3.87s-4.64-.07-4.76-.39-.26-3.08-.26-3.08l-2,1-.54,2.66s-2.5-.22-2.53-.47-.3-2.74-.3-2.74A28.45,28.45,0,0,1,426.23,228Z"/><path class="cls-44" d="M450,240.58l.2,0-.68-2.47h-.21Z"/><polygon class="cls-45" points="452.67 238.03 452.67 240.1 452.74 240.09 452.74 238.03 452.67 238.03"/><polygon class="cls-46" points="462.81 238.4 462.99 238.34 462.39 236.05 462.21 236.12 462.81 238.4"/><polyline class="cls-47" points="466.81 233.18 466.3 233.39 467.68 235.36 468.24 236.23"/><polygon class="cls-48" points="456.02 240.04 456.14 240.04 455.76 238.02 455.63 238.04 456.02 240.04"/><polygon class="cls-49" points="449.28 237.04 449.56 238.07 452.67 238.03 452.67 236.99 449.28 237.04"/><path class="cls-50" d="M469.07,234.13l-.71-2.69-2.13.91.58.82,1.62-.69.71,2.69s6.32-2.09,5.36-12.44C475,232.18,469.07,234.13,469.07,234.13Z"/><polygon class="cls-51" points="452.74 240.09 452.75 241.14 456.22 241.08 456.02 240.04 452.74 240.09"/><polygon class="cls-52" points="460.68 239.11 459.15 236.51 455.56 237 455.76 238.02 459.22 237.55 460.75 240.15 463.22 239.34 462.99 238.31 460.68 239.11"/><path class="cls-53" d="M446.92,241.25c-.31.12-.77-4-.77-4l-3.87.19s-.18,2.87-.15,3.12-2.8-1.36-2.8-1.36l-.61-2.54-3.3-.63a9,9,0,0,0-.33,2.3c-5.77-1.82-8.13-7.74-8.77-10.23l-.09-.06c-.28-.21,1.48,9,8.94,11.33a9.12,9.12,0,0,1,.32-2.3l3.3.63.61,2.54s2.83,1.61,2.8,1.36.15-3.12.15-3.12l3.87-.19s.46,4.15.78,4,3.31-.71,3.31-.71l-.27-1C449.36,240.71,447.19,241.15,446.92,241.25Z"/><polygon class="cls-54" points="465.26 236.32 464.92 234.01 462.14 235.08 462.39 236.05 464.99 235.05 465.33 237.36 468.26 236.19 467.77 235.26 465.26 236.32"/><path class="cls-55" d="M468.36,231.44l.71,2.69s5.89-1.95,5.43-11.4c0-.51-.11-1-.19-1.58,0,0-.91,4.54-5,5.35l.13,1.63h0l.08,1-3.14.86-.53-1.88-1.6.65.26,1.14-.15.05.23,1-3.68,1.17-.59-3-1.21.23-.66,4.61s-6,.59-5.94.16c0-.11,0-.48,0-1-.06,0-.09-.05-.09-.08,0-.29,0-2.35,0-3.64l-1.95.46,0,4-4.26.48-.07-1h0l-.2-3-2.15.74v3.87s-4.64-.07-4.76-.39a16.56,16.56,0,0,1-.2-2c0-.33-.05-.69-.07-1l-2,1-.54,2.66s-2.5-.22-2.53-.47-.3-2.74-.3-2.74a28.35,28.35,0,0,1-7-3.83c.64,2.49,3,8.41,8.77,10.23a9,9,0,0,1,.33-2.3l3.3.63.61,2.54s2.82,1.61,2.8,1.36.15-3.12.15-3.12l3.87-.19s.46,4.15.77,4,2.44-.54,3.12-.67l-.69-2.5h.21l-.28-1,3.38,0v1h.07v2.06L456,240l-.38-2,.12,0-.2-1,3.59-.49,1.53,2.6,2.13-.71-.6-2.28.18-.07-.25-1,2.78-1.07.34,2.31,2.42-1-1.38-2,.51-.22-.58-.82Z"/><path class="cls-56" d="M468.36,231.44l.71,2.69s5.89-1.95,5.43-11.4c0-.51-.11-1-.19-1.58,0,0-.91,4.54-5,5.35l.13,1.63h0l.08,1-3.14.86-.53-1.88-1.6.65.26,1.14-.15.05.23,1-3.68,1.17-.59-3-1.21.23-.66,4.61s-6,.59-5.94.16c0-.11,0-.48,0-1-.06,0-.09-.05-.09-.08,0-.29,0-2.35,0-3.64l-1.95.46,0,4-4.26.48-.07-1h0l-.2-3-2.15.74v3.87s-4.64-.07-4.76-.39a16.56,16.56,0,0,1-.2-2c0-.33-.05-.69-.07-1l-2,1-.54,2.66s-2.5-.22-2.53-.47-.3-2.74-.3-2.74a28.35,28.35,0,0,1-7-3.83c.64,2.49,3,8.41,8.77,10.23a9,9,0,0,1,.33-2.3l3.3.63.61,2.54s2.82,1.61,2.8,1.36.15-3.12.15-3.12l3.87-.19s.46,4.15.77,4,2.44-.54,3.12-.67l-.69-2.5h.21l-.28-1,3.38,0v1h.07v2.06L456,240l-.38-2,.12,0-.2-1,3.59-.49,1.53,2.6,2.13-.71-.6-2.28.18-.07-.25-1,2.78-1.07.34,2.31,2.33-1.26-1.29-1.67.51-.22-.58-.82Z"/><g class="cls-2"><path class="cls-57" d="M426.32,228.07a15.56,15.56,0,0,0,2.91,6.85,12,12,0,0,0,2.66,2.62,13.16,13.16,0,0,0,3.31,1.71l-.13.08.17-1.41c0-.24.06-.47.1-.71a1.06,1.06,0,0,1,.06-.22c0-.07.16-.06.17-.06h.1l.35.06c.94.16,1.87.36,2.8.56h.07l0,.08.6,2.53-.06-.07,2.79,1.38-.14.08.17-3.13v-.07h.08l3.87-.17h.06v.06l.74,4,0,0,3.32-.67-3.3.75h0v0l-.8-4,.07.05-3.87.2.08-.08-.14,3.13v.14l-.13-.06-2.81-1.35,0,0v-.05l-.62-2.53.09.09c-.93-.2-1.86-.41-2.78-.58l-.35-.06c-.06,0-.13,0-.07,0s0,.08,0,.13c-.05.22-.08.46-.11.69l-.18,1.41v.13l-.11,0a13.43,13.43,0,0,1-3.35-1.77,12,12,0,0,1-2.67-2.66,14.6,14.6,0,0,1-1.83-3.3A15.29,15.29,0,0,1,426.32,228.07Z"/></g><g class="cls-2"><path class="cls-58" d="M453,241.15a12.74,12.74,0,0,1,1.73-.14,11.28,11.28,0,0,1,1.74.09,12.77,12.77,0,0,1-1.74.15A12.46,12.46,0,0,1,453,241.15Z"/></g><g class="cls-2"><path class="cls-59" d="M455.64,238c1.19-.19,2.38-.39,3.57-.56h.05l0,0,1.55,2.58-.11,0,2.56-.83-.08.13c-.3-1.06-.57-2.14-.85-3.21l0-.09.08,0L465,235l.1,0v.1l.32,2.31-.08,0,2.95-1.12-2.91,1.23-.07,0v-.08l-.36-2.31.11.06-2.53,1.1.06-.13c.29,1.07.59,2.14.86,3.22l0,.1-.1,0-2.56.79-.07,0,0-.07-1.5-2.61.06,0C458,237.78,456.83,237.9,455.64,238Z"/></g><g class="cls-2"><path class="cls-60" d="M469.18,235.15a7.74,7.74,0,0,0,3.08-2.47,10.21,10.21,0,0,0,1.69-3.59,16.33,16.33,0,0,0,.59-4c0-.66,0-1.33,0-2l-.15-2,.27,2c0,.67.05,1.34.08,2a16.88,16.88,0,0,1-.52,4,10.58,10.58,0,0,1-1.79,3.62A7.07,7.07,0,0,1,469.18,235.15Z"/></g><g class="cls-2"><path class="cls-61" d="M446.2,234.32a19.15,19.15,0,0,1,4.26-.48,20.86,20.86,0,0,1-4.26.48Z"/></g><g class="cls-2"><path class="cls-62" d="M466.38,230a12.11,12.11,0,0,1,1.56-.57,11.23,11.23,0,0,1,1.63-.34,13.3,13.3,0,0,1-1.56.57A11.23,11.23,0,0,1,466.38,230Z"/></g><g class="cls-2"><path class="cls-63" d="M439,234.57c.79,0,1.58,0,2.36.06a22.86,22.86,0,0,1,2.35.3,23.3,23.3,0,0,1-4.71-.36Z"/></g><g class="cls-2"><path class="cls-64" d="M452.4,234.22c1-.14,2-.18,3-.23s2-.06,3,0c-1,.14-2,.18-3,.23S453.41,234.28,452.4,234.22Z"/></g><polygon class="cls-65" points="450.48 217.51 445.7 226.49 457.09 225.2 450.48 217.51 445.7 226.49 457.09 225.2 450.48 217.51"/><polygon class="cls-66" points="450.48 217.51 445.7 226.49 457.09 225.2 450.48 217.51 445.7 226.49 457.09 225.2 450.48 217.51"/><polygon class="cls-67" points="450.49 217.63 447.05 225.61 455.58 224.64 450.49 217.63 447.05 225.61 455.58 224.64 450.49 217.63"/><path class="cls-13" d="M445.7,226.49q5.67-.84,11.39-1.29Q451.41,226,445.7,226.49Z"/><path d="M211.25,198.66c10.85-44.67,41-54.48,55.19-39a33.7,33.7,0,0,1,9.92-1.82c.7-14.33,6.77-41.17,30.61-15.05l-10.56,5.42s2.92-15.72-7.86-11.14C284,139,294,163.7,294.74,167c.37.59,46-8.38,35.31,52.48,0,0-11.47,58.93-41.81,39.72-.86-.16-16.78,9.41-28.73-3.85,0,0-16.16,4.81-20.54-3.88C238.37,251.16,200.41,243.32,211.25,198.66Z"/><g class="cls-2"><path class="cls-3" d="M279.72,200.79c.63.08,15.55,3.89,23.22-10.2,0,0,6.11,22.18-9.49,22.84S279.72,200.79,279.72,200.79Z"/><path class="cls-68" d="M302.94,190.59s6.11,22.18-9.49,22.84c-.38,0-.74,0-1.1,0-14.41,0-12.63-12.66-12.63-12.66a25,25,0,0,0,5.12.53,19.7,19.7,0,0,0,18.1-10.73m.2-1.68-.75,1.38a19,19,0,0,1-17.55,10.39,23.86,23.86,0,0,1-4.8-.48l-.23,0-.62-.08-.09.62c0,.22-.74,5.51,2.66,9.42,2.29,2.63,5.85,4,10.59,4l1.13,0c3.8-.16,6.7-1.57,8.61-4.19,4.89-6.71,1.61-18.93,1.46-19.45l-.41-1.51Z"/></g><path class="cls-3" d="M279.26,200.7c.62.08,16.06,3.18,23.73-10.9,0,0,5.8,23-9.81,23.65S279.26,200.7,279.26,200.7Z"/><path class="cls-69" d="M279.26,200.7c.62.08,16.06,3.18,23.73-10.9,0,0,5.68,23.08-9.92,23.74S279.26,200.7,279.26,200.7Z"/><path class="cls-70" d="M292.66,208.51c10.89-.46,11.29-12.24,10.53-19.32,0-.22-.07-.34-.07-.34-7.68,14.08-23.3,11.2-23.92,11.12,0,0,0,.29,0,.77C280.48,204.57,283.89,208.87,292.66,208.51Z"/><g class="cls-2"><path class="cls-3" d="M265.09,198.84c-.62-.08-16-.31-19.85-15.92,0,0-11.53,19.83,3.38,24.55S265.09,198.84,265.09,198.84Z"/><path class="cls-71" d="M245.24,182.92c3.84,15.61,19.23,15.84,19.85,15.92,0,0-1.13,9.64-10.62,9.64a19.36,19.36,0,0,1-5.85-1c-14.91-4.72-3.38-24.55-3.38-24.55m.24-1.67-.78,1.35c-.27.46-6.54,11.39-3.54,19.15,1.18,3,3.62,5.17,7.27,6.32a20.18,20.18,0,0,0,6,1c9.94,0,11.24-10.09,11.25-10.2l.07-.61-.62-.09-.23,0c-3.65-.24-15.8-2.06-19.08-15.42l-.38-1.52Z"/></g><path class="cls-3" d="M265.56,198.88c-.62-.09-16.32-1.13-20.16-16.74,0,0-11.44,20.7,3.47,25.42S265.56,198.88,265.56,198.88Z"/><path class="cls-72" d="M265.56,198.88c-.62-.09-16.32-1.13-20.16-16.74,0,0-11.35,20.82,3.56,25.54S265.56,198.88,265.56,198.88Z"/><path class="cls-73" d="M250.63,202.92c-10.4-3.29-7.8-14.78-5.27-21.43l.16-.3c3.84,15.61,19.67,16.91,20.29,17,0,0-.05.28-.17.75C263.4,202.3,259,205.57,250.63,202.92Z"/><polygon class="cls-74" points="272.72 206.83 264.07 216.12 276.2 219.11 272.72 206.83 264.07 216.12 276.2 219.11 272.72 206.83"/><polygon class="cls-75" points="272.72 206.83 264.07 216.12 276.2 219.11 272.72 206.83 264.07 216.12 276.2 219.11 272.72 206.83"/><polygon class="cls-76" points="272.68 206.98 265.81 215.57 274.9 217.81 272.68 206.98 265.81 215.57 274.9 217.81 272.68 206.98"/><path class="cls-13" d="M264.07,216.12c2.05.41,4.07.9,6.09,1.39s4,1,6,1.6c-2-.4-4.07-.9-6.09-1.38S266.07,216.71,264.07,216.12Z"/><path class="cls-77" d="M232.25,215.88c.74.42,11.11,18.45,11.11,18.45l6-3.18,5.24,9.26,7-3.84,5.69,8.2,10.76-8,8.9,10.26,5.39-7,2.18,5L310,223.43l-14.81,9.82-3.44-3.86L286.3,238l-9.41-8.88-8.06,5.62-6.39-8.94-5.59,5-4.68-8.7-7.8,2.6Z"/><path class="cls-77" d="M232.25,215.88c.74.42,11.11,18.45,11.11,18.45l6-3.18,5.24,9.26,7-3.84,5.69,8.2,10.76-8,8.9,10.26,5.39-7,2.18,5L310,223.43l-14.81,9.82-3.44-3.86L286.3,238l-9.41-8.88-8.06,5.62-6.39-8.94-5.59,5-4.68-8.7-7.8,2.6Z"/><path class="cls-78" d="M294.86,242.54l-2.17-5-5.39,7-8.9-10.26-10.76,8-5.7-8.2-7,3.83-5.23-9.26-6,3.18s-4.49-7.79-7.77-13.25l-3.69-2.67c.74.42,11.11,18.45,11.11,18.45l6-3.18,5.24,9.26,7-3.84,5.69,8.2,10.76-8,8.9,10.26,5.39-7,2.18,5L310,223.43l-2.78,1.85Z"/><path class="cls-79" d="M249.69,228.62l5.23,9.26,7-3.83,5.7,8.2,10.76-8,8.9,10.26,5.39-7,2.17,5,12.35-17.26-12,8-3.44-3.86L286.3,238l-9.41-8.88-8.06,5.62-6.39-8.94-5.59,5-4.68-8.7-7.8,2.6-8.43-6.11c3.28,5.46,7.77,13.25,7.77,13.25Z"/><path class="cls-79" d="M249.69,228.62l5.23,9.26,7-3.83,5.7,8.2,10.76-8,8.9,10.26,5.39-7,2.17,5,12.35-17.26-12,8-3.44-3.86L286.3,238l-9.41-8.88-8.06,5.62-6.39-8.94-5.59,5-4.68-8.7-7.8,2.6-8.43-6.11c3.28,5.46,7.77,13.25,7.77,13.25Z"/><g class="cls-17"><path class="cls-13" d="M232.25,215.88l7.42,12.05,3.69,6,.11.19,0,0s0,0,0,0-.13,0-.1,0l.06,0a4.21,4.21,0,0,0,.39-.17l.78-.4,1.55-.85,3.07-1.75.2-.11.11.2c1.48,2.73,3,5.47,4.53,8.14a10.39,10.39,0,0,0,.6.95c-.34,0,0-.07.16-.17l.51-.28,2-1.12,4.08-2.24.23-.13.15.22,5.71,8.19-.44-.08,10.76-8,.23-.17.18.22,8.88,10.27h-.42l5.41-6.94.26-.33.16.38,2.15,5-.38,0q7.79-10.77,15.65-21.5-7.62,10.9-15.3,21.76l-.22.31-.15-.35-2.2-5,.42.05-5.37,7-.2.27-.23-.26L277.82,237l.41,0-10.75,8-.26.18-.18-.26-5.68-8.21.38.09-4.11,2.23-2,1.12-.51.28-.26.14-.06,0,0,0s0,0-.13,0-.26-.09-.24-.08l0,0-.06-.08a11.44,11.44,0,0,1-.65-1c-1.57-2.7-3-5.46-4.46-8.21l.32.09-3.1,1.72-1.57.84-.8.4-.42.18-.15,0a.27.27,0,0,1-.15,0c-.08-.06-.06-.06-.07-.07l0,0-.11-.19-3.62-6.1Z"/></g><path d="M222.91,202.33c-2.85-57.9-37.81-77.38-59-61.68A42.41,42.41,0,0,0,152,136c2.53-17.89,1.36-52.58-34.31-26.07l11.78,9.28s.1-20.16,12.36-11.87c5.17,3.5-13,31.63-14.75,35.56-.59.64-55-21.59-56.1,56.33,0,0,.24,75.69,42.33,59.32,1.09,0,18.53,15.73,36.46,2.24,0,0,18.84,9.89,26.32.2C176.94,260.69,225.76,260.24,222.91,202.33Z"/><g class="cls-2"><path class="cls-3" d="M157.15,183.4c.91-.07,23.35.68,30-21.81,0,0,15.46,29.73-6.59,35.55S157.15,183.4,157.15,183.4Z"/><path class="cls-80" d="M187.17,161.59s15.46,29.73-6.59,35.55a29.54,29.54,0,0,1-7.58,1.08c-14.81,0-15.85-14.82-15.85-14.82.91-.07,23.35.68,30-21.81m-.23-2.45-.65,2.19c-5.71,19.24-23.54,21-28.87,21.14h-.35l-.9.08.06.91c0,.16,1.28,15.68,16.77,15.68a31.24,31.24,0,0,0,7.81-1.11c5.39-1.43,9.1-4.35,11-8.71,4.91-11.09-3.48-27.47-3.84-28.16l-1.05-2Z"/></g><path class="cls-3" d="M156.46,183.42c.92-.07,23.87-.49,30.54-23,0,0,15.26,31-6.8,36.81S156.46,183.42,156.46,183.42Z"/><path class="cls-81" d="M156.46,183.42c.92-.07,23.87-.49,30.54-23,0,0,15.12,31.16-6.94,37S156.46,183.42,156.46,183.42Z"/><path class="cls-82" d="M178,190.36c15.39-4.06,12.38-21,9.15-30.85l-.21-.46c-6.67,22.49-29.83,23.27-30.74,23.35,0,0,0,.42.19,1.11C159.38,188.57,165.55,193.64,178,190.36Z"/><g class="cls-2"><path class="cls-3" d="M135.69,185.21c-.92.08-22.93,4.57-33.15-16.5,0,0-10.43,31.91,12.27,34S135.69,185.21,135.69,185.21Z"/><path class="cls-83" d="M102.54,168.71c7.12,14.68,20,16.95,27.42,16.95a37.5,37.5,0,0,0,5.73-.45s1.65,17.62-17.65,17.62c-1,0-2.09-.05-3.23-.16-22.7-2-12.27-34-12.27-34m-.17-2.46-.71,2.18c-.25.74-5.87,18.31.8,28.44,2.6,4,6.73,6.22,12.27,6.72,1.14.11,2.25.16,3.31.16,6.25,0,11.06-1.8,14.28-5.34,5-5.44,4.32-13,4.29-13.29l-.09-.91-.91.08-.35.05a34.55,34.55,0,0,1-5.3.4c-8.5,0-20-2.85-26.59-16.43l-1-2.06Z"/></g><path class="cls-3" d="M136.37,185.11c-.91.08-23.63,3.51-33.85-17.56,0,0-10,33.11,12.68,35.17S136.37,185.11,136.37,185.11Z"/><path class="cls-84" d="M136.37,185.11c-.91.08-23.63,3.51-33.85-17.56,0,0-9.86,33.25,12.84,35.31S136.37,185.11,136.37,185.11Z"/><path class="cls-85" d="M116.3,195.55c-15.84-1.44-15.61-18.63-14-28.91l.13-.48c10.23,21.07,33.2,18,34.11,17.89,0,0,0,.42,0,1.13C134.33,190.68,129.06,196.71,116.3,195.55Z"/><path class="cls-86" d="M95.47,205.23s8.6,15.14,34.17,13c.23,2.78.61,10.22.61,10.22l14.38-1.21-.3-9.31s32-1.76,53.44-21.29c0,0,4.92,18-24.39,36.34l-.7-8.57L156,225.8l1.17,14.37S107,247.89,95.47,205.23Z"/><path class="cls-3" d="M97.26,207.62a17.4,17.4,0,0,1-1.79-2.39c11.53,42.66,61.71,34.94,61.71,34.94l-.31-3.86S111.78,243.24,97.26,207.62Z"/><path class="cls-87" d="M130,224.57c-.13-2.25-.28-4.91-.4-6.35h-.06c.18,3,.35,6.35.35,6.35Z"/><polygon class="cls-3" points="155.69 221.94 156.01 225.8 172.68 224.4 172.36 220.54 155.69 221.94"/><path class="cls-3" d="M197.75,196.65c-.23,6.27-3.61,19.29-24.69,32.46l.32,3.86c29.31-18.32,24.39-36.34,24.39-36.34Z"/><path class="cls-88" d="M97.26,207.62a17.4,17.4,0,0,1-1.79-2.39c11.53,42.66,61.71,34.94,61.71,34.94l-.31-3.86S111.78,243.24,97.26,207.62Z"/><polygon class="cls-89" points="172.36 220.54 155.69 221.94 156.01 225.8 172.68 224.4 172.36 220.54"/><path class="cls-90" d="M197.77,196.63l0,0c-.23,6.27-3.61,19.29-24.69,32.46l.32,3.86C202.69,214.65,197.77,196.63,197.77,196.63Z"/><path class="cls-91" d="M197.75,196.65c-21.39,19.51-53.42,21.27-53.42,21.27l.3,9.31-14.38,1.21s-.09-1.76-.21-3.87h-.11s-.17-3.32-.35-6.35c-19.06,1.58-28.67-6.44-32.32-10.61,14.52,35.62,59.61,28.69,59.61,28.69L156,225.8l-.32-3.86,16.67-1.4.32,3.86.38,4.71C194.14,215.94,197.52,202.92,197.75,196.65Z"/><path class="cls-91" d="M197.75,196.65c-21.39,19.51-53.42,21.27-53.42,21.27l.3,9.31-14.38,1.21s-.09-1.76-.21-3.87h-.11s-.17-3.32-.35-6.35c-19.06,1.58-28.67-6.44-32.32-10.61,14.52,35.62,59.61,28.69,59.61,28.69L156,225.8l-.32-3.86,16.67-1.4.32,3.86.38,4.71C194.14,215.94,197.52,202.92,197.75,196.65Z"/><polygon class="cls-92" points="149 194.22 139.49 210.18 157.7 210.65 149 194.22 139.49 210.18 157.7 210.65 149 194.22"/><polygon class="cls-93" points="149 194.22 139.49 210.18 157.7 210.65 149 194.22 139.49 210.18 157.7 210.65 149 194.22"/><polygon class="cls-94" points="148.99 194.44 141.8 208.84 155.45 209.19 148.99 194.44 141.8 208.84 155.45 209.19 148.99 194.44"/><path class="cls-13" d="M139.49,210.18c1.52,0,3,0,4.56,0l4.55.08,4.55.15c1.52.06,3,.14,4.55.24-1.52,0-3,0-4.56,0l-4.55-.08-4.55-.16C142.52,210.36,141,210.28,139.49,210.18Z"/><g class="cls-17"><path class="cls-13" d="M173.38,233c1.67-1,3.28-2,4.85-3.16s3.11-2.29,4.59-3.53A54.74,54.74,0,0,0,190.9,218a34.32,34.32,0,0,0,5.68-10,27,27,0,0,0,1.26-5.62,25.31,25.31,0,0,0-.09-5.77,25.48,25.48,0,0,1,.25,5.79,27,27,0,0,1-1.21,5.68,34.46,34.46,0,0,1-5.63,10.12,54.87,54.87,0,0,1-8.2,8.21A61,61,0,0,1,173.38,233Z"/></g><path d="M419.36,275.22c10.39-41.09-9.87-62.39-28.06-56.1a31.62,31.62,0,0,0-7.28-5.88c5.59-12,12.19-36.44-18.4-25.77l6.25,9.08s4.38-14.07,11.18-5.57c2.86,3.58-15.87,19.23-17.92,21.59-.55.32-33.79-27.18-51.24,27,0,0-16,52.95,16.89,50.78.77.24,9.59,15.07,25,9.58,0,0,11.06,11.06,18.35,5.94C374.77,305.87,409,316.31,419.36,275.22Z"/><g class="cls-2"><path class="cls-3" d="M377.47,247.51c.65.15,16.17,5.62,25.64-8.63,0,0,4.44,24.18-12.21,23.39S377.47,247.51,377.47,247.51Z"/><path class="cls-95" d="M403.11,238.88s4.3,23.41-11.43,23.41l-.78,0c-16.66-.79-13.43-14.76-13.43-14.76a26.17,26.17,0,0,0,7.67,1.16,20.73,20.73,0,0,0,18-9.79m.36-1.76-.93,1.39a20.12,20.12,0,0,1-17.4,9.48,25.67,25.67,0,0,1-7.28-1.07l-.25-.06-.65-.15-.15.65c-.06.24-1.32,5.95,2.09,10.45,2.38,3.15,6.41,4.87,12,5.14l.82,0a11,11,0,0,0,8.91-3.86c5.6-6.74,3.28-19.8,3.18-20.35l-.3-1.64Z"/></g><path class="cls-3" d="M377,247.38c.66.14,16.79,4.91,26.25-9.34,0,0,4,25-12.62,24.22S377,247.38,377,247.38Z"/><path class="cls-96" d="M377,247.38c.66.14,16.79,4.91,26.25-9.34,0,0,3.9,25.1-12.75,24.31S377,247.38,377,247.38Z"/><path class="cls-97" d="M390.51,257c11.62.55,13.14-11.94,13-19.55,0-.23-.05-.36-.05-.36-9.47,14.24-25.81,9.69-26.47,9.54,0,0-.05.31-.1.82C377.92,251.61,381.15,256.51,390.51,257Z"/><g class="cls-2"><path class="cls-3" d="M362.08,244.05c-.65-.15-17-1.85-19.64-18.82,0,0-14.1,20,1.32,26.43S362.08,244.05,362.08,244.05Z"/><path class="cls-98" d="M342.44,225.23c2.65,17,19,18.67,19.64,18.82,0,0-1.92,9.3-10.94,9.3a19.34,19.34,0,0,1-7.38-1.69c-15.42-6.44-1.32-26.43-1.32-26.43m.42-1.76-1,1.37c-.32.46-8,11.47-5.53,20,1,3.36,3.37,5.86,7.14,7.43a20,20,0,0,0,7.64,1.74c9.46,0,11.58-9.73,11.6-9.83l.14-.65-.65-.15-.25,0c-3.86-.61-16.61-3.71-18.87-18.23l-.25-1.65Z"/></g><path class="cls-3" d="M362.58,244.13c-.66-.14-17.26-2.75-19.9-19.72,0,0-14.08,20.93,1.34,27.36S362.58,244.13,362.58,244.13Z"/><path class="cls-99" d="M362.58,244.13c-.66-.14-17.26-2.75-19.9-19.72,0,0-14,21.07,1.43,27.5S362.58,244.13,362.58,244.13Z"/><path class="cls-100" d="M346.32,247c-10.76-4.49-6.92-16.46-3.62-23.29.12-.2.2-.31.2-.31,2.64,17,19.35,19.87,20,20,0,0-.08.3-.25.79C360,247.57,355,250.62,346.32,247Z"/><path class="cls-101" d="M329.7,249.19s2.77,12.47,21.1,16.6c-.44,2-1.76,7.27-1.76,7.27l10.31,2.32,1.78-6.57s22.76,5.82,41.89-3.11c0,0-.41,13.67-24.81,20l1.34-6.14-11.95-2.69-2.25,10.3S328.64,281.53,329.7,249.19Z"/><path class="cls-3" d="M330.44,251.25a12.32,12.32,0,0,1-.74-2.06c-1.06,32.34,35.65,38,35.65,38l.61-2.77S333,279.33,330.44,251.25Z"/><path class="cls-102" d="M349.72,270.31c.39-1.6.85-3.5,1.08-4.52h0c-.53,2.16-1.12,4.51-1.12,4.51Z"/><polygon class="cls-3" points="368.21 274.12 367.6 276.89 379.55 279.58 380.15 276.81 368.21 274.12"/><path class="cls-3" d="M403,265.71c-1.5,4.33-6.65,12.68-24.19,17.25l-.6,2.76c24.4-6.35,24.81-20,24.81-20Z"/><path class="cls-103" d="M330.44,251.25a12.32,12.32,0,0,1-.74-2.06c-1.06,32.34,35.65,38,35.65,38l.61-2.77S333,279.33,330.44,251.25Z"/><polygon class="cls-104" points="380.15 276.81 368.21 274.12 367.6 276.89 379.55 279.58 380.15 276.81"/><path class="cls-105" d="M403,265.7h0c-1.5,4.33-6.65,12.68-24.19,17.25l-.6,2.76C402.61,279.37,403,265.7,403,265.7Z"/><path class="cls-106" d="M403,265.71c-19.12,8.92-41.87,3.1-41.87,3.1l-1.78,6.57L349,273.06l.68-2.75-.08,0s.59-2.35,1.12-4.51c-13.66-3.09-18.66-10.81-20.32-14.53C333,279.33,366,284.42,366,284.42l1.64-7.53.61-2.77,12,2.69-.61,2.77-.74,3.38C396.35,278.39,401.5,270,403,265.71Z"/><path class="cls-106" d="M403,265.71c-19.12,8.92-41.87,3.1-41.87,3.1l-1.78,6.57L349,273.06l.68-2.75-.08,0s.59-2.35,1.12-4.51c-13.66-3.09-18.66-10.81-20.32-14.53C333,279.33,366,284.42,366,284.42l1.64-7.53.61-2.77,12,2.69-.61,2.77-.74,3.38C396.35,278.39,401.5,270,403,265.71Z"/><polygon class="cls-107" points="369.45 253.28 359.4 262.34 372.02 266.67 369.45 253.28 359.4 262.34 372.02 266.67 369.45 253.28"/><polygon class="cls-108" points="369.45 253.28 359.4 262.34 372.02 266.67 369.45 253.28 359.4 262.34 372.02 266.67 369.45 253.28"/><polygon class="cls-109" points="369.4 253.43 361.3 261.91 370.77 265.16 369.4 253.43 361.3 261.91 370.77 265.16 369.4 253.43"/><path class="cls-13" d="M359.4,262.34c2.14.62,4.24,1.34,6.35,2.05s4.2,1.46,6.27,2.28c-2.13-.63-4.24-1.34-6.35-2.05S361.47,263.15,359.4,262.34Z"/><g class="cls-17"><path class="cls-13" d="M378.21,285.72a52.44,52.44,0,0,0,8-2.59,39.54,39.54,0,0,0,7.42-4,24.89,24.89,0,0,0,6.11-5.74,19.61,19.61,0,0,0,2.07-3.65,18.49,18.49,0,0,0,1.17-4,18.24,18.24,0,0,1-1.06,4.09,19.67,19.67,0,0,1-2.05,3.7,25.08,25.08,0,0,1-6.1,5.84,40.25,40.25,0,0,1-7.49,3.94A45.12,45.12,0,0,1,378.21,285.72Z"/></g><path d="M.81,118.47C-5.56,58.79,26.87,33.09,51,45.61a44,44,0,0,1,11.29-6.74C56.85,21,52.48-14.66,93,6.53L82.51,18S79.18-2.63,68,7.88c-4.71,4.44,18.31,30.18,20.7,33.91.7.56,52.44-31.18,66.09,48.28,0,0,11.87,77.43-33.56,67.68-1.11.19-16.32,19.15-36.72,8.32,0,0-17.59,13.24-26.75,4.58C56.92,170.51,7.19,178.14.81,118.47Z"/><path class="cls-110" d="M88.85,97.94c18,5.67,41.11-7.24,41.11-7.24-3.53-12.13-15-21.76-15-21.76"/><path class="cls-111" d="M112.7,71.34s9.07,7.89,12.06,18.16c0,0-19.29,11.52-34.5,6.71"/><path class="cls-13" d="M88.86,98a49.06,49.06,0,0,0,10.53.93,56.85,56.85,0,0,0,10.49-1A58.83,58.83,0,0,0,120,95.11a78,78,0,0,0,9.67-4.33l-2.28,1.37c-.77.44-1.51.95-2.32,1.32-1.6.76-3.17,1.61-4.84,2.22-.83.33-1.65.68-2.5,1l-2.55.79c-.85.29-1.72.47-2.58.68s-1.73.45-2.62.58l-2.64.42-2.66.27a47.56,47.56,0,0,1-5.34.16,52.69,52.69,0,0,1-5.32-.41A34.21,34.21,0,0,1,88.86,98Z"/><g class="cls-2"><path class="cls-112" d="M114.8,69.06l-2.22,2.46c.79.71,9.15,8.32,12,18.11,0,0-19.2,11.45-34.39,6.74l-1.53,1.69c18,5.67,41.12-7.24,41.12-7.24C126.25,78.69,114.8,69.06,114.8,69.06Z"/></g><g class="cls-36"><path class="cls-113" d="M114.8,69.06l-2.22,2.46c.79.71,9.15,8.32,12,18.11,0,0-19.2,11.45-34.39,6.74l-1.53,1.69c18,5.67,41.12-7.24,41.12-7.24C126.25,78.69,114.8,69.06,114.8,69.06Z"/></g><path class="cls-13" d="M114.92,69.05a47.11,47.11,0,0,1,4.86,4.51,59.37,59.37,0,0,1,4.29,5.08,42.68,42.68,0,0,1,3.52,5.65,23.14,23.14,0,0,1,2.16,6.28,34,34,0,0,0-2.7-6,52.15,52.15,0,0,0-3.62-5.46c-1.27-1.79-2.69-3.47-4.1-5.15S116.43,70.66,114.92,69.05Z"/><path class="cls-38" d="M89,97.78l3.14-3.71,3.16-3.68c2.11-2.45,4.28-4.85,6.41-7.29s4.33-4.8,6.54-7.16,4.42-4.73,6.69-7c-2,2.52-4.12,5-6.23,7.44s-4.27,4.86-6.4,7.29S98,88.44,95.79,90.8,91.37,95.53,89,97.78Z"/><path class="cls-114" d="M68.28,100.27c-16.29,9.56-41.67,2.16-41.67,2.16.83-12.62,9.92-24.58,9.92-24.58"/><path class="cls-115" d="M39.27,79.68s-7.14,9.73-7.84,20.42c0,0,21.3,6.91,35.1-1.19"/><path class="cls-13" d="M68.29,100.34a35.32,35.32,0,0,1-4.82,2.27,52.65,52.65,0,0,1-5.09,1.59,49.07,49.07,0,0,1-5.24,1l-2.65.33-2.66.18c-.89.08-1.79,0-2.68,0s-1.78,0-2.67-.08l-2.66-.2c-.89-.08-1.76-.25-2.64-.38-1.77-.22-3.49-.69-5.22-1.08-.87-.18-1.71-.51-2.55-.76l-2.53-.83a79.06,79.06,0,0,0,10.38,2.06,58.86,58.86,0,0,0,10.53.44,56.65,56.65,0,0,0,10.45-1.36A49.78,49.78,0,0,0,68.29,100.34Z"/><g class="cls-2"><path class="cls-116" d="M36.74,77.93l2.69,1.9c-.62.86-7.13,10.16-7.79,20.35,0,0,21.19,6.87,35-1.14l1.86,1.31c-16.29,9.56-41.67,2.16-41.67,2.16C27.65,89.89,36.74,77.93,36.74,77.93Z"/></g><g class="cls-36"><path class="cls-117" d="M36.74,77.93l2.69,1.9c-.62.86-7.13,10.16-7.79,20.35,0,0,21.19,6.87,35-1.14l1.86,1.31c-16.29,9.56-41.67,2.16-41.67,2.16C27.65,89.89,36.74,77.93,36.74,77.93Z"/></g><path class="cls-13" d="M36.62,77.94q-1.69,2.86-3.23,5.79c-1,2-2,3.9-2.89,5.93a52.65,52.65,0,0,0-2.36,6.15,33.46,33.46,0,0,0-1.35,6.45,23.19,23.19,0,0,1,.76-6.62,43.55,43.55,0,0,1,2.21-6.3,58.14,58.14,0,0,1,3.09-5.91A49,49,0,0,1,36.62,77.94Z"/><path class="cls-38" d="M68.07,100.16c-2.77-1.67-5.42-3.49-8.09-5.29S54.69,91.19,52,89.35s-5.23-3.76-7.82-5.68-5.16-3.85-7.68-5.86c2.71,1.74,5.38,3.54,8,5.36s5.28,3.69,7.93,5.53,5.23,3.75,7.82,5.67l3.88,2.88Z"/><path class="cls-118" d="M37.07,114.9c-.49-.38,2.62,16,15.8,20.13-.32-.26.58-4.09.58-4.09l5.83,1.12,1.07,4.51s5,2.86,4.95,2.42.27-5.55.27-5.55l6.84-.33s.8,7.37,1.36,7.15S79.63,139,79.63,139l-1.7-6.22,6-.08v5.51l6.14-.1-1-5.4,6.34-.87,2.69,4.62,4.1-1.36-1.51-5.8,4.91-1.9.59,4.11,5.19-2.08-3.47-5,3.77-1.62,1.25,4.78s12.28-4.08,9.13-24.91c0,0-1.6,8.09-8.9,9.52l.37,4.73L108,118.48l-.95-3.32-3.08,1.24.85,3.79-6.5,2.08-1-5.41-2.15.4L94,125.44s-10.56,1-10.5.3,0-8.35,0-8.35l-3.57.85,0,7-7.52.85-.48-7.1-3.8,1.32v6.86s-8.2-.11-8.41-.68-.45-5.47-.45-5.47l-3.61,1.75-.94,4.73s-4.43-.39-4.48-.83-.53-4.86-.53-4.86A51,51,0,0,1,37.07,114.9Z"/><path class="cls-119" d="M79.15,137.22l.35-.07-1.19-4.37h-.38Z"/><polygon class="cls-120" points="83.79 132.7 83.81 136.37 83.93 136.36 83.92 132.7 83.79 132.7"/><polygon class="cls-121" points="101.71 133.36 102.04 133.25 100.98 129.18 100.66 129.31 101.71 133.36"/><polyline class="cls-122" points="108.77 124.07 107.88 124.46 110.31 127.95 111.3 129.5"/><polygon class="cls-123" points="89.71 136.27 89.94 136.26 89.25 132.68 89.04 132.71 89.71 136.27"/><polygon class="cls-124" points="77.8 130.93 78.31 132.78 83.79 132.7 83.79 130.85 77.8 130.93"/><path class="cls-125" d="M112.78,125.77,111.52,121l-3.77,1.62,1,1.46,2.88-1.23,1.25,4.78s11.16-3.71,9.48-22.09C123.17,122.31,112.78,125.77,112.78,125.77Z"/><polygon class="cls-126" points="83.93 136.36 83.93 138.21 90.06 138.12 89.71 136.27 83.93 136.36"/><polygon class="cls-127" points="97.95 134.61 95.25 129.99 88.91 130.86 89.25 132.68 95.38 131.84 98.08 136.46 102.44 135.03 102.03 133.19 97.95 134.61"/><path class="cls-128" d="M73.64,138.41c-.56.22-1.36-7.15-1.36-7.15l-6.84.33s-.32,5.11-.27,5.55-5-2.42-5-2.42l-1.07-4.51-5.83-1.12s-.9,3.83-.58,4.09C42.54,130,38.37,119.43,37.24,115l-.17-.12c-.49-.38,2.62,16,15.8,20.13-.32-.26.58-4.09.58-4.09l5.83,1.12,1.07,4.51s5,2.86,4.95,2.42.27-5.55.27-5.55l6.84-.33s.8,7.37,1.36,7.15S79.63,139,79.63,139l-.48-1.78C78,137.46,74.12,138.23,73.64,138.41Z"/><polygon class="cls-129" points="106.03 129.66 105.44 125.56 100.53 127.45 100.98 129.18 105.57 127.4 106.16 131.51 111.35 129.43 110.48 127.78 106.03 129.66"/><path class="cls-130" d="M111.52,121l1.26,4.78s10.39-3.46,9.6-20.24c-.09-.91-.2-1.84-.35-2.82,0,0-1.6,8.08-8.89,9.51l.23,2.89h0l.15,1.85L108,118.48l-.95-3.32-2.82,1.14.46,2-.27.08.4,1.77-6.5,2.08-1-5.41-2.15.4L94,125.44s-10.56,1-10.5.3c0-.2,0-.85,0-1.72-.1,0-.15-.08-.15-.13,0-.51,0-4.17,0-6.47l-3.46.82,0,7-7.52.85-.12-1.85h0L71.89,119l-3.8,1.32v6.86s-8.2-.11-8.41-.68a31.79,31.79,0,0,1-.34-3.64c-.05-.58-.09-1.23-.13-1.82l-3.59,1.74-.94,4.73s-4.43-.39-4.48-.83-.53-4.86-.53-4.86A50.55,50.55,0,0,1,37.24,115c1.13,4.41,5.3,14.93,15.5,18.16-.32-.26.58-4.09.58-4.09l5.83,1.12,1.07,4.51s5,2.86,5,2.42.27-5.55.27-5.55l6.84-.33s.8,7.37,1.36,7.15,4.31-.95,5.51-1.19l-1.22-4.44h.38l-.51-1.85,6-.08v1.85h.13v3.66l5.78-.09L89,132.71l.21,0-.34-1.82,6.34-.87,2.7,4.62,3.76-1.25-1-4.06.32-.12-.45-1.73,4.91-1.9.59,4.11,4.28-1.71-2.43-3.49.89-.39-1-1.46Z"/><path class="cls-131" d="M111.52,121l1.26,4.78s10.39-3.46,9.6-20.24c-.09-.91-.2-1.84-.35-2.82,0,0-1.6,8.08-8.89,9.51l.23,2.89h0l.15,1.85L108,118.48l-.95-3.32-2.82,1.14.46,2-.27.08.4,1.77-6.5,2.08-1-5.41-2.15.4L94,125.44s-10.56,1-10.5.3c0-.2,0-.85,0-1.72-.1,0-.15-.08-.15-.13,0-.51,0-4.17,0-6.47l-3.46.82,0,7-7.52.85-.12-1.85h0L71.89,119l-3.8,1.32v6.86s-8.2-.11-8.41-.68a31.79,31.79,0,0,1-.34-3.64c-.05-.58-.09-1.23-.13-1.82l-3.59,1.74-.94,4.73s-4.43-.39-4.48-.83-.53-4.86-.53-4.86A50.55,50.55,0,0,1,37.24,115c1.13,4.41,5.3,14.93,15.5,18.16-.32-.26.58-4.09.58-4.09l5.83,1.12,1.07,4.51s5,2.86,5,2.42.27-5.55.27-5.55l6.84-.33s.8,7.37,1.36,7.15,4.31-.95,5.51-1.19l-1.22-4.44h.38l-.51-1.85,6-.08v1.85h.13v3.66l5.78-.09L89,132.71l.21,0-.34-1.82,6.34-.87,2.7,4.62,3.76-1.25-1-4.06.32-.12-.45-1.73,4.91-1.9.59,4.11,4.14-2.24-2.29-3,.89-.39-1-1.46Z"/><g class="cls-2"><path class="cls-132" d="M37.24,115a27.9,27.9,0,0,0,5.13,12.15,24.62,24.62,0,0,0,2.16,2.51c.4.39.83.74,1.24,1.11a9.72,9.72,0,0,0,1.3,1,23.22,23.22,0,0,0,5.86,3.06l-.23.14L53,132.5c.06-.42.11-.83.18-1.25a2.1,2.1,0,0,1,.1-.37c0-.14.25-.14.3-.14l.17,0,.64.1c1.66.3,3.3.64,4.94,1l.13,0,0,.13,1.06,4.5-.1-.12,4.93,2.44-.24.14.29-5.55v-.13h.13l6.84-.3h.11l0,.11,1.31,7.16-.08-.05,5.87-1.2-5.84,1.33h-.07v-.06l-1.42-7.15.12.1-6.83.36.14-.14L65.47,139v.25l-.24-.11-4.95-2.4-.08,0,0-.09-1.1-4.5.16.16c-1.64-.36-3.28-.73-4.92-1l-.61-.1-.15,0s0,0,0,0a.07.07,0,0,1,0,0l-.05.25c-.07.4-.13.82-.19,1.23l-.3,2.5,0,.22-.2-.08a23.51,23.51,0,0,1-5.92-3.14,10.14,10.14,0,0,1-1.31-1c-.42-.38-.85-.75-1.24-1.14a24.06,24.06,0,0,1-2.17-2.56,25.66,25.66,0,0,1-3.24-5.84A27.41,27.41,0,0,1,37.24,115Z"/></g><g class="cls-2"><path class="cls-133" d="M84.29,138.25a21.06,21.06,0,0,1,3.06-.26,19.81,19.81,0,0,1,3.07.16,22.71,22.71,0,0,1-3.07.26A22.33,22.33,0,0,1,84.29,138.25Z"/></g><g class="cls-2"><path class="cls-134" d="M89,132.71c2.1-.33,4.21-.69,6.32-1h.08l0,.07,2.74,4.59-.21-.08,4.51-1.47-.13.24-1.51-5.7,0-.17.15-.06,4.5-1.88.21-.08,0,.21.55,4.12-.16-.09,5.23-2-5.14,2.19-.14.06,0-.15-.65-4.1.23.13-4.47,1.93.11-.23,1.52,5.7,0,.19-.18,0-4.53,1.43-.14.05-.07-.13-2.65-4.64.12.06C93.28,132.24,91.16,132.46,89,132.71Z"/></g><g class="cls-2"><path class="cls-135" d="M113,127.59a11,11,0,0,0,3-1.87,14.37,14.37,0,0,0,2.43-2.56,18.43,18.43,0,0,0,3-6.35,17.29,17.29,0,0,0,.43-1.72l.29-1.75c.18-1.17.18-2.36.3-3.53s0-2.38,0-3.56l-.27-3.56.48,3.54c.09,1.19.11,2.39.16,3.58a28.44,28.44,0,0,1-.94,7.11,18.14,18.14,0,0,1-3.14,6.44A12.68,12.68,0,0,1,113,127.59Z"/></g><g class="cls-2"><path class="cls-136" d="M72.37,126.1a32.08,32.08,0,0,1,3.74-.63,31.57,31.57,0,0,1,3.78-.22,30.1,30.1,0,0,1-3.74.63A31.57,31.57,0,0,1,72.37,126.1Z"/></g><g class="cls-2"><path class="cls-137" d="M108,118.49a18.77,18.77,0,0,1,2.77-1,18.42,18.42,0,0,1,2.88-.61,18.77,18.77,0,0,1-2.77,1A18.42,18.42,0,0,1,108,118.49Z"/></g><g class="cls-2"><path class="cls-138" d="M59.57,126.56a42.54,42.54,0,0,1,8.33.63,40.58,40.58,0,0,1-8.33-.63Z"/></g><g class="cls-2"><path class="cls-139" d="M83.32,125.93c1.76-.24,3.53-.32,5.29-.41s3.54-.1,5.31,0c-1.76.25-3.52.32-5.29.42S85.1,126,83.32,125.93Z"/></g><polygon class="cls-140" points="79.92 96.26 71.48 112.2 91.6 109.92 79.92 96.26 71.48 112.2 91.6 109.92 79.92 96.26"/><polygon class="cls-141" points="79.92 96.26 71.48 112.2 91.6 109.92 79.92 96.26 71.48 112.2 91.6 109.92 79.92 96.26"/><polygon class="cls-142" points="79.95 96.46 73.86 110.64 88.94 108.92 79.95 96.46 73.86 110.64 88.94 108.92 79.95 96.46"/><path class="cls-13" d="M71.48,112.2c1.67-.25,3.34-.49,5-.7l5-.61,5-.53c1.68-.17,3.37-.32,5-.44-1.67.25-3.34.48-5,.69l-5,.61-5,.54C74.85,111.92,73.16,112.07,71.48,112.2Z"/></g></g></g></svg>