<svg xmlns="http://www.w3.org/2000/svg" xmlns:xlink="http://www.w3.org/1999/xlink" viewBox="0 0 168.45 176.7"><defs><style>.cls-1{isolation:isolate;}.cls-15,.cls-17,.cls-2,.cls-5,.cls-8{mix-blend-mode:overlay;}.cls-3{fill:#f4810e;}.cls-4{fill:url(#Degradado_sin_nombre_7);}.cls-5{fill:url(#Degradado_sin_nombre_17);}.cls-6{fill:url(#Degradado_sin_nombre_137);}.cls-7{fill:url(#Degradado_sin_nombre_7-2);}.cls-8{fill:url(#Degradado_sin_nombre_17-2);}.cls-9{fill:url(#Degradado_sin_nombre_137-2);}.cls-10{fill:url(#Degradado_sin_nombre_152);}.cls-11{mix-blend-mode:multiply;fill:url(#Degradado_sin_nombre_160);}.cls-12{fill:url(#Degradado_sin_nombre_137-3);}.cls-13{fill:#ffe597;}.cls-14{fill:url(#Degradado_sin_nombre_137-4);}.cls-15{fill:url(#Degradado_sin_nombre_17-3);}.cls-16{fill:url(#Degradado_sin_nombre_137-6);}.cls-17{opacity:0.73;}</style><linearGradient id="Degradado_sin_nombre_7" x1="70.06" y1="85.53" x2="37.82" y2="97.97" gradientUnits="userSpaceOnUse"><stop offset="0" stop-color="#fff"/><stop offset="1" stop-color="#fff" stop-opacity="0"/></linearGradient><linearGradient id="Degradado_sin_nombre_17" x1="701.47" y1="-7.91" x2="734.64" y2="-7.91" gradientTransform="matrix(-0.93, 0.36, 0.36, 0.93, 727.2, -159.35)" gradientUnits="userSpaceOnUse"><stop offset="0" stop-color="#fff"/><stop offset="0.08" stop-color="#fdece7"/><stop offset="0.33" stop-color="#f6b59f"/><stop offset="0.56" stop-color="#f08966"/><stop offset="0.75" stop-color="#ec693d"/><stop offset="0.9" stop-color="#ea5524"/><stop offset="0.99" stop-color="#e94e1b"/></linearGradient><linearGradient id="Degradado_sin_nombre_137" x1="701.25" y1="-11.91" x2="732.99" y2="-11.91" gradientTransform="matrix(-0.93, 0.36, 0.36, 0.93, 727.2, -159.35)" gradientUnits="userSpaceOnUse"><stop offset="0" stop-color="#461f1b"/><stop offset="0.3" stop-color="#481f1b"/><stop offset="0.46" stop-color="#50201c"/><stop offset="0.58" stop-color="#5d221d"/><stop offset="0.69" stop-color="#70241f"/><stop offset="0.78" stop-color="#892721"/><stop offset="0.87" stop-color="#a72b24"/><stop offset="0.95" stop-color="#cb3027"/><stop offset="1" stop-color="#e6332a"/></linearGradient><linearGradient id="Degradado_sin_nombre_7-2" x1="87.05" y1="78.83" x2="119.3" y2="66.38" xlink:href="#Degradado_sin_nombre_7"/><linearGradient id="Degradado_sin_nombre_17-2" x1="360.79" y1="-9.6" x2="393.98" y2="-9.6" gradientTransform="matrix(0.93, -0.36, 0.36, 0.93, -245.78, 217.89)" xlink:href="#Degradado_sin_nombre_17"/><linearGradient id="Degradado_sin_nombre_137-2" x1="360.58" y1="-13.59" x2="392.35" y2="-13.59" gradientTransform="matrix(0.93, -0.36, 0.36, 0.93, -245.78, 217.89)" xlink:href="#Degradado_sin_nombre_137"/><linearGradient id="Degradado_sin_nombre_152" x1="677.19" y1="-86.65" x2="697.72" y2="-86.65" gradientTransform="matrix(-0.73, 0.38, 0.46, 0.89, 627.08, -82.26)" gradientUnits="userSpaceOnUse"><stop offset="0" stop-color="#fcea10"/><stop offset="0.08" stop-color="#fbdc19"/><stop offset="0.22" stop-color="#fac924"/><stop offset="0.38" stop-color="#fabc2d"/><stop offset="0.59" stop-color="#f9b432"/><stop offset="1" stop-color="#f9b233"/></linearGradient><linearGradient id="Degradado_sin_nombre_160" x1="677.19" y1="-86.65" x2="697.72" y2="-86.65" gradientTransform="matrix(-0.73, 0.38, 0.46, 0.89, 627.08, -82.26)" gradientUnits="userSpaceOnUse"><stop offset="0" stop-color="#fff"/><stop offset="0.99" stop-color="#f39200"/></linearGradient><linearGradient id="Degradado_sin_nombre_137-3" x1="679.75" y1="-87.2" x2="695.14" y2="-87.2" gradientTransform="matrix(-0.73, 0.38, 0.46, 0.89, 627.08, -82.26)" xlink:href="#Degradado_sin_nombre_137"/><linearGradient id="Degradado_sin_nombre_137-4" x1="642.32" y1="31.76" x2="747.89" y2="31.76" gradientTransform="matrix(-0.93, 0.37, 0.37, 0.93, 728.18, -159.91)" xlink:href="#Degradado_sin_nombre_137"/><linearGradient id="Degradado_sin_nombre_17-3" x1="642.32" y1="31.76" x2="747.89" y2="31.76" gradientTransform="matrix(-0.93, 0.37, 0.37, 0.93, 728.18, -159.91)" xlink:href="#Degradado_sin_nombre_17"/><linearGradient id="Degradado_sin_nombre_137-6" x1="642.33" y1="31.53" x2="747.89" y2="31.53" gradientTransform="matrix(-0.93, 0.37, 0.37, 0.93, 728.18, -159.91)" xlink:href="#Degradado_sin_nombre_137"/></defs><title>Asset 8</title><g class="cls-1"><g id="Layer_2" data-name="Layer 2"><g id="OBJECTS"><path d="M159.33,63.12c-28.51-55.25-71.25-58.53-85-33.64a45.39,45.39,0,0,0-13.63.76c-5.49-18.61-22-51.95-45-10L31.3,24S22.44,4.26,38.08,6.83c6.6,1.09,1.36,36.75,1.41,41.36-.28.9-63.17,3.68-29.66,80.26,0,0,33.88,73.79,67.64,38.87,1.07-.49,25,7,36.54-14.24,0,0,22.77,1.17,25.75-11.65C140.45,140.8,187.84,118.37,159.33,63.12Z"/><g class="cls-2"><path class="cls-3" d="M70,87.77c-.79.31-19.19,10.07-33.78-6,0,0-.95,31.11,19.77,27S70,87.77,70,87.77Z"/><path class="cls-4" d="M36.23,81.78C42.77,89,50.07,91,56.21,91A32.92,32.92,0,0,0,70,87.77s6.71,16.89-14,21a18.11,18.11,0,0,1-3.61.38c-17,0-16.16-27.37-16.16-27.37m-.79-2.14-.06,2.12c0,.66-.41,16.39,7.08,24.11A13.34,13.34,0,0,0,52.39,110a19.49,19.49,0,0,0,3.78-.39c6.91-1.37,11.63-4.29,14-8.67,3.42-6.29.74-13.19.63-13.48l-.32-.79-.79.3-.29.14a31.45,31.45,0,0,1-13.2,3c-7.45,0-14-3-19.34-8.93l-1.43-1.57Z"/></g><path class="cls-3" d="M70.59,87.51c-.79.31-20.09,9.3-34.68-6.76,0,0-.27,32.08,20.45,28S70.59,87.51,70.59,87.51Z"/><path class="cls-5" d="M70.59,87.51c-.79.31-20.09,9.3-34.68-6.76,0,0-.09,32.16,20.63,28S70.59,87.51,70.59,87.51Z"/><path class="cls-6" d="M55.47,102.05c-14.46,2.87-18.74-12.49-20-22,0-.29,0-.47,0-.47,14.59,16.06,34.2,7.29,35,7,0,0,.13.37.29,1C70.23,93,67.12,99.73,55.47,102.05Z"/><g class="cls-2"><path class="cls-3" d="M88.62,80.54c.8-.3,20.95-5.51,21-27.26,0,0,21.5,22.39,3.4,33.35S88.62,80.54,88.62,80.54Z"/><path class="cls-7" d="M109.63,53.28s21.5,22.39,3.4,33.35c-4.4,2.66-8.1,3.67-11.19,3.67-9.6,0-13.22-9.76-13.22-9.76.8-.3,20.95-5.51,21-27.26m-.85-2.12v2.12c-.06,18.61-15.44,24.88-20.16,26.37a2,2,0,0,0-.3.1l-.79.3.29.79c0,.1,3.94,10.32,14,10.32,3.56,0,7.47-1.28,11.64-3.8,4.42-2.68,7-6.25,7.53-10.63.62-4.72-1-10.2-4.85-16.32a52.71,52.71,0,0,0-5.91-7.72l-1.47-1.53Z"/></g><path class="cls-3" d="M88,80.74c.79-.31,21.09-6.69,21.16-28.44,0,0,21.64,23.57,3.55,34.52S88,80.74,88,80.74Z"/><path class="cls-8" d="M88,80.74c.79-.31,21.09-6.69,21.16-28.44,0,0,21.56,23.75,3.47,34.71S88,80.74,88,80.74Z"/><path class="cls-9" d="M108.93,81.29c12.63-7.65,5.54-21.91.1-29.85l-.31-.35c-.07,21.76-20.46,28.52-21.25,28.82,0,0,.16.36.46.94C92,84.56,98.76,87.44,108.93,81.29Z"/><polygon class="cls-10" points="81.15 93.48 95.48 102.94 80.49 110.73 81.15 93.48 95.48 102.94 80.49 110.73 81.15 93.48"/><polygon class="cls-11" points="81.15 93.48 95.48 102.94 80.49 110.73 81.15 93.48 95.48 102.94 80.49 110.73 81.15 93.48"/><polygon class="cls-12" points="81.24 93.67 93.01 102.76 81.78 108.61 81.24 93.67 93.01 102.76 81.78 108.61 81.24 93.67"/><path class="cls-13" d="M95.48,102.94c-2.44,1.41-4.94,2.72-7.43,4s-5,2.58-7.56,3.76c2.44-1.41,4.93-2.71,7.42-4S92.92,104.12,95.48,102.94Z"/><path class="cls-14" d="M137.23,92.46c-.83.79-8.72,27.8-8.72,27.8L119.63,118l-3.92,13.85L105.25,129l-4.87,12.6L83.7,134.57,75.27,150.9,66,143.46l-1.28,7.23L37.45,127.2l22.6,8.18,3.29-6.17,9.89,9.51,9.53-14.67,12.39,4.81,5.54-13.79,9,4.79L113,106.94l11.09.93Z"/><path class="cls-14" d="M137.23,92.46c-.83.79-8.72,27.8-8.72,27.8L119.63,118l-3.92,13.85L105.25,129l-4.87,12.6L83.7,134.57,75.27,150.9,66,143.46l-1.28,7.23L37.45,127.2l22.6,8.18,3.29-6.17,9.89,9.51,9.53-14.67,12.39,4.81,5.54-13.79,9,4.79L113,106.94l11.09.93Z"/><path class="cls-15" d="M63.43,147.48l1.28-7.23,9.3,7.44,8.43-16.33,16.69,7L104,125.82l10.46,2.8,3.92-13.84,8.88,2.27s3.41-11.68,6-19.9l4-4.69c-.83.79-8.72,27.8-8.72,27.8L119.63,118l-3.92,13.85L105.25,129l-4.87,12.6L83.7,134.57,75.27,150.9,66,143.46l-1.28,7.23L37.45,127.2l4.24,1.54Z"/><path class="cls-16" d="M118.37,114.78l-3.92,13.84L104,125.82l-4.86,12.59-16.69-7L74,147.69l-9.3-7.44-1.28,7.23L41.69,128.74l18.36,6.64,3.29-6.17,9.89,9.51,9.53-14.67,12.39,4.81,5.54-13.79,9,4.79L113,106.94l11.09.93,9.12-10.72c-2.57,8.22-6,19.9-6,19.9Z"/><path class="cls-16" d="M118.37,114.78l-3.92,13.84L104,125.82l-4.86,12.59-16.69-7L74,147.69l-9.3-7.44-1.28,7.23L41.69,128.74l18.36,6.64,3.29-6.17,9.89,9.51,9.53-14.67,12.39,4.81,5.54-13.79,9,4.79L113,106.94l11.09.93,9.12-10.72c-2.57,8.22-6,19.9-6,19.9Z"/><g class="cls-17"><path class="cls-13" d="M137.23,92.46l-5.56,18.34L128.86,120l-.08.28,0,.07s0,0-.06.11a.45.45,0,0,1-.19.09.66.66,0,0,1-.21,0,5.74,5.74,0,0,1-.62-.1l-1.17-.27-2.33-.6-4.62-1.27.38-.22c-1,4.08-2,8.16-3.24,12.21a15.67,15.67,0,0,1-.53,1.54l0,.11a.54.54,0,0,1-.19.22.66.66,0,0,1-.2.06h-.17l-.09,0-.38-.1-.77-.2-3-.81-6.11-1.63.47-.23-4.85,12.6-.15.4-.4-.17L83.54,135l.52-.19L75.6,151.07l-.21.4-.35-.28-9.28-7.46.54-.21L65,150.74l-.09.51-.39-.34L51,139.08,37.45,127.2l13.74,11.61,13.7,11.66-.49.17,1.23-7.23.1-.56.44.35,9.33,7.4-.56.12,8.39-16.34.18-.33.35.14,16.69,7.05-.55.23,4.89-12.59.13-.32.34.09,6.08,1.64,3,.82.76.21.38.1.09,0h0a.31.31,0,0,0-.17,0l-.08.06,0-.07a13.48,13.48,0,0,0,.5-1.44c1.2-4,2.28-8.09,3.35-12.15l.08-.31.3.09,4.6,1.32,2.3.62,1.16.28c.19,0,.39.08.56.1h.09s-.08,0-.12.07,0,.06,0,0l0-.07.09-.28,2.92-9.11Z"/></g></g></g></g></svg>