<svg xmlns="http://www.w3.org/2000/svg" xmlns:xlink="http://www.w3.org/1999/xlink" viewBox="0 0 131.4 143.39"><defs><style>.cls-1{isolation:isolate;}.cls-2{fill:url(#Degradado_sin_nombre_152);}.cls-3{fill:url(#Degradado_sin_nombre_137);}.cls-4{fill:#ffe597;}.cls-5{mix-blend-mode:overlay;}.cls-6{fill:url(#Degradado_sin_nombre_156);}.cls-37,.cls-7{mix-blend-mode:multiply;}.cls-8{fill:url(#Degradado_sin_nombre_160);}.cls-9{fill:#841800;}.cls-10{fill:url(#Degradado_sin_nombre_152-2);}.cls-11{fill:url(#Degradado_sin_nombre_137-2);}.cls-12{fill:url(#Degradado_sin_nombre_156-2);}.cls-13{fill:url(#Degradado_sin_nombre_160-2);}.cls-14{fill:url(#Degradado_sin_nombre_137-3);}.cls-15{fill:url(#Degradado_sin_nombre_137-4);}.cls-16{fill:url(#Degradado_sin_nombre_137-5);}.cls-17{fill:url(#Degradado_sin_nombre_137-6);}.cls-18{fill:url(#Degradado_sin_nombre_137-7);}.cls-19{fill:url(#Degradado_sin_nombre_137-8);}.cls-20{fill:url(#Degradado_sin_nombre_137-9);}.cls-21{fill:url(#Degradado_sin_nombre_152-3);}.cls-22{fill:url(#Degradado_sin_nombre_152-4);}.cls-23{fill:url(#Degradado_sin_nombre_152-5);}.cls-24{fill:url(#Degradado_sin_nombre_152-6);}.cls-25{fill:url(#Degradado_sin_nombre_152-7);}.cls-26{fill:url(#Degradado_sin_nombre_137-10);}.cls-27{fill:url(#Degradado_sin_nombre_137-11);}.cls-28{fill:url(#Degradado_sin_nombre_160-3);}.cls-29{fill:url(#Degradado_sin_nombre_160-4);}.cls-30{fill:url(#Degradado_sin_nombre_160-5);}.cls-31{fill:url(#Degradado_sin_nombre_160-6);}.cls-32{fill:url(#Degradado_sin_nombre_160-7);}.cls-33{fill:url(#Degradado_sin_nombre_160-8);}.cls-34{fill:url(#Degradado_sin_nombre_160-9);}.cls-35{fill:url(#Degradado_sin_nombre_160-10);}.cls-36{fill:url(#Degradado_sin_nombre_152-8);}.cls-37{fill:url(#Degradado_sin_nombre_160-11);}.cls-38{fill:url(#Degradado_sin_nombre_137-12);}</style><linearGradient id="Degradado_sin_nombre_152" x1="107.94" y1="170.87" x2="142.46" y2="170.87" gradientTransform="matrix(0.96, -0.28, 0.28, 0.96, -80.99, -65.16)" gradientUnits="userSpaceOnUse"><stop offset="0" stop-color="#fcea10"/><stop offset="0.08" stop-color="#fbdc19"/><stop offset="0.22" stop-color="#fac924"/><stop offset="0.38" stop-color="#fabc2d"/><stop offset="0.59" stop-color="#f9b432"/><stop offset="1" stop-color="#f9b233"/></linearGradient><linearGradient id="Degradado_sin_nombre_137" x1="109.26" y1="170.89" x2="138.29" y2="170.89" gradientTransform="matrix(0.96, -0.28, 0.28, 0.96, -80.99, -65.16)" gradientUnits="userSpaceOnUse"><stop offset="0" stop-color="#461f1b"/><stop offset="0.3" stop-color="#481f1b"/><stop offset="0.46" stop-color="#50201c"/><stop offset="0.58" stop-color="#5d221d"/><stop offset="0.69" stop-color="#70241f"/><stop offset="0.78" stop-color="#892721"/><stop offset="0.87" stop-color="#a72b24"/><stop offset="0.95" stop-color="#cb3027"/><stop offset="1" stop-color="#e6332a"/></linearGradient><linearGradient id="Degradado_sin_nombre_156" x1="108.34" y1="171" x2="142.87" y2="171" gradientTransform="translate(-81.54 -65.05) rotate(-16.23)" gradientUnits="userSpaceOnUse"><stop offset="0" stop-color="#fff"/><stop offset="1" stop-color="#fff" stop-opacity="0"/></linearGradient><linearGradient id="Degradado_sin_nombre_160" x1="108.34" y1="171" x2="142.87" y2="171" gradientTransform="translate(-81.54 -65.05) rotate(-16.23)" gradientUnits="userSpaceOnUse"><stop offset="0" stop-color="#fff"/><stop offset="0.99" stop-color="#f39200"/></linearGradient><linearGradient id="Degradado_sin_nombre_152-2" x1="-604.48" y1="169.61" x2="-569.97" y2="169.61" gradientTransform="matrix(-0.96, 0.28, 0.28, 0.96, -573.81, 79.79)" xlink:href="#Degradado_sin_nombre_152"/><linearGradient id="Degradado_sin_nombre_137-2" x1="-603.17" y1="169.62" x2="-574.15" y2="169.62" gradientTransform="matrix(-0.96, 0.28, 0.28, 0.96, -573.81, 79.79)" xlink:href="#Degradado_sin_nombre_137"/><linearGradient id="Degradado_sin_nombre_156-2" x1="-604.62" y1="170.25" x2="-570.1" y2="170.25" gradientTransform="matrix(-0.96, 0.28, 0.28, 0.96, -573.91, 79.23)" xlink:href="#Degradado_sin_nombre_156"/><linearGradient id="Degradado_sin_nombre_160-2" x1="-604.62" y1="170.25" x2="-570.1" y2="170.25" gradientTransform="matrix(-0.96, 0.28, 0.28, 0.96, -573.91, 79.23)" xlink:href="#Degradado_sin_nombre_160"/><linearGradient id="Degradado_sin_nombre_137-3" x1="63.68" y1="200.67" x2="134.86" y2="200.67" xlink:href="#Degradado_sin_nombre_137"/><linearGradient id="Degradado_sin_nombre_137-4" x1="63.99" y1="210.02" x2="134.52" y2="210.02" xlink:href="#Degradado_sin_nombre_137"/><linearGradient id="Degradado_sin_nombre_137-5" x1="63.1" y1="210.12" x2="135.42" y2="210.12" xlink:href="#Degradado_sin_nombre_137"/><linearGradient id="Degradado_sin_nombre_137-6" x1="64.19" y1="209.04" x2="134.68" y2="209.04" xlink:href="#Degradado_sin_nombre_137"/><linearGradient id="Degradado_sin_nombre_137-7" x1="66.36" y1="206.15" x2="134.25" y2="206.15" xlink:href="#Degradado_sin_nombre_137"/><linearGradient id="Degradado_sin_nombre_137-8" x1="64.34" y1="210.6" x2="134.4" y2="210.6" xlink:href="#Degradado_sin_nombre_137"/><linearGradient id="Degradado_sin_nombre_137-9" x1="63.65" y1="207.61" x2="134.81" y2="207.61" xlink:href="#Degradado_sin_nombre_137"/><linearGradient id="Degradado_sin_nombre_152-3" x1="41.44" y1="198.43" x2="152.37" y2="198.43" xlink:href="#Degradado_sin_nombre_152"/><linearGradient id="Degradado_sin_nombre_152-4" x1="70.53" y1="212.64" x2="111.76" y2="212.64" xlink:href="#Degradado_sin_nombre_152"/><linearGradient id="Degradado_sin_nombre_152-5" x1="41.88" y1="210.22" x2="129.57" y2="210.22" xlink:href="#Degradado_sin_nombre_152"/><linearGradient id="Degradado_sin_nombre_152-6" x1="-129.18" y1="201.79" x2="138.91" y2="201.79" xlink:href="#Degradado_sin_nombre_152"/><linearGradient id="Degradado_sin_nombre_152-7" x1="63.68" y1="207.2" x2="134.81" y2="207.2" xlink:href="#Degradado_sin_nombre_152"/><linearGradient id="Degradado_sin_nombre_137-10" x1="63.74" y1="199.9" x2="134.92" y2="199.9" xlink:href="#Degradado_sin_nombre_137"/><linearGradient id="Degradado_sin_nombre_137-11" x1="63.68" y1="199.9" x2="134.86" y2="199.9" xlink:href="#Degradado_sin_nombre_137"/><linearGradient id="Degradado_sin_nombre_160-3" x1="36.6" y1="110.85" x2="68.2" y2="101.65" gradientTransform="matrix(1, 0, 0, 1, 0, 0)" xlink:href="#Degradado_sin_nombre_160"/><linearGradient id="Degradado_sin_nombre_160-4" x1="75.14" y1="111.7" x2="80.04" y2="110.27" gradientTransform="matrix(1, 0, 0, 1, 0, 0)" xlink:href="#Degradado_sin_nombre_160"/><linearGradient id="Degradado_sin_nombre_160-5" x1="78.34" y1="106.77" x2="96.32" y2="101.54" gradientTransform="matrix(1, 0, 0, 1, 0, 0)" xlink:href="#Degradado_sin_nombre_160"/><linearGradient id="Degradado_sin_nombre_160-6" x1="94.22" y1="89.25" x2="103.85" y2="86.44" gradientTransform="matrix(1, 0, 0, 1, 0, 0)" xlink:href="#Degradado_sin_nombre_160"/><linearGradient id="Degradado_sin_nombre_160-7" x1="63.65" y1="103.23" x2="69.66" y2="101.48" gradientTransform="matrix(1, 0, 0, 1, 0, 0)" xlink:href="#Degradado_sin_nombre_160"/><linearGradient id="Degradado_sin_nombre_160-8" x1="91.52" y1="91.58" x2="96.18" y2="90.22" gradientTransform="matrix(1, 0, 0, 1, 0, 0)" xlink:href="#Degradado_sin_nombre_160"/><linearGradient id="Degradado_sin_nombre_160-9" x1="53.41" y1="106.06" x2="60.01" y2="104.14" gradientTransform="matrix(1, 0, 0, 1, 0, 0)" xlink:href="#Degradado_sin_nombre_160"/><linearGradient id="Degradado_sin_nombre_160-10" x1="72.64" y1="101.85" x2="81.08" y2="99.39" gradientTransform="matrix(1, 0, 0, 1, 0, 0)" xlink:href="#Degradado_sin_nombre_160"/><linearGradient id="Degradado_sin_nombre_152-8" x1="92.32" y1="184.42" x2="109.1" y2="184.42" xlink:href="#Degradado_sin_nombre_152"/><linearGradient id="Degradado_sin_nombre_160-11" x1="92.32" y1="184.42" x2="109.1" y2="184.42" gradientTransform="matrix(0.96, -0.28, 0.28, 0.96, -80.99, -65.16)" xlink:href="#Degradado_sin_nombre_160"/><linearGradient id="Degradado_sin_nombre_137-12" x1="94.43" y1="183.97" x2="107" y2="183.97" xlink:href="#Degradado_sin_nombre_137"/></defs><title>Asset 9</title><g class="cls-1"><g id="Layer_2" data-name="Layer 2"><g id="OBJECTS"><path d="M4.14,107.18c-13.69-47.81,9.14-73.4,30.61-66.61A36.47,36.47,0,0,1,43,33.46C36,19.64,27.4-8.85,63.5,2.69l-7,10.83S50.9-2.82,43.3,7.35c-3.21,4.28,19.24,22,21.72,24.73.66.36,38.39-32.91,60.82,30,0,0,20.7,61.52-17.77,60-.89.32-10.61,18-28.8,12,0,0-12.48,13.31-21.18,7.54C57.35,141.69,17.83,155,4.14,107.18Z"/><path class="cls-2" d="M73.1,77.9C88.56,80,105.63,66.15,105.63,66.15,101,56.75,90.31,50.52,90.31,50.52"/><path class="cls-3" d="M88.79,52.8S97.31,58,101.21,65.91c0,0-14.11,12.15-27.21,10.38"/><path class="cls-4" d="M73.11,78a41.14,41.14,0,0,0,8.73-.74,47.35,47.35,0,0,0,8.42-2.33,49.48,49.48,0,0,0,7.9-3.72,64.41,64.41,0,0,0,7.27-4.92c-1.11,1-2.2,2-3.36,2.85s-2.37,1.77-3.65,2.51a45.63,45.63,0,0,1-7.93,3.91,43,43,0,0,1-8.57,2.2A32.51,32.51,0,0,1,73.11,78Z"/><g class="cls-5"><path class="cls-6" d="M90.18,50.65,88.72,53c.74.46,8.64,5.49,12.36,13.07,0,0-14,12.08-27.11,10.39L73,78c15.46,2.08,32.54-11.75,32.54-11.75C100.89,56.88,90.18,50.65,90.18,50.65Z"/></g><g class="cls-7"><path class="cls-8" d="M90.18,50.65,88.72,53c.74.46,8.64,5.49,12.36,13.07,0,0-14,12.08-27.11,10.39L73,78c15.46,2.08,32.54-11.75,32.54-11.75C100.89,56.88,90.18,50.65,90.18,50.65Z"/></g><path class="cls-4" d="M90.27,50.61a39.16,39.16,0,0,1,4.61,3,49.12,49.12,0,0,1,4.23,3.53,35.89,35.89,0,0,1,3.67,4.12,18.77,18.77,0,0,1,2.66,4.82,27.94,27.94,0,0,0-3.06-4.51,44.82,44.82,0,0,0-3.73-4C97.36,56.34,96,55.18,94.57,54S91.73,51.72,90.27,50.61Z"/><path class="cls-9" d="M73.22,77.75c1.36-2.31,2.71-4.63,4.09-6.93L81.51,64l4.32-6.78c1.46-2.25,2.93-4.49,4.47-6.69-1.3,2.35-2.67,4.66-4,7S83.47,62,82.07,64.32s-2.86,4.53-4.33,6.77S74.81,75.58,73.22,77.75Z"/><path class="cls-10" d="M56.63,82.74c-11.93,10.12-33.7,7.68-33.7,7.68-1.12-10.42,4.6-21.48,4.6-21.48"/><path class="cls-11" d="M30,70.05s-4.45,9-3.5,17.79c0,0,18.37,2.6,28.48-6"/><path class="cls-4" d="M56.65,82.79a32.67,32.67,0,0,1-7.54,4.56,43.45,43.45,0,0,1-8.39,2.78,45.63,45.63,0,0,1-8.79,1c-1.47.07-2.94-.08-4.41-.14s-2.92-.38-4.37-.59a64.26,64.26,0,0,0,8.77.21,48.44,48.44,0,0,0,8.65-1.13,46.61,46.61,0,0,0,8.34-2.6A40.93,40.93,0,0,0,56.65,82.79Z"/><g class="cls-5"><path class="cls-12" d="M27.71,69l2.47,1.17c-.39.79-4.38,9.31-3.47,17.72,0,0,18.28,2.59,28.4-5.91l1.71.81c-11.94,10.12-33.71,7.69-33.71,7.69C22,80,27.71,69,27.71,69Z"/></g><g class="cls-7"><path class="cls-13" d="M27.71,69l2.47,1.17c-.39.79-4.38,9.31-3.47,17.72,0,0,18.28,2.59,28.4-5.91l1.71.81c-11.94,10.12-33.71,7.69-33.71,7.69C22,80,27.71,69,27.71,69Z"/></g><path class="cls-4" d="M27.61,69c-.64,1.72-1.25,3.44-1.81,5.18s-1.11,3.48-1.52,5.26a44,44,0,0,0-1.05,5.35,28.4,28.4,0,0,0-.18,5.46,19.21,19.21,0,0,1-.33-5.51,37.38,37.38,0,0,1,.91-5.47A51.1,51.1,0,0,1,25.32,74,39.09,39.09,0,0,1,27.61,69Z"/><path class="cls-9" d="M56.44,82.67c-2.49-1-4.92-2.08-7.35-3.17s-4.84-2.25-7.26-3.37S37,73.8,34.64,72.6s-4.77-2.41-7.11-3.69c2.46,1,4.9,2.13,7.33,3.23l7.25,3.39L49.31,79C51.7,80.23,54.07,81.46,56.44,82.67Z"/><path class="cls-14" d="M33.24,99.11c-.46-.23,4.41,12.66,15.76,14.19-.3-.17-.11-3.42-.11-3.42l4.92.09,1.51,3.52s4.49,1.63,4.38,1.28-.56-4.57-.56-4.57L64.67,109s1.71,5.9,2.14,5.64,4.6-1.86,4.6-1.86l-2.28-4.84L74,107l.8,4.5,5-1-1.61-4.26,5-1.61L86.1,108l3.15-1.69-2.06-4.52,3.74-2.25L92,102.85l3.94-2.43L92.4,96.85,95.25,95,97,98.71s9.45-5.07,3.91-21.62c0,0-.16,6.83-5.92,9l1,3.81-4.3,2-1.25-2.58L88,90.84l1.23,3-5,2.63-1.6-4.27-1.7.63.22,6.84s-8.48,2.36-8.53,1.74-1.22-6.81-1.22-6.81l-2.78,1.2,1,5.72-6,1.76-1.41-5.73-2.91,1.62,1,5.6s-6.71,1.07-7,.64-1.14-4.4-1.14-4.4l-2.7,1.94-.1,4s-3.67.31-3.78,0L44.51,103A41.94,41.94,0,0,1,33.24,99.11Z"/><path class="cls-15" d="M70.76,111.36l.28-.11-1.6-3.41-.31.06Z"/><polygon class="cls-16" points="73.91 107 74.44 109.99 74.54 109.97 74.01 106.98 73.91 107"/><polygon class="cls-17" points="88.63 104.99 88.88 104.86 87.44 101.69 87.19 101.83 88.63 104.99"/><polyline class="cls-18" points="93.08 96.41 92.4 96.85 94.88 99.35 95.91 100.48"/><polygon class="cls-19" points="79.25 109.07 79.43 109.04 78.36 106.21 78.19 106.27 79.25 109.07"/><polygon class="cls-20" points="68.77 106.41 69.44 107.84 73.91 107 73.64 105.49 68.77 106.41"/><path class="cls-21" d="M96.58,97.22l-1.7-3.72L92,95.36l1,1L95.25,95,97,98.71s8.58-4.61,4.59-19.38C104.58,92.92,96.58,97.22,96.58,97.22Z"/><polygon class="cls-22" points="74.54 109.97 74.81 111.48 79.8 110.53 79.25 109.07 74.54 109.97"/><polygon class="cls-23" points="85.73 106.55 82.88 103.17 77.82 104.78 78.36 106.21 83.24 104.66 86.1 108.04 89.46 106.25 88.86 104.81 85.73 106.55"/><path class="cls-24" d="M66.44,113.11c-.43.25-2.14-5.65-2.14-5.65l-5.53,1.24s.46,4.22.57,4.57S55,112,55,112l-1.52-3.52-4.92-.1s-.19,3.26.11,3.43c-8.79-1.19-13.69-9.18-15.24-12.62l-.15-.08c-.46-.23,4.41,12.66,15.76,14.19-.3-.17-.11-3.42-.11-3.42l4.92.09,1.51,3.52s4.49,1.63,4.38,1.28-.56-4.57-.56-4.57L64.67,109s1.71,5.9,2.14,5.64,4.6-1.86,4.6-1.86l-.65-1.38C69.81,111.72,66.8,112.9,66.44,113.11Z"/><polygon class="cls-25" points="91.64 101.36 90.56 98.09 86.83 100.34 87.44 101.69 90.93 99.58 92 102.85 95.94 100.42 95 99.19 91.64 101.36"/><path class="cls-26" d="M94.88,93.5l1.7,3.72s8-4.3,5-17.89c-.19-.72-.42-1.47-.68-2.24,0,0-.16,6.82-5.9,9l.59,2.33h0l.38,1.49-4.3,2-1.25-2.58-2.14,1.33.67,1.6-.21.11.57,1.38-5,2.63-1.6-4.27-1.7.63.22,6.84s-8.48,2.36-8.53,1.74c0-.16-.1-.7-.23-1.4-.08,0-.13,0-.14-.09,0-.43-.58-3.41-.93-5.29l-2.7,1.17,1,5.72-6,1.76-.37-1.49h0l-1-4.24-2.91,1.62,1,5.6s-6.71,1.07-7,.64a25.22,25.22,0,0,1-.8-2.92c-.12-.48-.25-1-.36-1.47l-2.68,1.93-.1,4s-3.67.31-3.78,0L44.51,103a42.16,42.16,0,0,1-11.12-3.78c1.55,3.44,6.45,11.43,15.24,12.62-.3-.17-.11-3.43-.11-3.43l4.92.1L55,112s4.48,1.63,4.38,1.27-.57-4.57-.57-4.57l5.53-1.24s1.71,5.9,2.14,5.65,3.37-1.39,4.32-1.75l-1.63-3.46.31-.06-.67-1.43,4.87-.92.27,1.51.1,0,.53,3,4.71-.9-1.06-2.8.18-.06-.55-1.43,5.06-1.61,2.85,3.38,2.9-1.56-1.44-3.16.25-.14-.61-1.35,3.74-2.25,1.07,3.27,3.24-2-2.48-2.5.68-.44-1-1Z"/><path class="cls-27" d="M94.88,93.5l1.7,3.72s8-4.3,5-17.89c-.19-.72-.42-1.47-.68-2.24,0,0-.16,6.82-5.9,9l.59,2.33h0l.38,1.49-4.3,2-1.25-2.58-2.14,1.33.67,1.6-.21.11.57,1.38-5,2.63-1.6-4.27-1.7.63.22,6.84s-8.48,2.36-8.53,1.74c0-.16-.1-.7-.23-1.4-.08,0-.13,0-.14-.09,0-.43-.58-3.41-.93-5.29l-2.7,1.17,1,5.72-6,1.76-.37-1.49h0l-1-4.24-2.91,1.62,1,5.6s-6.71,1.07-7,.64a25.22,25.22,0,0,1-.8-2.92c-.12-.48-.25-1-.36-1.47l-2.68,1.93-.1,4s-3.67.31-3.78,0L44.51,103a42.16,42.16,0,0,1-11.12-3.78c1.55,3.44,6.45,11.43,15.24,12.62-.3-.17-.11-3.43-.11-3.43l4.92.1L55,112s4.48,1.63,4.38,1.27-.57-4.57-.57-4.57l5.53-1.24s1.71,5.9,2.14,5.65,3.37-1.39,4.32-1.75l-1.63-3.46.31-.06-.67-1.43,4.87-.92.27,1.51.1,0,.53,3,4.71-.9-1.06-2.8.18-.06-.55-1.43,5.06-1.61,2.85,3.38,2.9-1.56-1.44-3.16.25-.14-.61-1.35,3.74-2.25,1.07,3.27,3-2.42L92.4,96.85l.68-.44-1-1Z"/><g class="cls-5"><path class="cls-28" d="M33.39,99.19a23.37,23.37,0,0,0,2.41,5,22.69,22.69,0,0,0,3.51,4.24,19.6,19.6,0,0,0,2.12,1.74,18.19,18.19,0,0,0,2.38,1.38A19,19,0,0,0,49,113.16l-.16.15-.12-2.09c0-.35,0-.69,0-1a1.21,1.21,0,0,1,0-.31c0-.12.19-.16.23-.16h.67c1.4,0,2.79.06,4.18.12h.11l0,.1,1.51,3.53-.1-.09,4.37,1.29-.17.15L59,110.21l0-.11.11,0,5.54-1.22.09,0,0,.08,2.09,5.66-.08,0,4.63-1.81-4.58,1.91-.06,0,0-.06L64.58,109l.11.06-5.53,1.27.1-.14.58,4.57,0,.21-.2-.06-4.39-1.26-.07,0,0-.07L53.65,110l.15.1c-1.39-.06-2.78-.12-4.17-.14H49s0,0,0,0v.2c0,.34,0,.69,0,1l.1,2.08v.19l-.17,0a19.45,19.45,0,0,1-5.28-1.72,18.68,18.68,0,0,1-2.4-1.42,21.15,21.15,0,0,1-5.6-6.09A22.82,22.82,0,0,1,33.39,99.19Z"/></g><g class="cls-5"><path class="cls-29" d="M75.1,111.46a18,18,0,0,1,2.47-.65,16.21,16.21,0,0,1,2.52-.3,17.6,17.6,0,0,1-2.47.65A19.26,19.26,0,0,1,75.1,111.46Z"/></g><g class="cls-5"><polygon class="cls-30" points="78.19 106.27 83.21 104.56 83.28 104.54 83.32 104.59 86.22 107.94 86.03 107.91 89.51 106.07 89.44 106.29 87.39 101.84 87.33 101.71 87.45 101.64 90.86 99.47 91.01 99.37 91.06 99.54 92.09 102.82 91.95 102.77 95.94 100.42 92.05 102.94 91.95 103 91.91 102.88 90.8 99.63 91.01 99.7 87.63 101.91 87.69 101.71 89.74 106.15 89.81 106.29 89.66 106.37 86.17 108.18 86.06 108.23 85.99 108.14 83.17 104.72 83.28 104.76 78.19 106.27"/></g><g class="cls-5"><path class="cls-31" d="M97,98.68a11.19,11.19,0,0,0,3.81-4.38,15.34,15.34,0,0,0,1.54-5.62,25,25,0,0,0-.16-5.86c-.18-1-.34-1.94-.55-2.9l-.73-2.86.9,2.82c.24,1,.43,1.93.64,2.9a24.1,24.1,0,0,1,.25,5.94,15.16,15.16,0,0,1-1.65,5.7A10.59,10.59,0,0,1,97,98.68Z"/></g><g class="cls-5"><path class="cls-32" d="M63.65,103.24a28.11,28.11,0,0,1,3-1,26,26,0,0,1,3-.71,28,28,0,0,1-6,1.76Z"/></g><g class="cls-5"><path class="cls-33" d="M91.66,92A17.09,17.09,0,0,1,96,89.83,17.09,17.09,0,0,1,91.66,92Z"/></g><g class="cls-5"><path class="cls-34" d="M53.26,105.43a33.35,33.35,0,0,1,3.43-.5,30.71,30.71,0,0,1,3.46-.16,33,33,0,0,1-3.43.5A30.71,30.71,0,0,1,53.26,105.43Z"/></g><g class="cls-5"><path class="cls-35" d="M72.56,101.54c1.41-.45,2.84-.76,4.26-1.09s2.87-.58,4.34-.75c-1.4.45-2.84.77-4.26,1.09S74,101.38,72.56,101.54Z"/></g><polygon class="cls-36" points="65.57 77.8 60.94 92.02 77.04 87.29 65.57 77.8 60.94 92.02 77.04 87.29 65.57 77.8"/><polygon class="cls-37" points="65.57 77.8 60.94 92.02 77.04 87.29 65.57 77.8 60.94 92.02 77.04 87.29 65.57 77.8"/><polygon class="cls-38" points="65.62 77.96 62.66 90.4 74.73 86.86 65.62 77.96 62.66 90.4 74.73 86.86 65.62 77.96"/><path class="cls-4" d="M60.94,92c2.65-.9,5.34-1.69,8-2.5S74.33,88,77,87.29c-2.65.9-5.33,1.7-8,2.5S63.66,91.34,60.94,92Z"/></g></g></g></svg>