<svg xmlns="http://www.w3.org/2000/svg" width="1920.703" height="0.827" viewBox="0 0 1920.703 0.827"><defs><style>.a{fill:#ff7676;}</style></defs><path class="a" d="M0,0H400.293c86.126,0,435.157,1.266,542,.664S1546.587,0,1600.457,0H0Z"/></svg>
<svg xmlns="http://www.w3.org/2000/svg" width="1920.771" height="762.094" viewBox="0 0 1920.771 762.094"><defs><style>.a{fill:#ff7676;}</style></defs><path class="a" d="M0,0V564.918s89.2-276.2,364.9-276.2S662.934,763.873,979.5,762.089,1275.025,106.135,1604.3,106.135,1920.7,564.918,1920.7,564.918V0Z"/></svg>

<svg xmlns="http://www.w3.org/2000/svg" width="1920.703" height="1080" viewBox="0 0 1920.703 1080"><defs><style>.a{fill:#ff7676;}</style></defs><path class="a" d="M0,0,0,1079.22H351.467c150.084,0,523.755.52,648.888.385s462.447.4,589.077,0,330.375.393,330.375.393l.9-1080Z"/></svg>




<svg xmlns="http://www.w3.org/2000/svg" width="1920" height="571.122" viewBox="0 0 1920 571.122"><defs><style>.a{fill:#901111;}</style></defs><path class="a" d="M3980,0s20.976,569.949,707.96,571.12S5900,0,5900,0Z" transform="translate(-3980)"/></svg>