<svg xmlns="http://www.w3.org/2000/svg" viewBox="0 0 581.95 196.4"><defs><style>.cls-1{isolation:isolate;}.cls-2{opacity:0.47;}.cls-3{fill:#a4eaff;opacity:0.82;mix-blend-mode:screen;}</style></defs><title>Asset 7</title><g class="cls-1"><g id="Layer_2" data-name="Layer 2"><g id="OBJECTS"><g class="cls-2"><path class="cls-3" d="M13.44,40a1.35,1.35,0,1,1,1.35,1.39A1.37,1.37,0,0,1,13.44,40Z"/><path class="cls-3" d="M447.83,19.87a1.36,1.36,0,1,1,1.36,1.39A1.38,1.38,0,0,1,447.83,19.87Z"/><ellipse class="cls-3" cx="537.93" cy="20.46" rx="1.35" ry="1.39"/><path class="cls-3" d="M39.89,140.07a1.36,1.36,0,1,1,1.35,1.39A1.37,1.37,0,0,1,39.89,140.07Z"/><path class="cls-3" d="M32.64,83A1.35,1.35,0,1,1,34,84.39,1.37,1.37,0,0,1,32.64,83Z"/><path class="cls-3" d="M553.86,53.41a1.35,1.35,0,1,1,1.35,1.39A1.37,1.37,0,0,1,553.86,53.41Z"/><path class="cls-3" d="M555.57,195a1.35,1.35,0,1,1,1.35,1.39A1.37,1.37,0,0,1,555.57,195Z"/><path class="cls-3" d="M65.48,23.82a.42.42,0,1,1-.42-.43A.42.42,0,0,1,65.48,23.82Z"/><path class="cls-3" d="M235.93,15.63a.42.42,0,1,1-.84,0,.42.42,0,1,1,.84,0Z"/><ellipse class="cls-3" cx="201.95" cy="45.44" rx="0.42" ry="0.43"/><ellipse class="cls-3" cx="105.66" cy="57.28" rx="0.42" ry="0.43"/><path class="cls-3" d="M474.29,144.22a.43.43,0,1,1-.85,0,.43.43,0,1,1,.85,0Z"/><path class="cls-3" d="M549.8,96.45a.43.43,0,1,1-.42-.44A.43.43,0,0,1,549.8,96.45Z"/><path class="cls-3" d="M472.58,50.7a.43.43,0,0,1-.42.44.43.43,0,0,1-.42-.44.42.42,0,0,1,.42-.43A.42.42,0,0,1,472.58,50.7Z"/><path class="cls-3" d="M517.52,97.18a.42.42,0,0,1-.42.43.43.43,0,0,1,0-.86A.42.42,0,0,1,517.52,97.18Z"/><ellipse class="cls-3" cx="512.55" cy="46.33" rx="0.42" ry="0.43"/><ellipse class="cls-3" cx="581.53" cy="28.64" rx="0.42" ry="0.43"/><path class="cls-3" d="M557.34,150.07a.42.42,0,1,1-.42-.43A.42.42,0,0,1,557.34,150.07Z"/><path class="cls-3" d="M154.73,16.37a.42.42,0,1,1-.84,0,.42.42,0,1,1,.84,0Z"/><path class="cls-3" d="M172.79.43a.43.43,0,1,1-.85,0,.43.43,0,1,1,.85,0Z"/><path class="cls-3" d="M357.25,23.38a.43.43,0,1,1-.43-.43A.43.43,0,0,1,357.25,23.38Z"/><path class="cls-3" d="M423.09,24.4a.43.43,0,1,1-.42-.43A.42.42,0,0,1,423.09,24.4Z"/><ellipse class="cls-3" cx="446.14" cy="77.74" rx="0.42" ry="0.43"/><ellipse class="cls-3" cx="0.42" cy="77.74" rx="0.42" ry="0.43"/><path class="cls-3" d="M55.18,115.73a.43.43,0,0,1-.42.44.43.43,0,0,1-.42-.44.42.42,0,0,1,.42-.43A.42.42,0,0,1,55.18,115.73Z"/><path class="cls-3" d="M113.77,110.47a.42.42,0,1,1-.84,0,.42.42,0,1,1,.84,0Z"/><path class="cls-3" d="M51.77,184.12a.43.43,0,1,1-.85,0,.43.43,0,1,1,.85,0Z"/><path class="cls-3" d="M2.55,194.06a.42.42,0,1,1-.42-.43A.42.42,0,0,1,2.55,194.06Z"/></g></g></g></g></svg>