<svg xmlns="http://www.w3.org/2000/svg" xmlns:xlink="http://www.w3.org/1999/xlink" viewBox="0 0 1028.31 938.7"><defs><style>.cls-1{isolation:isolate;}.cls-2,.cls-24{stroke:#010100;stroke-miterlimit:10;}.cls-2{stroke-width:1.83px;}.cls-2,.cls-24,.cls-3{fill-rule:evenodd;}.cls-3,.cls-4{fill:#511100;}.cls-11,.cls-15,.cls-16,.cls-17,.cls-23,.cls-5,.cls-61,.cls-64,.cls-70,.cls-73,.cls-76,.cls-8,.cls-80,.cls-81,.cls-82{mix-blend-mode:overlay;}.cls-6{fill:#f4810e;}.cls-7{fill:url(#Degradado_sin_nombre_7);}.cls-8{fill:url(#Degradado_sin_nombre_17);}.cls-9{fill:url(#Degradado_sin_nombre_137);}.cls-10{fill:url(#Degradado_sin_nombre_7-2);}.cls-11{fill:url(#Degradado_sin_nombre_17-2);}.cls-12{fill:url(#Degradado_sin_nombre_137-2);}.cls-13{fill:url(#Degradado_sin_nombre_137-3);}.cls-14{fill:url(#Degradado_sin_nombre_137-4);}.cls-15{fill:url(#Degradado_sin_nombre_17-3);}.cls-16{fill:url(#Degradado_sin_nombre_19);}.cls-17{fill:url(#Degradado_sin_nombre_19-2);}.cls-18{fill:url(#Degradado_sin_nombre_137-5);}.cls-19{fill:url(#Degradado_sin_nombre_152);}.cls-20,.cls-28,.cls-58,.cls-67,.cls-85{mix-blend-mode:multiply;}.cls-20{fill:url(#Degradado_sin_nombre_160);}.cls-21{fill:url(#Degradado_sin_nombre_137-7);}.cls-22{fill:#ffe597;}.cls-23{opacity:0.73;}.cls-24{stroke-width:2.15px;}.cls-25{fill:url(#Degradado_sin_nombre_152-2);}.cls-26{fill:url(#Degradado_sin_nombre_137-8);}.cls-27{fill:url(#Degradado_sin_nombre_156);}.cls-29{fill:url(#Degradado_sin_nombre_160-2);}.cls-30{fill:#841800;}.cls-31{fill:url(#Degradado_sin_nombre_152-3);}.cls-32{fill:url(#Degradado_sin_nombre_137-9);}.cls-33{fill:url(#Degradado_sin_nombre_156-2);}.cls-34{fill:url(#Degradado_sin_nombre_160-3);}.cls-35{fill:url(#Degradado_sin_nombre_137-10);}.cls-36{fill:url(#Degradado_sin_nombre_137-11);}.cls-37{fill:url(#Degradado_sin_nombre_137-12);}.cls-38{fill:url(#Degradado_sin_nombre_137-13);}.cls-39{fill:url(#Degradado_sin_nombre_137-14);}.cls-40{fill:url(#Degradado_sin_nombre_137-15);}.cls-41{fill:url(#Degradado_sin_nombre_137-16);}.cls-42{fill:url(#Degradado_sin_nombre_152-4);}.cls-43{fill:url(#Degradado_sin_nombre_152-5);}.cls-44{fill:url(#Degradado_sin_nombre_152-6);}.cls-45{fill:url(#Degradado_sin_nombre_152-7);}.cls-46{fill:url(#Degradado_sin_nombre_152-8);}.cls-47{fill:url(#Degradado_sin_nombre_137-17);}.cls-48{fill:url(#Degradado_sin_nombre_137-18);}.cls-49{fill:url(#Degradado_sin_nombre_160-4);}.cls-50{fill:url(#Degradado_sin_nombre_160-5);}.cls-51{fill:url(#Degradado_sin_nombre_160-6);}.cls-52{fill:url(#Degradado_sin_nombre_160-7);}.cls-53{fill:url(#Degradado_sin_nombre_160-8);}.cls-54{fill:url(#Degradado_sin_nombre_160-9);}.cls-55{fill:url(#Degradado_sin_nombre_160-10);}.cls-56{fill:url(#Degradado_sin_nombre_160-11);}.cls-57{fill:url(#Degradado_sin_nombre_152-9);}.cls-58{fill:url(#Degradado_sin_nombre_160-12);}.cls-59{fill:url(#Degradado_sin_nombre_137-19);}.cls-60{fill:url(#Degradado_sin_nombre_7-3);}.cls-61{fill:url(#Degradado_sin_nombre_17-4);}.cls-62{fill:url(#Degradado_sin_nombre_137-20);}.cls-63{fill:url(#Degradado_sin_nombre_7-4);}.cls-64{fill:url(#Degradado_sin_nombre_17-5);}.cls-65{fill:url(#Degradado_sin_nombre_137-21);}.cls-66{fill:url(#Degradado_sin_nombre_152-10);}.cls-67{fill:url(#Degradado_sin_nombre_160-13);}.cls-68{fill:url(#Degradado_sin_nombre_137-22);}.cls-69{fill:url(#Degradado_sin_nombre_137-23);}.cls-70{fill:url(#Degradado_sin_nombre_17-6);}.cls-71{fill:url(#Degradado_sin_nombre_137-25);}.cls-72{fill:url(#Degradado_sin_nombre_7-5);}.cls-73{fill:url(#Degradado_sin_nombre_17-7);}.cls-74{fill:url(#Degradado_sin_nombre_137-27);}.cls-75{fill:url(#Degradado_sin_nombre_7-6);}.cls-76{fill:url(#Degradado_sin_nombre_17-8);}.cls-77{fill:url(#Degradado_sin_nombre_137-28);}.cls-78{fill:url(#Degradado_sin_nombre_137-29);}.cls-79{fill:url(#Degradado_sin_nombre_137-30);}.cls-80{fill:url(#Degradado_sin_nombre_17-9);}.cls-81{fill:url(#Degradado_sin_nombre_19-3);}.cls-82{fill:url(#Degradado_sin_nombre_19-4);}.cls-83{fill:url(#Degradado_sin_nombre_137-31);}.cls-84{fill:url(#Degradado_sin_nombre_152-11);}.cls-85{fill:url(#Degradado_sin_nombre_160-14);}.cls-86{fill:url(#Degradado_sin_nombre_137-33);}</style><linearGradient id="Degradado_sin_nombre_7" x1="800.46" y1="551.71" x2="748.69" y2="547.42" gradientUnits="userSpaceOnUse"><stop offset="0" stop-color="#fff"/><stop offset="1" stop-color="#fff" stop-opacity="0"/></linearGradient><linearGradient id="Degradado_sin_nombre_17" x1="338.49" y1="455.4" x2="388.35" y2="455.4" gradientTransform="matrix(-1, -0.08, -0.08, 1, 1175.05, 126.21)" gradientUnits="userSpaceOnUse"><stop offset="0" stop-color="#fff"/><stop offset="0.08" stop-color="#fdece7"/><stop offset="0.33" stop-color="#f6b59f"/><stop offset="0.56" stop-color="#f08966"/><stop offset="0.75" stop-color="#ec693d"/><stop offset="0.9" stop-color="#ea5524"/><stop offset="0.99" stop-color="#e94e1b"/></linearGradient><linearGradient id="Degradado_sin_nombre_137" x1="338.17" y1="449.4" x2="385.9" y2="449.4" gradientTransform="matrix(-1, -0.08, -0.08, 1, 1175.05, 126.21)" gradientUnits="userSpaceOnUse"><stop offset="0" stop-color="#461f1b"/><stop offset="0.3" stop-color="#481f1b"/><stop offset="0.46" stop-color="#50201c"/><stop offset="0.58" stop-color="#5d221d"/><stop offset="0.69" stop-color="#70241f"/><stop offset="0.78" stop-color="#892721"/><stop offset="0.87" stop-color="#a72b24"/><stop offset="0.95" stop-color="#cb3027"/><stop offset="1" stop-color="#e6332a"/></linearGradient><linearGradient id="Degradado_sin_nombre_7-2" x1="827.79" y1="554.1" x2="879.55" y2="558.39" xlink:href="#Degradado_sin_nombre_7"/><linearGradient id="Degradado_sin_nombre_17-2" x1="964.37" y1="455.58" x2="1014.23" y2="455.58" gradientTransform="translate(-95.39 20.85) rotate(4.74)" xlink:href="#Degradado_sin_nombre_17"/><linearGradient id="Degradado_sin_nombre_137-2" x1="964.05" y1="449.58" x2="1011.75" y2="449.58" gradientTransform="translate(-95.39 20.85) rotate(4.74)" xlink:href="#Degradado_sin_nombre_137"/><linearGradient id="Degradado_sin_nombre_137-3" x1="251.31" y1="509.18" x2="394.47" y2="509.18" xlink:href="#Degradado_sin_nombre_137"/><linearGradient id="Degradado_sin_nombre_137-4" x1="249.77" y1="507.81" x2="397.63" y2="507.81" xlink:href="#Degradado_sin_nombre_137"/><linearGradient id="Degradado_sin_nombre_17-3" x1="251.31" y1="509.27" x2="332.96" y2="509.27" xlink:href="#Degradado_sin_nombre_17"/><linearGradient id="Degradado_sin_nombre_19" x1="332.98" y1="514.23" x2="356.29" y2="514.23" gradientTransform="matrix(-1, -0.08, -0.08, 1, 1175.05, 126.21)" gradientUnits="userSpaceOnUse"><stop offset="0.47" stop-color="#e94e1b"/><stop offset="0.99" stop-color="#e94e1b"/></linearGradient><linearGradient id="Degradado_sin_nombre_19-2" x1="356.27" y1="505.07" x2="394.47" y2="505.07" xlink:href="#Degradado_sin_nombre_19"/><linearGradient id="Degradado_sin_nombre_137-5" x1="251.3" y1="506.49" x2="394.47" y2="506.49" xlink:href="#Degradado_sin_nombre_137"/><linearGradient id="Degradado_sin_nombre_152" x1="186.5" y1="440.22" x2="217.32" y2="440.22" gradientTransform="matrix(-0.82, 0.02, 0.03, 1, 965.63, 136.91)" gradientUnits="userSpaceOnUse"><stop offset="0" stop-color="#fcea10"/><stop offset="0.08" stop-color="#fbdc19"/><stop offset="0.22" stop-color="#fac924"/><stop offset="0.38" stop-color="#fabc2d"/><stop offset="0.59" stop-color="#f9b432"/><stop offset="1" stop-color="#f9b233"/></linearGradient><linearGradient id="Degradado_sin_nombre_160" x1="186.5" y1="440.22" x2="217.32" y2="440.22" gradientTransform="matrix(-0.82, 0.02, 0.03, 1, 965.63, 136.91)" gradientUnits="userSpaceOnUse"><stop offset="0" stop-color="#fff"/><stop offset="0.99" stop-color="#f39200"/></linearGradient><linearGradient id="Degradado_sin_nombre_137-7" x1="190.35" y1="439.4" x2="213.46" y2="439.4" gradientTransform="matrix(-0.82, 0.02, 0.03, 1, 965.63, 136.91)" xlink:href="#Degradado_sin_nombre_137"/><linearGradient id="Degradado_sin_nombre_152-2" x1="613.86" y1="688.78" x2="637.43" y2="688.78" gradientTransform="translate(-119.09 -8.31) rotate(-6.36)" xlink:href="#Degradado_sin_nombre_152"/><linearGradient id="Degradado_sin_nombre_137-8" x1="614.76" y1="688.79" x2="634.58" y2="688.79" gradientTransform="translate(-119.09 -8.31) rotate(-6.36)" xlink:href="#Degradado_sin_nombre_137"/><linearGradient id="Degradado_sin_nombre_156" x1="613.74" y1="688.84" x2="637.32" y2="688.84" gradientTransform="translate(-119.09 -8.31) rotate(-6.36)" gradientUnits="userSpaceOnUse"><stop offset="0" stop-color="#fff"/><stop offset="1" stop-color="#fff" stop-opacity="0"/></linearGradient><linearGradient id="Degradado_sin_nombre_160-2" x1="613.74" y1="688.84" x2="637.32" y2="688.84" gradientTransform="translate(-119.09 -8.31) rotate(-6.36)" xlink:href="#Degradado_sin_nombre_160"/><linearGradient id="Degradado_sin_nombre_152-3" x1="256.28" y1="687.97" x2="279.86" y2="687.97" gradientTransform="matrix(-0.99, 0.11, 0.11, 0.99, 734.1, -102.48)" xlink:href="#Degradado_sin_nombre_152"/><linearGradient id="Degradado_sin_nombre_137-9" x1="257.18" y1="687.97" x2="277" y2="687.97" gradientTransform="matrix(-0.99, 0.11, 0.11, 0.99, 734.1, -102.48)" xlink:href="#Degradado_sin_nombre_137"/><linearGradient id="Degradado_sin_nombre_156-2" x1="256.17" y1="688.02" x2="279.75" y2="688.02" gradientTransform="matrix(-0.99, 0.11, 0.11, 0.99, 734.1, -102.48)" xlink:href="#Degradado_sin_nombre_156"/><linearGradient id="Degradado_sin_nombre_160-3" x1="256.17" y1="688.02" x2="279.75" y2="688.02" gradientTransform="matrix(-0.99, 0.11, 0.11, 0.99, 734.1, -102.48)" xlink:href="#Degradado_sin_nombre_160"/><linearGradient id="Degradado_sin_nombre_137-10" x1="583.63" y1="709.03" x2="632.24" y2="709.03" gradientTransform="translate(-119.09 -8.31) rotate(-6.36)" xlink:href="#Degradado_sin_nombre_137"/><linearGradient id="Degradado_sin_nombre_137-11" x1="583.8" y1="715.38" x2="632.09" y2="715.38" gradientTransform="translate(-119.09 -8.31) rotate(-6.36)" xlink:href="#Degradado_sin_nombre_137"/><linearGradient id="Degradado_sin_nombre_137-12" x1="583.35" y1="715.45" x2="632.54" y2="715.45" gradientTransform="translate(-119.09 -8.31) rotate(-6.36)" xlink:href="#Degradado_sin_nombre_137"/><linearGradient id="Degradado_sin_nombre_137-13" x1="583.89" y1="714.72" x2="632.17" y2="714.72" gradientTransform="translate(-119.09 -8.31) rotate(-6.36)" xlink:href="#Degradado_sin_nombre_137"/><linearGradient id="Degradado_sin_nombre_137-14" x1="585.43" y1="712.75" x2="631.85" y2="712.75" gradientTransform="translate(-119.09 -8.31) rotate(-6.36)" xlink:href="#Degradado_sin_nombre_137"/><linearGradient id="Degradado_sin_nombre_137-15" x1="583.97" y1="715.78" x2="632.03" y2="715.78" gradientTransform="translate(-119.09 -8.31) rotate(-6.36)" xlink:href="#Degradado_sin_nombre_137"/><linearGradient id="Degradado_sin_nombre_137-16" x1="583.61" y1="713.74" x2="632.22" y2="713.74" gradientTransform="translate(-119.09 -8.31) rotate(-6.36)" xlink:href="#Degradado_sin_nombre_137"/><linearGradient id="Degradado_sin_nombre_152-4" x1="568.48" y1="707.51" x2="644.2" y2="707.51" gradientTransform="translate(-119.09 -8.31) rotate(-6.36)" xlink:href="#Degradado_sin_nombre_152"/><linearGradient id="Degradado_sin_nombre_152-5" x1="588.32" y1="717.16" x2="616.48" y2="717.16" gradientTransform="translate(-119.09 -8.31) rotate(-6.36)" xlink:href="#Degradado_sin_nombre_152"/><linearGradient id="Degradado_sin_nombre_152-6" x1="568.74" y1="715.52" x2="628.65" y2="715.52" gradientTransform="translate(-119.09 -8.31) rotate(-6.36)" xlink:href="#Degradado_sin_nombre_152"/><linearGradient id="Degradado_sin_nombre_152-7" x1="451.86" y1="709.77" x2="635.04" y2="709.77" gradientTransform="translate(-119.09 -8.31) rotate(-6.36)" xlink:href="#Degradado_sin_nombre_152"/><linearGradient id="Degradado_sin_nombre_152-8" x1="583.63" y1="713.47" x2="632.22" y2="713.47" gradientTransform="translate(-119.09 -8.31) rotate(-6.36)" xlink:href="#Degradado_sin_nombre_152"/><linearGradient id="Degradado_sin_nombre_137-17" x1="583.67" y1="708.51" x2="632.29" y2="708.51" gradientTransform="translate(-119.09 -8.31) rotate(-6.36)" xlink:href="#Degradado_sin_nombre_137"/><linearGradient id="Degradado_sin_nombre_137-18" x1="583.63" y1="708.51" x2="632.24" y2="708.51" gradientTransform="translate(-119.09 -8.31) rotate(-6.36)" xlink:href="#Degradado_sin_nombre_137"/><linearGradient id="Degradado_sin_nombre_160-4" x1="539.5" y1="632.51" x2="561.85" y2="630.02" gradientTransform="matrix(1, 0, 0, 1, 0, 0)" xlink:href="#Degradado_sin_nombre_160"/><linearGradient id="Degradado_sin_nombre_160-5" x1="565.34" y1="637.57" x2="568.8" y2="637.18" gradientTransform="matrix(1, 0, 0, 1, 0, 0)" xlink:href="#Degradado_sin_nombre_160"/><linearGradient id="Degradado_sin_nombre_160-6" x1="568.07" y1="634.64" x2="580.78" y2="633.23" gradientTransform="matrix(1, 0, 0, 1, 0, 0)" xlink:href="#Degradado_sin_nombre_160"/><linearGradient id="Degradado_sin_nombre_160-7" x1="580.81" y1="624.76" x2="587.61" y2="624" gradientTransform="matrix(1, 0, 0, 1, 0, 0)" xlink:href="#Degradado_sin_nombre_160"/><linearGradient id="Degradado_sin_nombre_160-8" x1="558.6" y1="630.56" x2="562.85" y2="630.09" gradientTransform="matrix(1, 0, 0, 1, 0, 0)" xlink:href="#Degradado_sin_nombre_160"/><linearGradient id="Degradado_sin_nombre_160-9" x1="578.72" y1="626" x2="582.01" y2="625.64" gradientTransform="matrix(1, 0, 0, 1, 0, 0)" xlink:href="#Degradado_sin_nombre_160"/><linearGradient id="Degradado_sin_nombre_160-10" x1="551.38" y1="631.26" x2="556.04" y2="630.74" gradientTransform="matrix(1, 0, 0, 1, 0, 0)" xlink:href="#Degradado_sin_nombre_160"/><linearGradient id="Degradado_sin_nombre_160-11" x1="564.81" y1="630.68" x2="570.78" y2="630.02" gradientTransform="matrix(1, 0, 0, 1, 0, 0)" xlink:href="#Degradado_sin_nombre_160"/><linearGradient id="Degradado_sin_nombre_152-9" x1="603.19" y1="697.98" x2="614.65" y2="697.98" gradientTransform="translate(-119.09 -8.31) rotate(-6.36)" xlink:href="#Degradado_sin_nombre_152"/><linearGradient id="Degradado_sin_nombre_160-12" x1="603.19" y1="697.98" x2="614.65" y2="697.98" gradientTransform="translate(-119.09 -8.31) rotate(-6.36)" xlink:href="#Degradado_sin_nombre_160"/><linearGradient id="Degradado_sin_nombre_137-19" x1="604.63" y1="697.67" x2="613.22" y2="697.67" gradientTransform="translate(-119.09 -8.31) rotate(-6.36)" xlink:href="#Degradado_sin_nombre_137"/><linearGradient id="Degradado_sin_nombre_7-3" x1="391.69" y1="595.43" x2="417.03" y2="598.75" xlink:href="#Degradado_sin_nombre_7"/><linearGradient id="Degradado_sin_nombre_17-4" x1="336.26" y1="559.71" x2="360.79" y2="559.71" gradientTransform="translate(131.12 -2.98) rotate(7.46)" xlink:href="#Degradado_sin_nombre_17"/><linearGradient id="Degradado_sin_nombre_137-20" x1="336.1" y1="556.76" x2="359.57" y2="556.76" gradientTransform="translate(131.12 -2.98) rotate(7.46)" xlink:href="#Degradado_sin_nombre_137"/><linearGradient id="Degradado_sin_nombre_7-4" x1="378.32" y1="593.58" x2="352.98" y2="590.26" xlink:href="#Degradado_sin_nombre_7"/><linearGradient id="Degradado_sin_nombre_17-5" x1="953.06" y1="558.89" x2="977.59" y2="558.89" gradientTransform="matrix(-0.99, -0.13, -0.13, 0.99, 1395.69, 163.43)" xlink:href="#Degradado_sin_nombre_17"/><linearGradient id="Degradado_sin_nombre_137-21" x1="952.9" y1="555.94" x2="976.39" y2="555.94" gradientTransform="matrix(-0.99, -0.13, -0.13, 0.99, 1395.69, 163.43)" xlink:href="#Degradado_sin_nombre_137"/><linearGradient id="Degradado_sin_nombre_152-10" x1="211.72" y1="528.17" x2="226.89" y2="528.17" gradientTransform="matrix(0.8, 0.19, -0.24, 0.97, 333.03, 52.62)" xlink:href="#Degradado_sin_nombre_152"/><linearGradient id="Degradado_sin_nombre_160-13" x1="211.72" y1="528.17" x2="226.89" y2="528.17" gradientTransform="matrix(0.8, 0.19, -0.24, 0.97, 333.03, 52.62)" xlink:href="#Degradado_sin_nombre_160"/><linearGradient id="Degradado_sin_nombre_137-22" x1="213.61" y1="527.76" x2="224.99" y2="527.76" gradientTransform="matrix(0.8, 0.19, -0.24, 0.97, 333.03, 52.62)" xlink:href="#Degradado_sin_nombre_137"/><linearGradient id="Degradado_sin_nombre_137-23" x1="292.56" y1="591.88" x2="370.61" y2="591.88" gradientTransform="translate(134.71 -4.09) rotate(7.89)" xlink:href="#Degradado_sin_nombre_137"/><linearGradient id="Degradado_sin_nombre_17-6" x1="292.56" y1="591.88" x2="370.61" y2="591.88" gradientTransform="translate(134.71 -4.09) rotate(7.89)" xlink:href="#Degradado_sin_nombre_17"/><linearGradient id="Degradado_sin_nombre_137-25" x1="292.56" y1="591.71" x2="370.61" y2="591.71" gradientTransform="translate(134.71 -4.09) rotate(7.89)" xlink:href="#Degradado_sin_nombre_137"/><linearGradient id="Degradado_sin_nombre_7-5" x1="268.43" y1="577.41" x2="305.6" y2="574.33" xlink:href="#Degradado_sin_nombre_7"/><linearGradient id="Degradado_sin_nombre_17-7" x1="354.04" y1="482.37" x2="389.84" y2="482.37" gradientTransform="translate(-123.99 126.21) rotate(-4.74)" xlink:href="#Degradado_sin_nombre_17"/><linearGradient id="Degradado_sin_nombre_137-27" x1="353.81" y1="478.06" x2="388.08" y2="478.06" gradientTransform="translate(-123.99 126.21) rotate(-4.74)" xlink:href="#Degradado_sin_nombre_137"/><linearGradient id="Degradado_sin_nombre_7-6" x1="248.81" y1="579.13" x2="211.65" y2="582.21" xlink:href="#Degradado_sin_nombre_7"/><linearGradient id="Degradado_sin_nombre_17-8" x1="940.89" y1="482.52" x2="976.68" y2="482.52" gradientTransform="matrix(-1, 0.08, 0.08, 1, 1146.44, 20.85)" xlink:href="#Degradado_sin_nombre_17"/><linearGradient id="Degradado_sin_nombre_137-28" x1="940.66" y1="478.21" x2="974.91" y2="478.21" gradientTransform="matrix(-1, 0.08, 0.08, 1, 1146.44, 20.85)" xlink:href="#Degradado_sin_nombre_137"/><linearGradient id="Degradado_sin_nombre_137-29" x1="291.46" y1="520.97" x2="394.23" y2="520.97" gradientTransform="translate(-123.99 126.21) rotate(-4.74)" xlink:href="#Degradado_sin_nombre_137"/><linearGradient id="Degradado_sin_nombre_137-30" x1="290.36" y1="519.99" x2="396.51" y2="519.99" gradientTransform="translate(-123.99 126.21) rotate(-4.74)" xlink:href="#Degradado_sin_nombre_137"/><linearGradient id="Degradado_sin_nombre_17-9" x1="291.46" y1="521.03" x2="350.08" y2="521.03" gradientTransform="translate(-123.99 126.21) rotate(-4.74)" xlink:href="#Degradado_sin_nombre_17"/><linearGradient id="Degradado_sin_nombre_19-3" x1="350.09" y1="524.59" x2="366.82" y2="524.59" gradientTransform="translate(-123.99 126.21) rotate(-4.74)" xlink:href="#Degradado_sin_nombre_19"/><linearGradient id="Degradado_sin_nombre_19-4" x1="366.81" y1="518.02" x2="394.23" y2="518.02" gradientTransform="translate(-123.99 126.21) rotate(-4.74)" xlink:href="#Degradado_sin_nombre_19"/><linearGradient id="Degradado_sin_nombre_137-31" x1="291.46" y1="519.04" x2="394.23" y2="519.04" gradientTransform="translate(-123.99 126.21) rotate(-4.74)" xlink:href="#Degradado_sin_nombre_137"/><linearGradient id="Degradado_sin_nombre_152-11" x1="216.49" y1="457.08" x2="238.62" y2="457.08" gradientTransform="matrix(0.82, 0.02, -0.03, 1, 85.43, 136.91)" xlink:href="#Degradado_sin_nombre_152"/><linearGradient id="Degradado_sin_nombre_160-14" x1="216.49" y1="457.08" x2="238.62" y2="457.08" gradientTransform="matrix(0.82, 0.02, -0.03, 1, 85.43, 136.91)" xlink:href="#Degradado_sin_nombre_160"/><linearGradient id="Degradado_sin_nombre_137-33" x1="219.26" y1="456.49" x2="235.85" y2="456.49" gradientTransform="matrix(0.82, 0.02, -0.03, 1, 85.43, 136.91)" xlink:href="#Degradado_sin_nombre_137"/></defs><title>Asset 8</title><g class="cls-1"><g id="Layer_2" data-name="Layer 2"><g id="OBJECTS"><path d="M68.43,532.48s98.39-86.65,176,17.06,113.46,36.31,159.71,75.63,58.9-40.66,130.42,1.72c80.58,47.75,77-1.72,139.67,9.52s116.4-36.52,155.19-5.62,38.8-103.92,59.69-73S938.39,938.7,938.39,938.7l-861-56.17Z"/><path class="cls-2" d="M1014.68,353.33c5.47-5.4,7.47-.2,11.71,6.23L1010.34,357a36.68,36.68,0,0,1,12.44,9.49c-4.46,2.45-8.95-2.64-13.48-4.75-7.42-3.45-15.94,1.51-22.24,7.22s-12.5,12.65-20.54,14l9.92,9.88a22.22,22.22,0,0,1,9.64-13.37,26.11,26.11,0,0,1-4.74,13.38,57.47,57.47,0,0,0,21.31-4.42,30.26,30.26,0,0,1-16.59,8.46l15.44,5.13a54.45,54.45,0,0,1-24.43-4.33c-8.24-3.52-18.6-8.7-25-1.76-5.51,6-2.91,16.26-5.72,24.17-1.23,3.46-3.53,6.53-4,10.2-.43,3.82,1.24,7.44,2.53,11,6.69,18.53,2.4,41.4-10.48,55.89-8.62,9.69-20.22,15.42-29.91,23.82-14.9,12.92-24.76,31.81-30.57,51.56s-7.88,40.48-9.56,61.07c-.57,6.88-1.54,14.67-6.69,18.75-6.27,5-15.26,1.67-22.08-.44a6.43,6.43,0,0,1-4.39-4.89c-.87-4.27,2.92-6.55,5.22-9.46,5.55-7,2.32-17.92,4.91-26.74,1.87-6.36,6.82-11.75,6.92-18.4.06-4.62-2.28-8.79-3.33-13.25-2.65-11.28,3.07-23.47.83-34.86-1-5.12-3.62-10.17-2.48-15.3,2.07-9.31,14.2-11.21,18.71-19.47,2.79-5.11,2-11.88-1.06-16.73s-7.85-8-12.88-10c-5.58-2.24-11.86-3.48-16-8.13-6.46-7.28-5.54-20.65-13.26-26.27-4.87-3.55-11.49-2.58-16.86-5.14-7.24-3.45-10.71-12.38-16.64-18.07-9-8.67-22.34-5.95-34.42-4.64-11.9,1.29-22.89,4.69-33.13,15.74C705.07,450,694,446.89,682.74,442.34c3.86-2.36,12.36,2,16.76,1.34,6.13-.95,8.24-6.73,13.69-9.86,5-2.89,8.84-7.78,13.51-11.32,7.89-6,17.66-7.76,27-9.93,4.89-1.13,10.65-3.33,11.81-8.66a39.7,39.7,0,0,0-27.88-.63c-10,3.5-18.86-4.61-22.3-14.42,3.93,2.45,5.58,8.69,9.88,10.25,4.77,1.72,12.22-1.33,17.22-.74a64.59,64.59,0,0,0,20-.73l-11.54-13.29c-2.22-2.56-3.1-5.88-5.32-8.44-3.77-4.34-6.19-6-10-10.33,2.88,1,15.09,12.16,20.74,20.17,6.74,9.56,11.62,8.83,18.89,17.89a22.29,22.29,0,0,0,.35-7.59c-.29-2.52,1.54-7.55.74-10s-4.3-2.49-5.29-4.89c4-.57,7.14,3.68,8.12,7.91s.61,8.77,1.88,12.9c3.78,12.3,19.18,14.77,26.13,25.23,2.63,4,4.07,9.09,8.78,10.82a4.75,4.75,0,0,0,5.8-2.14c1.24-2.18.35-4.3-.52-6.22-4.16-9.25-5.93-20.79-11.21-29.32-8.22-13.28-15.38-26.15-23.71-39.1,4.18,1.18,5.77,7.22,8.71,10,2.31,2.18,8.94,5.87,8.63,9.33-.75,8.47,5.27,6.94,7.51,13.92,1-4.55,1.26-9.66,2.84-13.53,2.11-5.13,4.12-4.55,8.38-14.45,2.09.83-.28,3.87-1.27,6.09s-.11,4-1.63,5.79c-4.87,5.83-5.92,14.54-4.38,22.17s5.3,14.42,9.11,21c4.81,8.28,10.34,16.91,18.77,20.27,4.21,1.68,9.56,2.49,11.3,7s-1.51,10.4,3,14.29c3.39,2.92,8.33,2.08,11.24-1.51,5.78-7.13,3.61-16.3,2.25-24.68-.61-3.71-1.08-7.59-2.94-10.73-2.05-3.45-6.32-4.5-8.68-7.69-8.09-10.91-22.33-21.26-31.24-24.21,7.94,1.13,13.77,6.17,18.05,7.49,3.85,1.18,10.31,6.87,10.4,9s6.67,4.75,10.12,6.94c-2.76-12.45-13.37-20.48-20-31-10.81-17.26-12.06-43.08-28.92-53-9.85-5.8-21.93-3.93-33.08-1.91-5.89,1.07-12-1.54-17.66.7a108.33,108.33,0,0,1-20.45,6.21,144.45,144.45,0,0,1,48.75-13.85c-.31-8-11.3-11.71-18.49-10.41s-11.68,3.6-19.79.72c7.46,1.18,14.94-1.81,22.44-2.86s16.43.74,19.8,8.07c.83-6.93,5.16-14.57,4.2-21.05-.29-1.92-1.91-6.61-5.87-7.18,3.69-2.58,8,4.68,7.58,9.42s-3,9.29-2.38,14c1.15,8,10.19,10.42,17.83,10.85a2,2,0,0,0,2-1.77c.46-4.51-4.69-12.53-5.79-16.46-.62-2.2,3.86,5.53,2.31,3.95,8.45,4.29,11.31,14.4,3.55,20.31,6.93,4,14.52,8.91,16.47,17.26.76,3.23.57,6.72,1.68,9.82,1.32,3.68,15.24,10,16.3,13.83,8.32,29.68,9.89,10,19.84,16.88L870,360.74c-1.27-5.46-2.94-11.51-7.48-14.13-4-2.34-8.95-1.15-13.54-1s-10.11-1.88-10.87-6.83c2.85,1.84,4.58,4.13,7.84,4.83,5.08,1.1,10.26-.67,15.16-3a15.46,15.46,0,0,0,7.81-8.15c1.44-3.54,1.6-7.39-.42-10.72a12.6,12.6,0,0,0-16.24-4.84c-2.1,1.08-3.94,2.78-6.14,3.58-4.82,1.75-10.14-1.37-13-5.88s-3.79-10.13-4.66-15.56c3.44,2,4.35,6.75,5.49,10.82s3.9,8.6,7.77,8,5.56-5.71,8.71-8.27c5.22-4.25,12.42-.46,17.79,3.35v-1.29A15.78,15.78,0,0,0,862.42,299h0c2.66.12,4.72,1.07,6.06,5.63,1.19,4,5.29,5.1,4.47,9.32,1.48-2.05-.67,3.19.2,5.58s5.22,1,3.4,2.66c1.75-1.68,1.05,3,.81,5.49s1.41,2.52.13,4.65A17.86,17.86,0,0,0,876.38,348c1.88.41,7-8.43,5.33-2.34-1,4.19-2.76,7.69-3.72,11.88l12.57-11.84c2.48-2.34,5.07-4.82,6.25-8.16,1.1-3.11.84-6.54.64-9.84-.51-8.16,1.31-19,8.73-20.19a45.37,45.37,0,0,0-5.31,28.36,10.59,10.59,0,0,0,7.6-4.11,196.05,196.05,0,0,0-20.16,27.08,26.76,26.76,0,0,0-3,5.93,29,29,0,0,0-.81,9.07q.57,38,1.15,75.95c.1,6.61.2,13.27,1.39,19.72,1.32,7.15,3.95,14,4.89,21.19a53.37,53.37,0,0,1-2.55,23.71,4.44,4.44,0,0,0,.68,4.21c1.73,2.08,4,.65,5.81-.7,9.5-7.36,19.12-14.82,26.65-24.55s12.86-22.11,12.19-34.72c-.58-10.81-5.45-21.8-2-32.05,2.09-6.28,7.2-11.84,6.51-18.43-.27-2.56-1.44-5-1.09-7.6.44-3.27,3.14-5.55,5.62-7.46l35.57-27.39c8.86-6.82,20.41-13.87,29.63-8q1.93-3.71,3.88-7.41"/><path class="cls-2" d="M489.68,229.79c-7.39,2-6.61-3.51-7.21-11.21l12.74,10.19A37.24,37.24,0,0,1,489,214.36c5.07,0,6.53,6.71,9.47,10.78,4.8,6.67,14.63,6.54,22.9,4.67s17-4.89,24.67-2.07l-3.88-13.51a21.89,21.89,0,0,1-14.87,6.92,25.79,25.79,0,0,1,10.6-9.34,57.44,57.44,0,0,0-20.73-6.65,30.22,30.22,0,0,1,18.57.79l-11-12.08a55.16,55.16,0,0,1,19.23,15.81c5.49,7.14,12,16.77,20.94,13.86,7.72-2.52,10.41-12.76,16.69-18.28,2.75-2.41,6.24-4,8.38-7s2.51-7.1,3.11-10.83c3.12-19.47,17.92-37.32,36.18-43.61,12.21-4.21,25.1-3.5,37.61-6.05,19.26-3.94,37-15.56,51.63-29.93s26.45-31.45,37.87-48.59c3.82-5.72,8.44-12,14.91-13.07,7.88-1.24,14.13,6.07,19,11.27a6.5,6.5,0,0,1,1.47,6.43c-1.3,4.16-5.71,4.28-9.13,5.69C774.37,73,771.93,84.1,765.4,90.52c-4.7,4.63-11.63,6.89-14.93,12.65-2.3,4-2.27,8.79-3.51,13.21-3.14,11.15-14,19-17.58,30-1.59,5-1.76,10.65-5.24,14.57-6.31,7.11-17.81,2.79-25.74,7.78-4.9,3.08-7.45,9.4-7.16,15.11s3,10.85,6.39,15.09c3.79,4.71,8.67,8.88,10,15,2.12,9.53-5.15,20.75-1.13,29.46,2.54,5.5,8.78,7.91,12.23,12.8,4.65,6.57,3.36,16.08,5.78,24,3.7,12,16.63,16.21,27.8,21,11,4.73,22.24,7.19,36.53,2.59,17.76-5.72,25.89,2.4,33.56,11.95-4.51.16-9.81-7.86-14-9.43-5.81-2.19-10.45,1.81-16.72,1.86-5.78.05-11.48,2.43-17.27,3.22-9.77,1.33-19.15-1.93-28.35-4.64-4.82-1.42-10.91-2.34-14.5,1.74a40,40,0,0,0,24,14.29c10.4,1.86,14.23,13.32,12.49,23.58-2.25-4.08-.67-10.34-3.67-13.82-3.33-3.85-11.3-4.85-15.39-7.84a64.92,64.92,0,0,0-17.8-9.22q1.83,8.65,3.64,17.29c.7,3.32-.13,6.66.57,10,1.18,5.64,2.5,8.27,3.69,13.92-2-2.31-7.29-18.05-8.35-27.83-1.26-11.66-5.86-13.43-7.83-24.92a22.42,22.42,0,0,0-4,6.45c-1,2.35-5,5.83-5.49,8.38s2.54,4.3,2.25,6.88c-3.74-1.46-4.46-6.74-3.26-10.9s3.7-8,4.59-12.19c2.65-12.6-9.59-22.34-10.6-34.9-.38-4.75.85-9.94-2.42-13.77a4.75,4.75,0,0,0-6.1-1c-2.15,1.29-2.39,3.58-2.56,5.68-.85,10.13-4.88,21.07-4.4,31.12.75,15.63.78,30.4,1.79,45.81-3.08-3.09-1.55-9.15-2.77-13-1-3-5-9.53-3-12.4,4.76-7-1.24-8.65.18-15.84-3.1,3.45-5.76,7.8-9,10.39-4.32,3.45-5.79,1.95-14.3,8.49-1.42-1.75,2.12-3.24,4-4.69s2-3.4,4.23-4.25c7.07-2.69,12.19-9.78,14.54-17.19s2.35-15.19,2.19-22.79c-.19-9.6-.84-19.85-6.58-26.94-2.86-3.54-7.14-6.89-6.46-11.69s6.34-8.33,4.27-14c-1.55-4.22-6.26-5.91-10.54-4.22-8.49,3.37-11,12.45-13.9,20.43-1.26,3.54-2.73,7.15-2.62,10.82.12,4,3.34,7,3.86,11,1.77,13.5,9.19,29.55,15.55,36.52-6.38-4.9-9-12.18-12.13-15.43-2.79-2.92-5.68-11.07-4.74-12.94s-3.53-7.44-5.48-11.05c-3.62,12.23,1.76,24.46,2.42,36.89,1.09,20.4-10.31,43.54-.39,60.51,5.79,9.91,17.24,14.24,28,18,5.65,2,9.76,7.27,15.75,8.09a108.53,108.53,0,0,1,20.85,4.66,144.53,144.53,0,0,1-49.24-11.94c-3.58,7.09,4.2,15.79,11.1,18.2s11.93,2.61,17.61,9.12c-5.93-4.7-13.91-5.78-21-8.56s-14-8.74-13.38-16.8c-4.07,5.64-11.54,10.17-13.84,16.3-.68,1.81-1.54,6.71,1.65,9.16-4.47.43-4.76-8.05-2.06-12s7.16-6.6,8.84-11c2.88-7.58-3.85-14.12-10.32-18.25a1.92,1.92,0,0,0-2.59.56c-2.58,3.71-2,13.25-2.9,17.22-.53,2.23-.7-6.73-.11-4.59-5.3-7.9-2.91-18.13,6.72-19.47-4.11-6.92-8.36-14.94-6-23.19.91-3.19,2.76-6.14,3.28-9.39.63-3.87-8.44-16.27-7.53-20.1,7.09-30-3.79-13.61-9.15-24.51q-4.14,14.52-8.26,29c-1.54,5.39-3,11.5-.31,16,2.39,4,7.26,5.41,11.32,7.57s7.92,6.63,6.19,11.32c-1.6-3-2-5.86-4.51-8.08-3.91-3.47-9.28-4.47-14.67-4.88a15.34,15.34,0,0,0-10.76,3.26c-3,2.38-5,5.67-4.81,9.57.25,6.5,5.56,12,11.83,12.22,2.35.09,4.78-.48,7.09-.09,5.05.85,8.19,6.18,8.49,11.53s-1.59,10.7-3.46,15.88c-2-3.42-.53-8,.45-12.16s.75-9.42-2.92-10.81-7.61,2.25-11.6,2.93c-6.61,1.13-11.06-5.72-13.91-11.69l-.63,1.12a15.9,15.9,0,0,0-1,13.9h0c-2.26-1.42-3.6-3.26-2.56-7.9.92-4.12-2.15-7.07.6-10.34-2.28,1.05,2.13-2.46,2.53-5s-4.09-3.43-1.68-4c-2.34.59.51-3.12,1.94-5.2s0-2.89,2.14-4.12a17.72,17.72,0,0,0,8.55-13.14c-1.44-1.28-10.19,3.91-5.78-.58,2.86-3.18,6.13-5.35,9-8.53l-16.69,4.13c-3.31.82-6.76,1.71-9.41,4-2.46,2.17-3.89,5.3-5.31,8.28-3.51,7.37-10.34,15.93-17.39,13.32a45,45,0,0,0,18.35-22.14,10.52,10.52,0,0,0-8.62-.16,193.13,193.13,0,0,0,30.7-13.7,26.1,26.1,0,0,0,5.45-3.71,28.68,28.68,0,0,0,5.1-7.52l35.73-66.85c3.11-5.82,6.23-11.67,8.32-17.9,2.3-6.88,3.3-14.12,6-20.89a52.91,52.91,0,0,1,13.7-19.44,4.45,4.45,0,0,0,1.45-4c-.51-2.66-3.23-2.57-5.42-2.25-11.85,1.74-23.85,3.52-35.12,8.29s-21.92,13-27.43,24.29c-4.73,9.73-5.79,21.71-13.73,29-4.86,4.45-12,6.78-14.59,12.88-1,2.37-1.18,5.1-2.73,7.17-2,2.63-5.42,3.29-8.51,3.74l-44.28,6.37c-11,1.59-24.53,2-29.74-7.62l-7,4.56"/><path class="cls-2" d="M121.65,253.13c-6.61,3.89-7.29-1.65-9.85-8.93l14.94,6.49A37,37,0,0,1,117,238.42c4.92-1.28,8,4.77,11.92,7.93,6.36,5.17,15.82,2.46,23.32-1.52s15.18-9.19,23.29-8.47l-7.23-12a22,22,0,0,1-12.58,10.59,26,26,0,0,1,7.83-11.8,57.08,57.08,0,0,0-21.73-1A30.13,30.13,0,0,1,159.92,218l-13.73-8.78a54.68,54.68,0,0,1,22.64,10.22c7.15,5.45,15.94,13,23.8,7.87,6.8-4.46,6.76-15.05,11.4-22,2-3.05,5-5.47,6.29-8.92s.6-7.52.22-11.27c-2-19.63,7.68-40.74,23.68-51.62,10.71-7.27,23.34-10,34.76-15.72,17.58-8.86,31.72-24.75,42.13-42.46S328.54,38,335.16,18.46c2.21-6.54,5-13.85,11-16.54,7.28-3.27,15.2,2.14,21.3,5.87a6.51,6.51,0,0,1,3.08,5.83c-.19,4.35-4.42,5.63-7.35,7.89C356.12,27,356.62,38.31,352,46.22c-3.35,5.71-9.45,9.71-11.16,16.14-1.18,4.47.08,9.09,0,13.67-.15,11.59-8.66,22-9.23,33.6-.26,5.21,1,10.75-1.3,15.44-4.26,8.53-16.48,7.38-22.85,14.28-3.95,4.27-4.77,11-3,16.48s5.68,9.68,10.07,12.88c4.87,3.55,10.66,6.3,13.54,11.83,4.5,8.64.38,21.39,6.5,28.74,3.87,4.64,10.52,5.34,15.11,9.15,6.18,5.13,7.39,14.64,11.76,21.62,6.66,10.63,20.23,11.28,32.25,13,11.86,1.69,23.33,1.11,35.94-7.09,15.68-10.19,25.63-4.48,35.49,2.73-4.32,1.33-11.5-5-15.93-5.44-6.18-.59-9.62,4.5-15.67,6.19-5.57,1.56-10.45,5.37-15.84,7.65-9.09,3.85-19,3.17-28.57,3-5-.1-11.13.61-13.55,5.49A39.76,39.76,0,0,0,402.4,273c10.52-.93,17.18,9.12,18.14,19.48-3.22-3.34-3.31-9.8-7.1-12.37-4.21-2.85-12.17-1.72-16.88-3.53A64.52,64.52,0,0,0,377,272.37q4,7.86,8,15.73c1.54,3,1.59,6.47,3.13,9.49,2.6,5.14,4.55,7.34,7.15,12.47-2.54-1.69-11.69-15.51-15.23-24.67-4.22-10.93-9.13-11.42-14-22a22.4,22.4,0,0,0-2.17,7.28c-.33,2.52-3.32,6.94-3.14,9.53s3.56,3.48,3.94,6.05c-4-.42-6-5.33-6-9.67s1.53-8.66,1.3-13c-.69-12.87-15-19.06-19.24-30.92-1.59-4.48-1.74-9.81-5.89-12.65a4.74,4.74,0,0,0-6.14.64c-1.74,1.81-1.38,4.09-1,6.16,1.8,10,.72,21.62,3.78,31.2,4.76,14.9,8.59,29.15,13.53,43.76-3.76-2.17-3.84-8.42-6-11.83-1.71-2.68-7.25-7.9-6.11-11.18,2.79-8-3.43-8-3.91-15.34-2.11,4.14-3.56,9.05-6,12.41-3.29,4.46-5.09,3.39-11.62,11.95-1.83-1.32,1.2-3.69,2.7-5.6s1.07-3.81,3-5.21c6.13-4.45,9.25-12.64,9.61-20.42S325,241.29,322.86,234c-2.67-9.21-5.94-18.94-13.3-24.29-3.68-2.66-8.67-4.77-9.25-9.58s4-9.71.52-14.6c-2.58-3.67-7.57-4.07-11.27-1.3-7.33,5.48-7.44,14.91-8.14,23.37-.32,3.75-.8,7.62.25,11.13,1.15,3.85,5,5.92,6.56,9.6,5.19,12.57,16.5,26.12,24.43,31.18-7.42-3.06-11.86-9.38-15.69-11.71-3.45-2.09-8.34-9.2-7.92-11.25s-5.32-6.26-8.13-9.23c-.34,12.75,8,23.16,11.85,35C299.08,281.71,294,307,308,320.82c8.16,8.05,20.33,9.22,31.62,10,6,.41,11.31,4.46,17.3,3.67a108.5,108.5,0,0,1,21.33-1,144.22,144.22,0,0,1-50.62,1.42c-1.63,7.77,8.13,14.13,15.41,14.65s12.19-.61,19.36,4.18c-6.94-3-14.92-1.93-22.45-2.76s-15.75-4.77-17.25-12.71c-2.48,6.51-8.52,12.85-9.16,19.37-.19,1.94.25,6.89,4,8.42-4.21,1.59-6.68-6.53-5.08-11s5.21-8.26,5.69-13c.83-8.08-7.36-12.62-14.66-14.91a1.93,1.93,0,0,0-2.36,1.22c-1.53,4.26,1.51,13.31,1.63,17.39.07,2.29-2.4-6.31-1.28-4.41-7.16-6.23-7.48-16.74,1.47-20.56-5.75-5.61-11.93-12.23-11.8-20.8.05-3.32,1.08-6.66.75-9.93-.39-3.91-12.35-13.5-12.46-17.44-.89-30.83-7.16-12.14-15.16-21.25l-.49,30.2c-.09,5.6.07,11.88,3.83,15.54,3.35,3.26,8.41,3.32,12.89,4.34s9.35,4.32,8.89,9.3c-2.32-2.49-3.44-5.13-6.43-6.61-4.67-2.32-10.12-1.88-15.43-.86a15.36,15.36,0,0,0-9.54,6c-2.25,3.08-3.34,6.78-2.19,10.51,1.92,6.21,8.46,10.12,14.58,8.69,2.3-.53,4.49-1.72,6.82-1.95,5.1-.51,9.5,3.82,11.17,8.9s1.22,10.76.75,16.24c-2.85-2.76-2.58-7.62-2.7-11.85s-1.7-9.3-5.6-9.68S274,334.33,270.33,336c-6.09,2.83-12.16-2.62-16.45-7.63l-.32,1.24a15.88,15.88,0,0,0,2.59,13.69h0c-2.54-.77-4.31-2.2-4.5-7-.18-4.21-3.9-6.25-2.08-10.13-1.93,1.61,1.41-2.94,1.15-5.47s-4.83-2.24-2.65-3.41c-2.1,1.19-.3-3.15.54-5.53s-.75-2.79,1-4.54a17.83,17.83,0,0,0,4.87-14.93c-1.73-.86-8.84,6.45-5.74,1,1.95-3.83,4.54-6.78,6.49-10.6l-15,8.37c-3,1.66-6.08,3.43-8,6.38-1.82,2.74-2.4,6.13-3,9.38-1.48,8-5.87,18.1-13.35,17.43a45.27,45.27,0,0,0,12-26.19,10.55,10.55,0,0,0-8.36,2.1,193.55,193.55,0,0,0,26.11-21.29,25.88,25.88,0,0,0,4.31-5,29,29,0,0,0,3-8.59q8.64-37,17.26-73.93c1.51-6.44,3-12.91,3.42-19.47.46-7.26-.45-14.51.39-21.75a53.26,53.26,0,0,1,8.21-22.36,4.48,4.48,0,0,0,.37-4.26c-1.18-2.43-3.78-1.63-5.81-.74-11,4.79-22.13,9.65-31.78,17.22s-17.83,18.28-20.22,30.67c-2.06,10.63,0,22.48-5.79,31.58-3.54,5.58-9.84,9.71-10.76,16.27-.36,2.55.17,5.24-.79,7.64-1.22,3.06-4.39,4.61-7.26,5.85L159,249.8c-10.24,4.44-23.15,8.42-30.68.46q-2.76,3.12-5.54,6.23"/><path class="cls-2" d="M314.56,103.45c-7.15-2.75-3.31-6.76.69-13.35l4.39,15.8A37.24,37.24,0,0,1,323,90.53c4.07,3,1.38,9.3,1.39,14.34,0,8.24,8.05,14,15.82,17.35s16.63,6.13,21.18,12.95l4.72-13.24A21.77,21.77,0,0,1,350,118.72a25.35,25.35,0,0,1,14-1.28,58.07,58.07,0,0,0-12.91-17.66,30.44,30.44,0,0,1,14.57,11.63l-1.87-16.29a55.93,55.93,0,0,1,6.37,24.2c.29,9,0,20.7,8.89,23.63,7.72,2.53,15.85-4.16,24.14-4.91,3.63-.33,7.36.49,10.83-.66s6.17-4.26,8.82-6.93c13.85-13.91,36.21-19.58,54.65-13.86,12.33,3.83,22.35,12,34,17.4,17.87,8.22,39,9.33,59.19,6.37s39.7-9.78,58.92-16.88c6.43-2.37,13.84-4.75,19.67-1.75,7.1,3.67,7.91,13.29,8.87,20.42a6.5,6.5,0,0,1-2.56,6.08c-3.46,2.59-7.1.07-10.69-.82-8.65-2.13-17.09,5.4-26.1,6.73-6.51,1-13.43-1.32-19.45,1.38-4.19,1.89-6.95,5.78-10.52,8.62-9,7.16-22.38,7-31.68,13.87-4.18,3.08-7.63,7.58-12.72,8.69-9.24,2-16-8.29-25.36-9-5.77-.41-11.5,3.2-14.59,8s-3.89,10.55-3.6,16c.33,6,1.85,12.32-.6,18.06-3.83,9-16.24,13.75-18.05,23.18-1.14,6,2.5,11.61,2.46,17.6-.07,8.08-6.64,15-9.26,22.83-4,11.92,4,23,10.28,33.49,6.15,10.36,13.82,19,28.06,23.74,17.7,5.91,19.56,17.3,20.21,29.57-3.74-2.54-3.37-12.17-5.83-15.91-3.43-5.22-9.51-4.73-14.62-8.41-4.7-3.39-10.7-4.83-15.85-7.63-8.68-4.71-14.38-12.91-20.25-20.56-3.07-4-7.47-8.36-12.74-7.18a40.59,40.59,0,0,0,11.13,25.8c7.34,7.67,3.78,19.22-3.6,26.5.55-4.64,5.47-8.77,5.06-13.37-.45-5.09-6.32-10.63-7.89-15.46a66.22,66.22,0,0,0-9.05-18l-7.11,16.14c-1.36,3.11-4,5.32-5.35,8.43-2.32,5.27-2.78,8.18-5.1,13.45-.3-3.06,4.59-18.93,9.43-27.47,5.76-10.18,3.06-14.34,8.15-24.82a22.23,22.23,0,0,0-7,2.87c-2.15,1.33-7.44,1.76-9.32,3.53s-.44,5-2.18,6.9c-2.18-3.39.31-8.09,3.7-10.76s7.64-4.25,10.81-7.14c9.48-8.63,5.23-23.77,11.72-34.54,2.45-4.06,6.46-7.53,6-12.58a4.79,4.79,0,0,0-4.35-4.41c-2.49-.23-4,1.48-5.39,3.08-6.57,7.7-16.2,14.16-21.65,22.58-8.49,13.11-17.06,25.08-25.2,38.14-.69-4.32,4.07-8.32,5.33-12.17,1-3,1.52-10.66,4.76-11.83,7.94-2.86,4-7.74,9.36-12.72-4.52,1-9.21,2.9-13.35,3.07-5.5.23-5.82-1.85-16.51-1.6-.13-2.27,3.6-1.38,6-1.4s3.61-1.56,5.89-.93c7.29,2,15.56-.69,21.77-5.3s10.74-10.9,15-17.15c5.42-7.88,10.86-16.57,10.34-25.71-.26-4.56-1.77-9.8,1.57-13.29s10-3,11.57-8.77c1.2-4.33-1.63-8.5-6.08-9.66-8.83-2.31-16.17,3.54-23.13,8.3-3.08,2.11-6.37,4.17-8.41,7.2-2.24,3.32-1.39,7.67-3.27,11.18-6.41,12-9.75,29.38-8.65,38.78-2.32-7.74-.23-15.21-.85-19.68-.55-4,1.85-12.32,3.69-13.28s1.47-8.12,2-12.19c-10,7.75-12.8,20.84-19.49,31.3-11,17.16-33.67,29.14-35.51,48.74-1.08,11.46,5.67,21.75,12.17,31.12,3.43,4.94,3.67,11.67,8,15.88A109.56,109.56,0,0,1,414,355.4a146.65,146.65,0,0,1-32.92-38.85c-7,3.62-5.77,15.27-1.59,21.31s8.13,9.19,9,17.83c-2.07-7.33-7.9-12.93-12-19.36s-6.23-15.36-1.06-21.53c-6.58,2.15-15.26,1.39-20.68,5-1.61,1.07-5.15,4.52-4,8.4-3.86-2.31.83-9.35,5.29-10.91s9.64-1.1,13.57-3.68c6.75-4.44,5.09-13.72,2.27-20.9a1.93,1.93,0,0,0-2.43-1.07c-4.24,1.47-9.3,9.55-12.36,12.21-1.73,1.49,3.34-5.86,2.58-3.78.3-9.54,8.19-16.4,16.76-11.77.71-8,1.92-17.05,8.61-22.35,2.59-2,5.8-3.34,8.12-5.65,2.76-2.76,2.63-18.18,5.59-20.75,23.19-20.08,4.85-13.25,6.85-25.26L382,232.89c-4.38,3.45-9.12,7.53-9.57,12.78-.41,4.67,2.73,8.68,4.77,12.84s2.54,10.06-1.58,12.83c.45-3.39,1.78-5.93,1.05-9.21-1.15-5.12-4.91-9.12-9-12.65A15.33,15.33,0,0,0,357,245.75c-3.78.17-7.31,1.64-9.46,4.89a12.86,12.86,0,0,0,2.47,16.9c1.86,1.47,4.15,2.45,5.79,4.13,3.6,3.68,3,9.86.17,14.37s-7.52,7.72-12,10.8c.32-4,4.25-6.82,7.43-9.58s6.09-7.17,3.92-10.47-7.46-2.69-11.09-4.51c-6-3-5.62-11.18-4.46-17.7l-1.16.53a15.71,15.71,0,0,0-8.91,10.64h0c-1-2.48-1-4.77,2.52-7.91,3.14-2.79,2.37-7,6.5-8-2.46-.5,3.15-.73,4.94-2.53s-1.31-5.2,1-4.23c-2.24-.9,2.23-2.22,4.59-3s1.68-2.34,4.13-2.07a17.41,17.41,0,0,0,14.56-5.57c-.42-1.89-10.52-2.87-4.34-3.89,4.17-.88,8.07-.7,12.25-1.58l-15.92-6.55c-3.15-1.29-6.47-2.62-10-2.3-3.26.3-6.24,2-9.12,3.55-7.13,3.89-17.63,6.77-21.82.47a44.21,44.21,0,0,0,27.72-7,10.62,10.62,0,0,0-6.88-5.24,191.8,191.8,0,0,0,32.82,7.11,25.8,25.8,0,0,0,6.57.22,28.33,28.33,0,0,0,8.5-3.06l67.8-32.94c5.9-2.86,11.84-5.75,17.15-9.55,5.87-4.21,10.89-9.48,17-13.38A52.2,52.2,0,0,1,512,150.59a4.38,4.38,0,0,0,3.51-2.39c1.14-2.46-1.12-4-3.08-5-10.6-5.62-21.35-11.29-33.25-14.11s-25.29-2.5-36.33,3.41c-9.49,5.07-17.32,14.14-28,15.32-6.52.72-13.66-1.63-19.3,1.77-2.19,1.33-3.93,3.43-6.38,4.19-3.12,1-6.31-.55-9.07-2l-39.55-21.09c-9.85-5.25-21-12.88-19.64-23.79l-8.29-.44"/><path class="cls-3" d="M401.53,623.47c1.87-3.25,14.44-14.05-3.12-62-1.67,1.3,21.61,18.79,13.26,62,.54-1.66,4-47,21.18-54.87-.94.66-19,32.7-11.59,55.52Q411.41,623.87,401.53,623.47Z"/><path class="cls-3" d="M467.06,625c1.74-3.33,13.88-14.56-5.26-61.83-1.62,1.36,22.17,18,15.36,61.52.48-1.68,2.32-47.13,19.18-55.59-.91.69-17.8,33.35-9.61,55.89Q476.89,625,467.06,625Z"/><path class="cls-3" d="M436.88,624.57c1.25-3.16,9.77-13.79-2.71-59.21-1.14,1.26,15,17.47,9.68,59,.34-1.59,2.28-45.09,14.06-52.9-.64.64-12.8,31.63-7.47,53.33Z"/><path class="cls-4" d="M426.11,621.65c-.1-1.36-13.15-21.93,12.31-45.23.12,0-20.95,25.4-5.41,46.07Z"/><path class="cls-4" d="M489.92,625.17c-.24-2.21-13.9-35.44,10.22-75.08.2,0-19.7,42.88-3.29,76.11Z"/><path class="cls-4" d="M457.19,624.89c.12-1.35,12.58-21.43-10.5-45.66-.12,0,18.85,26.16,4.07,46.25Z"/><path class="cls-4" d="M441,623.32c.08-.05,5.93-40-23.08-57.09-.17,0,25.78,34.26,18.28,57.66A30.46,30.46,0,0,0,441,623.32Z"/><path class="cls-4" d="M469.72,625c.08-.06,5.31-40.06-23.94-56.73-.17.06,26.29,33.86,19.15,57.37A30.11,30.11,0,0,0,469.72,625Z"/><path class="cls-3" d="M494.16,627.59c1.69-3.35,13.67-14.76-6.16-61.74-1.6,1.38,22.43,17.69,16.26,61.28.45-1.69,1.63-47.15,18.36-55.86-.9.71-17.31,33.6-8.79,56Q504,627.5,494.16,627.59Z"/><path class="cls-3" d="M559.45,625.81c1.57-3.41,13.1-15.23-8.28-61.49-1.56,1.44,23,16.89,18.32,60.67.4-1.7,0-47.18,16.35-56.47-.88.74-16.07,34.19-6.8,56.3Q569.25,625.36,559.45,625.81Z"/><path class="cls-3" d="M529.39,626.91c1.09-3.21,9-14.25-5.62-59-1.07,1.32,15.79,16.7,12.55,58.46.26-1.61,0-45.14,11.38-53.53-.61.67-11.18,32.22-4.8,53.63Q536.15,626.72,529.39,626.91Z"/><path class="cls-4" d="M518.52,624.53c-.16-1.34-14.16-21.24,10-45.78.13,0-19.59,26.42-3.1,46.28Z"/><path class="cls-4" d="M582.22,624.87c-.34-2.19-15.59-34.71,6.46-75.5.2,0-17.49,43.81.49,76.19Z"/><path class="cls-4" d="M549.63,626.22c0-1.35,11.46-22-12.71-45.07-.12,0,20.05,25.18,6.33,46Z"/><path class="cls-4" d="M533.42,625.46c.08-.05,3.93-40.21-25.79-55.86-.16.06,27.35,32.93,21,56.67A29.86,29.86,0,0,0,533.42,625.46Z"/><path class="cls-4" d="M562.1,625.68c.08,0,3.3-40.27-26.63-55.45-.17.06,27.84,32.5,21.9,56.33A28.35,28.35,0,0,0,562.1,625.68Z"/><path class="cls-3" d="M561.24,623c1.56-3.41,13.06-15.24-8.33-61.48-1.55,1.44,22.93,16.87,18.35,60.66.39-1.71-.06-47.19,16.27-56.49-.87.74-16,34.2-6.74,56.3Q571,622.59,561.24,623Z"/><path class="cls-3" d="M626.12,618.9c1.44-3.46,12.49-15.69-10.45-61.15-1.49,1.49,23.44,16.06,20.41,60,.33-1.72-1.71-47.16,14.23-57-.84.77-14.76,34.75-4.74,56.51Q635.85,618.11,626.12,618.9Z"/><path class="cls-3" d="M596.26,621.09c1-3.25,8.48-14.57-7.71-58.76-1,1.36,16.31,16.13,14.58,58,.2-1.62-1.57-45.12,9.41-53.91-.59.69-10,32.61-2.86,53.77Q603,620.65,596.26,621.09Z"/><path class="cls-4" d="M585.36,619.1c-.21-1.34-14.84-20.72,8.33-46.11.12,0-18.55,27.11-1.43,46.36Z"/><path class="cls-4" d="M648.74,617.15C648.32,615,632,583,652.46,541.47c.19,0-15.83,44.4,3.22,76.12Z"/><path class="cls-4" d="M616.36,619.67c0-1.35,10.61-22.43-14.26-44.59-.11,0,20.85,24.45,7.95,45.73Z"/><path class="cls-4" d="M600.21,619.5c.08-.06,2.47-40.34-27.65-54.9-.16.06,28.38,31.92,23,55.87A30.24,30.24,0,0,0,600.21,619.5Z"/><path class="cls-4" d="M628.75,618.68c.08-.06,1.84-40.36-28.48-54.46-.16.07,28.86,31.48,23.8,55.51C624.07,619.73,628.26,619.06,628.75,618.68Z"/><path class="cls-3" d="M633.42,613.57c1.42-3.46,12.38-15.73-10.66-61.1-1.48,1.5,23.43,16,20.58,59.89.32-1.71-1.89-47.14,14-57.08-.84.78-14.58,34.81-4.51,56.53Q643.13,612.74,633.42,613.57Z"/><path class="cls-3" d="M697.72,606.92c1.3-3.52,11.79-16.16-12.77-60.7-1.42,1.55,23.92,15.13,22.62,59.14.26-1.73-3.54-47.05,11.92-57.54-.81.81-13.31,35.3-2.51,56.65Q707.37,605.75,697.72,606.92Z"/><path class="cls-3" d="M668.13,610.27c.84-3.29,7.86-14.9-9.94-58.42-1,1.4,16.83,15.48,16.74,57.37.14-1.62-3.32-45,7.25-54.24-.56.72-8.64,33-.75,53.84Q674.79,609.57,668.13,610.27Z"/><path class="cls-4" d="M657.23,608.71c-.27-1.34-15.56-20.13,6.48-46.41.12,0-17.37,27.81.38,46.38Z"/><path class="cls-4" d="M720.13,604.29c-.5-2.16-18-33.45.74-75.77.19,0-14,45,6.18,75.94Z"/><path class="cls-4" d="M688.05,608.06c0-1.35,9.67-22.82-15.9-44-.12,0,21.67,23.62,9.67,45.38Q684.94,608.77,688.05,608.06Z"/><path class="cls-4" d="M672,608.52c.08-.06.87-40.4-29.6-53.78-.17.07,29.43,30.79,25,54.94C667.37,609.68,671.52,608.91,672,608.52Z"/><path class="cls-4" d="M700.33,606.6c.07-.06.24-40.41-30.42-53.32-.16.08,29.89,30.33,25.81,54.55A29.8,29.8,0,0,0,700.33,606.6Z"/><path class="cls-3" d="M710.16,602c1.27-3.52,11.65-16.24-13.16-60.61-1.41,1.56,24,15,23,59,.25-1.73-3.86-47,11.48-57.61-.79.81-13,35.38-2.1,56.67Q719.78,600.74,710.16,602Z"/><path class="cls-3" d="M773.82,592.65c1.15-3.57,11-16.64-15.25-60.11-1.35,1.6,24.41,14.12,25,58.14.18-1.74-5.51-46.86,9.42-58-.77.84-11.75,35.82-.1,56.7Q783.36,591.08,773.82,592.65Z"/><path class="cls-3" d="M744.54,597.22c.69-3.32,7.19-15.2-12.34-57.94-.9,1.43,17.38,14.76,19,56.62.08-1.63-5.19-44.85,4.93-54.49-.52.73-7.2,33.3,1.52,53.82Q751.13,596.25,744.54,597.22Z"/><path class="cls-4" d="M733.63,596.12c-.32-1.32-16.31-19.46,4.49-46.64.12,0-16.1,28.51,2.34,46.33Z"/><path class="cls-4" d="M796,589.09c-.6-2.14-19.31-32.67-2.48-75.73.2,0-12,45.53,9.36,75.61Z"/><path class="cls-4" d="M764.26,594.2c-.11-1.35,8.64-23.22-17.67-43.3-.12,0,22.54,22.69,11.53,44.93Z"/><path class="cls-4" d="M748.31,595.32c.08-.07-.83-40.4-31.69-52.5-.16.08,30.55,29.54,27.14,53.85C743.76,596.67,747.85,595.73,748.31,595.32Z"/><path class="cls-4" d="M776.4,592.22c.07-.06-1.46-40.38-32.5-52-.15.08,31,29.06,28,53.42A29.43,29.43,0,0,0,776.4,592.22Z"/><path class="cls-3" d="M759.82,592.86C761,589.3,771,576.31,745,532.63c-1.37,1.6,24.29,14.31,24.52,58.34.2-1.74-5.14-46.91,9.86-57.91-.77.83-12,35.73-.53,56.7Q769.37,591.37,759.82,592.86Z"/><path class="cls-3" d="M823,581.8c1.05-3.59,10.55-16.93-16.87-59.67-1.3,1.64,24.73,13.45,26.52,57.44.14-1.74-6.78-46.7,7.79-58.21-.74.85-10.72,36.12,1.47,56.68Q832.5,580,823,581.8Z"/><path class="cls-3" d="M794,587.17c.6-3.34,6.74-15.4-13.91-57.59-.85,1.46,17.74,14.29,20.56,56.08,0-1.63-6.41-44.69,3.4-54.6-.49.75-6.25,33.48,3,53.76Q800.49,586,794,587.17Z"/><path class="cls-4" d="M783.06,586.36c-.36-1.31-16.8-19,3.18-46.74.12,0-15.26,28.94,3.61,46.25Z"/><path class="cls-4" d="M845,577.64c-.66-2.12-20.15-32.14-4.56-75.63.19,0-10.72,45.83,11.42,75.32Z"/><path class="cls-4" d="M813.53,583.61c-.14-1.35,8-23.44-18.81-42.81-.12,0,23.1,22.08,12.74,44.61Z"/><path class="cls-4" d="M797.67,585.16c.07-.06-2-40.36-33-51.61-.15.08,31.27,28.69,28.55,53.08A27.91,27.91,0,0,0,797.67,585.16Z"/><path class="cls-4" d="M825.58,581.3c.07-.06-2.58-40.32-33.83-51.1-.16.09,31.71,28.21,29.36,52.64A27.16,27.16,0,0,0,825.58,581.3Z"/><path class="cls-3" d="M22.79,504.1C25.65,501.28,41.51,494,44,438.82,42,439.63,56.39,465,31.79,507.25c1.28-1.52,22-47.53,40.1-50.5-1,.42-29.23,28.23-31.82,54.1Q31.4,507.52,22.79,504.1Z"/><path class="cls-3" d="M80.67,525.88c2.79-2.91,18.51-10.69,19.09-65.95-2.06.88,13.39,25.77-9.91,68.8,1.24-1.56,20.51-48.24,38.63-51.82-1,.45-28.46,29.2-30.16,55.14Q89.47,529,80.67,525.88Z"/><path class="cls-3" d="M53.84,516.08c2.28-2.9,14.48-11.2,20.45-62.36-1.56.94,7.07,22.9-14.16,64.33,1.08-1.51,19.74-46.08,33-50.62-.78.48-23.35,29-27.31,53.1Q59.83,518.32,53.84,516.08Z"/><path class="cls-4" d="M45.39,509.73c.45-1.43-2.93-26.73,28.53-43.18.13.07-28.28,20-22.7,46.18Q48.3,511.25,45.39,509.73Z"/><path class="cls-4" d="M101.1,533.28c.65-2.37,1.73-41.12,37.79-75,.23.1-33.35,38.64-32,78.27Z"/><path class="cls-4" d="M71.87,522.72c.65-1.35,19.81-18.31,8.36-50.69-.1,0,6.92,33.09-14.35,49.3Z"/><path class="cls-4" d="M58,516.06c.2,0,21-39.66,1.51-66.4-.15,0,10.07,43.59-6,65.5C53.5,515.17,57.4,516.23,58,516.06Z"/><path class="cls-4" d="M83.05,526.73c.2,0,20.5-40,.5-66.42-.15,0,10.78,43.44-5,65.58C78.51,525.9,82.44,526.9,83.05,526.73Z"/><path class="cls-3" d="M104,537.13c2.76-3,18.45-10.94,18.25-66.2-2,.9,13.82,25.59-9,68.92,1.23-1.57,19.93-48.51,38.1-52.33-1,.46-28.2,29.58-29.54,55.55Q112.83,540.15,104,537.13Z"/><path class="cls-3" d="M163.6,556.16c2.67-3,18.2-11.56,16.08-66.78-2,1,14.82,25.11-6.66,69.19,1.18-1.61,18.4-49.16,36.58-53.6-1,.5-27.4,30.52-27.84,56.52Q172.66,558.87,163.6,556.16Z"/><path class="cls-3" d="M136,547.64c2.17-3,14.1-11.87,17.63-63.26-1.54,1,8.28,22.54-11.16,64.93,1-1.56,17.7-47,30.94-52.13-.76.51-22.21,30.07-25,54.34Q142.15,549.6,136,547.64Z"/><path class="cls-4" d="M127.1,541.7c.38-1.46-4.29-26.57,26.74-44.49.13.07-27.63,21.33-20.69,47.21Z"/><path class="cls-4" d="M184.64,562.58c.54-2.4-.28-41.15,34.59-76.73.23.09-31.89,40.19-28.55,79.71Z"/><path class="cls-4" d="M154.53,553.42c.59-1.38,19.15-19.23,6-51-.1,0,8.63,32.73-12.1,49.92Z"/><path class="cls-4" d="M140.18,547.42c.2,0,19.31-40.61-1.75-66.4-.15,0,12.34,43.07-2.86,65.72C135.57,546.74,139.57,547.62,140.18,547.42Z"/><path class="cls-4" d="M166,556.89c.2,0,18.79-40.89-2.75-66.37-.15,0,13,42.89-1.88,65.76C161.41,556.28,165.44,557.1,166,556.89Z"/><path class="cls-3" d="M166.31,553.86c2.67-3.05,18.17-11.59,16-66.81-2,1,14.83,25.09-6.55,69.2,1.17-1.61,18.3-49.19,36.45-53.65-1,.5-27.31,30.56-27.72,56.56Q175.35,556.55,166.31,553.86Z"/><path class="cls-3" d="M227,570.76c2.59-3.14,17.91-12.2,13.79-67.32-2,1.05,15.81,24.57-4.21,69.39,1.12-1.65,16.74-49.79,34.89-54.87-1,.54-26.49,31.48-26,57.48Q236.24,573.15,227,570.76Z"/><path class="cls-3" d="M198.9,563.23c2.08-3.09,13.76-12.37,15.46-63.85-1.51,1.07,9.15,22.23-8.89,65.28,1-1.59,16.12-47.56,29.27-53.19-.75.54-21.27,30.84-23.24,55.19Q205.2,565,198.9,563.23Z"/><path class="cls-4" d="M189.77,557.6c.34-1.47-5.28-26.39,25.31-45.4.13.06-27,22.29-19.13,47.91Z"/><path class="cls-4" d="M248.43,576.43c.46-2.42-1.77-41.12,32.07-77.92.24.08-30.66,41.3-25.88,80.68Z"/><path class="cls-4" d="M217.8,568.34c.54-1.4,18.58-19.89,4.17-51.21-.1,0,9.86,32.4-10.38,50.32Z"/><path class="cls-4" d="M203.14,562.86c.2,0,18-41.27-4.16-66.3-.15,0,14,42.61-.5,65.78C198.48,562.34,202.54,563.08,203.14,562.86Z"/><path class="cls-4" d="M229.51,571.4c.2,0,17.44-41.53-5.16-66.23-.15,0,14.67,42.4.47,65.78C224.82,571,228.91,571.63,229.51,571.4Z"/><path class="cls-3" d="M235.8,567.62c2.56-3.15,17.81-12.29,13.43-67.38-2,1.05,15.91,24.48-3.87,69.4,1.12-1.66,16.48-49.86,34.56-55-1,.54-26.28,31.61-25.66,57.61Q245,570,235.8,567.62Z"/><path class="cls-3" d="M297.53,582.13c2.48-3.24,17.54-12.9,11.24-67.81-2,1.12,16.88,23.92-1.52,69.5,1.06-1.7,14.9-50.41,33-56.21-1,.58-25.43,32.51-23.92,58.46Q306.9,584.15,297.53,582.13Z"/><path class="cls-3" d="M269,575.7c2-3.16,13.35-12.89,13.05-64.4-1.48,1.13,10.07,21.86-6.39,65.58.9-1.62,14.35-48.16,27.37-54.31-.74.58-20.2,31.66-21.22,56.07Q275.34,577.2,269,575.7Z"/><path class="cls-4" d="M259.54,570.44c.28-1.48-6.35-26.17,23.68-46.36.13,0-26.34,23.34-17.36,48.62Z"/><path class="cls-4" d="M319.29,587c.38-2.44-3.38-41,29.25-79.13.23.07-29.26,42.49-22.91,81.64Z"/><path class="cls-4" d="M288.16,580.08c.49-1.42,17.92-20.62,2.19-51.34-.11,0,11.19,32-8.47,50.69Z"/><path class="cls-4" d="M273.19,575.17c.2,0,16.47-41.95-6.78-66.08-.15,0,15.74,42,2.07,65.75C268.48,574.84,272.6,575.41,273.19,575.17Z"/><path class="cls-4" d="M300.06,582.67c.2,0,15.93-42.19-7.79-66-.15,0,16.43,41.78,3.06,65.7C295.33,582.41,299.47,582.92,300.06,582.67Z"/><path class="cls-3" d="M311,581.16c2.45-3.25,17.44-13,10.73-67.89-2,1.14,17.05,23.8-1,69.51,1.05-1.7,14.52-50.51,32.54-56.45-1,.58-25.18,32.7-23.47,58.64Q320.35,583.11,311,581.16Z"/><path class="cls-3" d="M373.79,593.05c2.36-3.34,17.15-13.62,8.52-68.22-1.95,1.21,18,23.19,1.34,69.5,1-1.74,12.94-51,30.92-57.56-1,.62-24.3,33.56-21.7,59.43Q383.32,594.69,373.79,593.05Z"/><path class="cls-3" d="M344.72,587.84c1.84-3.24,12.92-13.44,10.47-64.9-1.44,1.19,11.06,21.42-3.71,65.8.84-1.66,12.47-48.73,25.34-55.42-.73.6-19.06,32.48-19.07,56.92Q351.23,589.07,344.72,587.84Z"/><path class="cls-4" d="M335,583c.22-1.49-7.5-25.87,21.94-47.32.13.05-25.58,24.43-15.48,49.31Z"/><path class="cls-4" d="M395.92,597c.28-2.46-5.11-40.84,26.23-80.31.24.06-27.76,43.7-19.73,82.55Z"/><path class="cls-4" d="M364.26,591.4c.43-1.44,17.21-21.35.08-51.39-.11,0,12.6,31.49-6.44,51Z"/><path class="cls-4" d="M349,587.13c.2,0,14.86-42.6-9.58-65.74-.15,0,17.6,41.33,4.82,65.61C344.21,587,348.38,587.4,349,587.13Z"/><path class="cls-4" d="M376.36,593.49c.2,0,14.31-42.83-10.58-65.59-.15,0,18.29,41.05,5.8,65.52C371.58,593.43,375.77,593.77,376.36,593.49Z"/><path class="cls-3" d="M360.65,588.48c2.38-3.32,17.19-13.5,9-68.16-1.95,1.2,17.79,23.32.86,69.52,1-1.74,13.24-50.9,31.21-57.34-1,.62-24.44,33.39-22,59.27Q370.13,590.18,360.65,588.48Z"/><path class="cls-3" d="M424.14,598.63c2.28-3.4,16.88-14.1,6.74-68.44-1.93,1.26,18.73,22.68,3.21,69.45,1-1.77,11.65-51.34,29.56-58.41-1,.65-23.73,38.31-20.46,64.1Q433.64,602,424.14,598.63Z"/><path class="cls-3" d="M394.76,594.23c1.77-3.29,12.64-13.8,8.8-65.17-1.42,1.23,11.69,21.1-2,65.88.79-1.68,11.23-49.05,24-56.1-.71.62-18.3,33-17.65,57.43C403.53,595.6,399.14,594.93,394.76,594.23Z"/><path class="cls-4" d="M384.88,589.64c.18-1.5-8.24-25.66,20.8-47.91.13,0-25.08,25.13-14.25,49.72Z"/><path class="cls-4" d="M414.51,597.25c.39-1.45,16.73-21.83-1.3-51.38-.1,0,13.52,31.13-5.11,51.17Z"/><path class="cls-4" d="M399,593.4c.2,0,13.8-43-11.4-65.45-.15,0,18.81,40.82,6.61,65.45C394.23,593.4,398.43,593.69,399,593.4Z"/><path class="cls-4" d="M426.74,599c.19,0,13.24-43.22-12.4-65.27-.15,0,19.49,40.53,7.58,65.34C421.92,599.07,426.15,599.29,426.74,599Z"/><path d="M707.31,581.2c4-80.67,52.66-107.8,82.25-85.93a59.29,59.29,0,0,1,16.49-6.51c-3.51-24.94-1.88-73.26,47.81-36.33l-16.42,12.93s-.14-28.09-17.22-16.53c-7.21,4.87,18.14,44.05,20.55,49.53.83.89,76.57-30.07,78.16,78.47,0,0-.35,105.44-59,82.64-1.53,0-25.82,21.91-50.79,3.11,0,0-26.26,13.78-36.68.29C771.35,662.49,703.34,661.86,707.31,581.2Z"/><g class="cls-5"><path class="cls-6" d="M798.91,554.83c-1.27-.11-32.53.95-41.82-30.38,0,0-21.54,41.41,9.19,49.52S798.91,554.83,798.91,554.83Z"/><path class="cls-7" d="M757.09,524.45c9.29,31.33,40.55,30.27,41.82,30.38,0,0-1.44,20.64-22.08,20.64a41.42,41.42,0,0,1-10.55-1.5c-30.73-8.11-9.19-49.52-9.19-49.52m.32-3.42-1.47,2.82a79.72,79.72,0,0,0-5.25,13.65c-3,10.45-3,19.06-.09,25.59,2.68,6.06,7.84,10.14,15.35,12.12a43,43,0,0,0,10.88,1.55c21.58,0,23.35-21.62,23.36-21.84l.09-1.27-1.26-.1-.49,0a48.1,48.1,0,0,1-18.37-3.93c-10.89-4.8-18.24-13.39-21.84-25.52l-.91-3.05Z"/></g><path class="cls-6" d="M799.87,554.85c-1.28-.1-33.26-.68-42.55-32,0,0-21.24,43.17,9.48,51.28S799.87,554.85,799.87,554.85Z"/><path class="cls-8" d="M799.87,554.85c-1.28-.1-33.26-.68-42.55-32,0,0-21.05,43.4,9.67,51.51S799.87,554.85,799.87,554.85Z"/><path class="cls-9" d="M769.93,564.52c-21.43-5.65-17.24-29.23-12.75-43l.3-.64c9.29,31.33,41.55,32.42,42.82,32.53,0,0-.07.58-.27,1.54C795.81,562,787.2,569.08,769.93,564.52Z"/><g class="cls-5"><path class="cls-6" d="M828.81,557.34c1.27.11,31.93,6.37,46.18-23,0,0,14.52,44.45-17.1,47.31S828.81,557.34,828.81,557.34Z"/><path class="cls-10" d="M875,534.36s14.52,44.45-17.1,47.31q-2.37.21-4.5.21c-26.87,0-24.58-24.54-24.58-24.54a49.93,49.93,0,0,0,8,.63c10.37,0,28.27-3.16,38.2-23.61m.23-3.42-1.39,2.86c-9.18,18.92-25.21,22.89-37,22.89a48.44,48.44,0,0,1-7.39-.56l-.48-.07-1.27-.11-.12,1.27c0,.45-.94,10.93,6,18.52,4.49,4.93,11.19,7.43,19.89,7.43,1.47,0,3-.07,4.61-.22,7.72-.7,13.47-3.85,17.1-9.36,3.93-6,5.3-14.46,4.08-25.27a78.46,78.46,0,0,0-3-14.36l-1-3Z"/></g><path class="cls-6" d="M827.86,557.21c1.27.11,32.91,4.88,47.16-24.47,0,0,14,46.13-17.67,49S827.86,557.21,827.86,557.21Z"/><path class="cls-11" d="M827.86,557.21c1.27.11,32.91,4.88,47.16-24.47,0,0,13.72,46.33-17.9,49.19S827.86,557.21,827.86,557.21Z"/><path class="cls-12" d="M855.82,571.75c22.06-2,21.75-26,19.54-40.27-.11-.43-.19-.68-.19-.68-14.24,29.35-46.24,25-47.51,24.93,0,0,0,.59,0,1.57C830.7,565,838,573.36,855.82,571.75Z"/><path class="cls-13" d="M884.83,585.24s-12,21.09-47.6,18.09c-.32,3.88-.84,14.23-.84,14.23l-20-1.68.42-13s-44.64-2.45-74.45-29.66c0,0-6.85,25.1,34,50.63l1-11.94,23.22,1.95-1.64,20S868.77,644.66,884.83,585.24Z"/><path class="cls-6" d="M882.33,588.56a22.78,22.78,0,0,0,2.5-3.32c-16.06,59.42-86,48.66-86,48.66l.44-5.38S862.12,638.18,882.33,588.56Z"/><path class="cls-14" d="M836.68,612.17c.17-3.13.39-6.84.55-8.84h.08c-.25,4.22-.48,8.84-.48,8.84Z"/><polygon class="cls-6" points="800.94 608.51 800.5 613.89 777.28 611.94 777.72 606.56 800.94 608.51"/><path class="cls-6" d="M742.35,573.27c.33,8.75,5,26.88,34.39,45.23l-.44,5.38c-40.83-25.53-34-50.63-34-50.63Z"/><path class="cls-15" d="M882.33,588.56a22.78,22.78,0,0,0,2.5-3.32c-16.06,59.42-86,48.66-86,48.66l.44-5.38S862.12,638.18,882.33,588.56Z"/><polygon class="cls-16" points="777.72 606.56 800.94 608.51 800.5 613.89 777.28 611.94 777.72 606.56"/><path class="cls-17" d="M742.32,573.25l0,0c.33,8.75,5,26.88,34.39,45.23l-.44,5.38C735.47,598.35,742.32,573.25,742.32,573.25Z"/><path class="cls-18" d="M742.35,573.27c29.81,27.19,74.42,29.64,74.42,29.64l-.42,13,20,1.68s.12-2.44.29-5.39h.15s.23-4.62.48-8.84c26.56,2.21,39.94-9,45-14.78-20.21,49.62-83,40-83,40l1.2-14.63.44-5.38-23.22-2-.44,5.38-.54,6.56C747.39,600.15,742.68,582,742.35,573.27Z"/><path class="cls-18" d="M742.35,573.27c29.81,27.19,74.42,29.64,74.42,29.64l-.42,13,20,1.68s.12-2.44.29-5.39h.15s.23-4.62.48-8.84c26.56,2.21,39.94-9,45-14.78-20.21,49.62-83,40-83,40l1.2-14.63.44-5.38-23.22-2-.44,5.38-.54,6.56C747.39,600.15,742.68,582,742.35,573.27Z"/><polygon class="cls-19" points="810.27 569.9 823.51 592.13 798.15 592.77 810.27 569.9 823.51 592.13 798.15 592.77 810.27 569.9"/><polygon class="cls-20" points="810.27 569.9 823.51 592.13 798.15 592.77 810.27 569.9 823.51 592.13 798.15 592.77 810.27 569.9"/><polygon class="cls-21" points="810.28 570.2 820.29 590.26 801.27 590.75 810.28 570.2 820.29 590.26 801.27 590.75 810.28 570.2"/><path class="cls-22" d="M823.51,592.13q-3.16.21-6.34.34l-6.34.21-6.34.11c-2.11,0-4.23,0-6.34,0,2.11-.14,4.22-.26,6.33-.34l6.34-.22,6.35-.11Q820.34,592.08,823.51,592.13Z"/><g class="cls-23"><path class="cls-22" d="M776.3,623.88a87.49,87.49,0,0,1-13.36-9.07,75.78,75.78,0,0,1-11.41-11.45,47.82,47.82,0,0,1-7.87-14.1,38.22,38.22,0,0,1-1.66-7.92,36.32,36.32,0,0,1,.35-8.07,35.55,35.55,0,0,0-.12,8.05,38.26,38.26,0,0,0,1.77,7.83,48.48,48.48,0,0,0,7.89,13.92,78.34,78.34,0,0,0,11.27,11.47c2.06,1.73,4.19,3.38,6.38,4.93S774,622.54,776.3,623.88Z"/></g><path class="cls-24" d="M16.07,261.88c-4.42-8.16-7.79-2.1-13.81,4.93l17.47.71a38.83,38.83,0,0,0-15.36,8.85c4.07,4.2,10-1.1,15.29-2.62,8.62-2.49,16.34,5.87,21.56,14.63s10,19.05,18.12,22.69l-12.82,10c-.13-7.4-2.65-14.51-6.84-19.23a39.1,39.1,0,0,0,1.7,18A55.05,55.05,0,0,1,20.12,309c3.72,6.87,9.14,12.11,15.32,14.79L18,326.35a49.38,49.38,0,0,0,26.67.65c9.51-2.39,21.64-6.32,26.63,4,4.31,8.93-.92,21.19.09,31.86.44,4.66,2.1,9.1,1.64,13.82-.47,4.92-3.12,9.06-5.33,13.21-11.55,21.66-12.64,51.53-2.67,73,6.67,14.35,17.43,24.46,25.53,37.44,12.46,20,18.19,46.23,19.46,72.53s-1.65,52.94-4.91,79.28c-1.09,8.8-2,18.86,2.42,25.27,5.37,7.82,15.6,5.91,23.26,5a7.51,7.51,0,0,0,5.81-5.07c2-5.15-1.46-9-3.16-13.21-4.11-10.24,1.94-23.14,1.38-34.89-.4-8.47-4.28-16.49-2.75-24.88,1.06-5.85,4.53-10.51,6.73-15.87,5.54-13.53,2.51-30.3,7.65-44.08,2.31-6.2,6.28-11.91,6.34-18.65.11-12.25-12.15-17.66-14.85-29.18-1.68-7.13.85-15.45,5.19-20.79a27.84,27.84,0,0,1,16-9.4c6.39-1.44,13.28-1.43,18.75-6.26,8.55-7.55,10.86-24.62,20.33-29.77,6-3.25,12.67-.38,18.93-2.27,8.44-2.54,14.27-12.92,21.87-18.6,11.59-8.66,29.17-12.65,39.37-4.23,14.67,12.11,6.17,1.36-3.1-3.69-4.85-2.65-10.34-6.85-10.26-13.85a36.36,36.36,0,0,1,29.38,6.15c9.61,6.89,20.91-1.1,26.92-12.6-4.72,2.11-8,9.55-12.87,10.44-5.42,1-12.48-4.72-17.88-5.22a59,59,0,0,1-20.78-5.9l15.34-13.86c3-2.67,4.7-6.63,7.65-9.3,5-4.53,7.95-6,13-10.52-3.27.57-18.8,11.55-26.69,20.23-9.4,10.35-14.33,8.22-24.18,17.82a34.67,34.67,0,0,1,1.5-9.65c.91-3.1.23-9.89,1.67-12.79s5.11-2.08,6.74-4.85c-4-1.71-8.39,2.86-10.44,7.94s-2.8,10.89-5.13,15.77c-7,14.55-23.73,13.82-33.58,25.26-3.72,4.33-6.48,10.43-11.84,11.44-2.43.45-4.81-1.18-5.56-4.14s.68-5.51,2.06-7.71c6.63-10.61,11.3-24.69,18.92-34.12,11.87-14.67,22.53-29.1,34.43-43.32-4.67.44-7.82,7.65-11.58,10.41-2.95,2.16-10.81,5.15-11.33,9.59-1.28,10.86-7.22,7.43-11.27,15.65,0-6,1-12.47.32-17.73-.95-7-3.2-6.75-5.25-20.28-2.39.52-.66,4.94-.16,8s-.85,5,.3,7.69c3.68,8.56,2.64,19.79-.83,29s-9.08,16.83-14.68,24.13c-7.07,9.22-15,18.71-24.64,20.85-4.83,1.06-10.63.75-13.56,6s-1,13.46-6.66,17.24c-4.27,2.83-9.24.54-11.42-4.71-4.32-10.41.2-21.42,3.68-31.63,1.54-4.52,3-9.28,5.71-12.78,3-3.83,7.72-4.09,11-7.52,11.14-11.71,28.6-21.2,38.67-22.69-8.6-.56-15.95,4.34-20.76,4.92-4.32.53-12.48,6.08-13.09,8.7s-8.16,4.31-12.31,6.21c5.94-15,19-22.45,28.51-34.06,15.56-19,23.18-51.23,43.28-59.52,11.75-4.85,24,.52,35.16,5.84,5.91,2.81,13,1.06,18.35,5.28A106.58,106.58,0,0,0,301,310.22a142.78,142.78,0,0,0-47.73-29.58c2.26-9.93,14.71-11.92,21.93-8.5s11.36,7.44,20.57,5.84c-8.11-.37-15.22-6-22.83-9.2s-17.4-3.16-22.73,5.24c.82-8.94-1.85-19.63.74-27.55.77-2.35,3.62-7.86,7.91-7.58-3.24-4.17-9.58,3.88-10.25,10s.93,12.46-.92,18.19c-3.18,9.84-13.24,10.59-21.35,9.22a2.37,2.37,0,0,1-1.65-2.73c.62-5.78,8-14.6,10.09-19.27,1.19-2.62-5.4,6-3.39,4.4-9.9,3.29-15.37,15.3-8.69,24.68-8.25,3.33-17.4,7.61-21.49,17.63-1.58,3.88-2.24,8.32-4.16,11.94-2.29,4.31-18.43,8.84-20.48,13.35-16,35.3-12.81,10.14-24.92,16.31q7.17-17.67,14.35-35.32c2.66-6.56,5.9-13.76,11.29-15.93,4.8-1.94,9.67.79,14.46,2.08s11.06.15,13.07-5.89c-3.45,1.61-5.81,4.05-9.41,4.13-5.6.11-10.59-3.41-15.17-7.53a19.9,19.9,0,0,1-6.2-12.2c-.64-4.81.14-9.7,3.07-13.39,4.89-6.16,13.06-7.08,18.21-2,1.93,1.89,3.45,4.48,5.57,6,4.62,3.41,11,.82,15-4.16s6.45-11.81,8.69-18.43c-4.09,1.62-6.21,7.42-8.4,12.26S210,262,206.07,260.32s-4.42-8.58-7.1-12.59c-4.44-6.65-12.91-3.67-19.48-.22l.31-1.62c1.18-6.35,4.6-11.73,9.19-14.45h0c-2.81-.52-5.2.17-7.72,5.58-2.23,4.79-6.8,5.1-7,10.62-1.05-2.94-.08,4.19-1.57,7s-5.72-.07-4.22,2.49c-1.42-2.54-1.83,3.49-2.19,6.72s-2.09,2.82-1.28,5.82a26.93,26.93,0,0,1-2.67,20c-2.07,0-5.28-12.37-5-4.28,0,5.52,1,10.37,1,15.89l-10.29-18c-2-3.56-4.13-7.33-4.56-11.83-.39-4.19.72-8.44,1.74-12.55,2.53-10.15,3.26-24.24-4.22-27.6a69,69,0,0,1-1.37,37,11.65,11.65,0,0,1-7-7.06,267.07,267.07,0,0,1,14.52,39.12,38.35,38.35,0,0,1,1.66,8.2c.23,3.88-.57,7.8-1.36,11.63q-9.9,47.67-19.78,95.34c-1.72,8.29-3.46,16.64-6.28,24.48-3.13,8.67-7.55,16.58-10.31,25.45A81.92,81.92,0,0,0,108,495.93a6.53,6.53,0,0,1-1.74,5.15c-2.32,2.18-4.41-.2-5.92-2.34C92.2,487.11,84,475.32,78.43,461.2s-8.09-31.05-4.3-46.75c3.26-13.48,11-26.1,10-39.85-.65-8.43-4.65-16.7-2.31-24.83.91-3.16,2.73-6,3-9.3.34-4.22-1.93-7.77-4.07-10.79L50.12,286.34c-7.62-10.8-18-22.55-29.12-17.47l-2.25-10.29"/><path d="M518.09,626.26c-3.6-33.6,14.75-48.07,28.4-41a24.86,24.86,0,0,1,6.39-3.8c-3.07-10.06-5.54-30.14,17.4-18.21l-5.95,6.44s-1.88-11.6-8.19-5.68c-2.66,2.5,10.37,17,11.72,19.09.4.32,29.68-17.55,37.4,27.2,0,0,6.72,43.59-19,38.1-.63.11-9.24,10.79-20.78,4.69,0,0-10,7.45-15.14,2.58C549.85,655.57,521.7,659.86,518.09,626.26Z"/><path class="cls-25" d="M567.92,614.7c10.16,3.2,23.27-4.07,23.27-4.07-2-6.83-8.48-12.25-8.48-12.25"/><path class="cls-26" d="M581.42,599.73s5.13,4.44,6.83,10.22c0,0-10.92,6.49-19.53,3.78"/><path class="cls-22" d="M567.93,614.74a28.32,28.32,0,0,0,6,.52,32,32,0,0,0,5.94-.57,32.87,32.87,0,0,0,5.75-1.58,44.5,44.5,0,0,0,5.47-2.44c-.85.52-1.7,1.06-2.6,1.52a29.48,29.48,0,0,1-2.74,1.25,30.83,30.83,0,0,1-5.8,1.69,29.65,29.65,0,0,1-6,.48A22.12,22.12,0,0,1,567.93,614.74Z"/><g class="cls-5"><path class="cls-27" d="M582.61,598.44l-1.26,1.39c.45.4,5.18,4.68,6.79,10.19,0,0-10.86,6.45-19.46,3.8l-.86.95c10.15,3.2,23.26-4.07,23.26-4.07C589.09,603.86,582.61,598.44,582.61,598.44Z"/></g><g class="cls-28"><path class="cls-29" d="M582.61,598.44l-1.26,1.39c.45.4,5.18,4.68,6.79,10.19,0,0-10.86,6.45-19.46,3.8l-.86.95c10.15,3.2,23.26-4.07,23.26-4.07C589.09,603.86,582.61,598.44,582.61,598.44Z"/></g><path class="cls-22" d="M582.68,598.44a30.35,30.35,0,0,1,5.17,5.39,23.38,23.38,0,0,1,2,3.19,13.08,13.08,0,0,1,1.22,3.53,23.29,23.29,0,0,0-3.58-6.45c-.72-1-1.52-2-2.32-2.89S583.53,599.34,582.68,598.44Z"/><path class="cls-30" d="M568,614.61c1.18-1.39,2.36-2.78,3.56-4.16l3.63-4.1c2.46-2.7,4.91-5.4,7.49-8-2.3,2.84-4.73,5.56-7.16,8.29l-3.7,4C570.59,612,569.35,613.35,568,614.61Z"/><path class="cls-31" d="M556.28,616c-9.22,5.38-23.58,1.21-23.58,1.21.46-7.11,5.61-13.84,5.61-13.84"/><path class="cls-32" d="M539.86,604.42s-4,5.48-4.44,11.5c0,0,12.06,3.89,19.87-.67"/><path class="cls-22" d="M556.28,616.06a22.74,22.74,0,0,1-5.61,2.17,29.27,29.27,0,0,1-6,.88,30.45,30.45,0,0,1-6-.36c-1-.12-2-.39-2.95-.6s-1.92-.59-2.87-.9a44.14,44.14,0,0,0,5.87,1.16,34,34,0,0,0,6,.25,32.65,32.65,0,0,0,5.91-.77A27.77,27.77,0,0,0,556.28,616.06Z"/><g class="cls-5"><path class="cls-33" d="M538.43,603.44l1.52,1.07c-.35.48-4,5.72-4.41,11.46,0,0,12,3.86,19.81-.65l1,.74c-9.22,5.39-23.59,1.22-23.59,1.22C533.28,610.17,538.43,603.44,538.43,603.44Z"/></g><g class="cls-28"><path class="cls-34" d="M538.43,603.44l1.52,1.07c-.35.48-4,5.72-4.41,11.46,0,0,12,3.86,19.81-.65l1,.74c-9.22,5.39-23.59,1.22-23.59,1.22C533.28,610.17,538.43,603.44,538.43,603.44Z"/></g><path class="cls-22" d="M538.36,603.44c-.64,1.08-1.25,2.16-1.83,3.26s-1.15,2.2-1.64,3.34a23.15,23.15,0,0,0-2.09,7.1,12.7,12.7,0,0,1,.43-3.73,24.08,24.08,0,0,1,1.25-3.55A30.84,30.84,0,0,1,538.36,603.44Z"/><path class="cls-30" d="M556.16,616c-1.56-.93-3.07-2-4.58-3l-4.49-3.1c-3-2.13-5.92-4.24-8.78-6.5,3.08,2,6.06,4,9,6.13l4.43,3.19C553.25,613.76,554.7,614.86,556.16,616Z"/><path class="cls-35" d="M538.62,624.25c-.28-.21,1.48,9,8.94,11.34a9.13,9.13,0,0,1,.33-2.31l3.29.64.61,2.53s2.83,1.62,2.8,1.37.16-3.13.16-3.13l3.87-.18s.45,4.15.77,4,3.31-.71,3.31-.71l-1-3.51,3.39,0v3.1l3.47,0-.58-3.05,3.59-.49,1.52,2.6,2.32-.76-.86-3.26,2.78-1.07.34,2.31,2.93-1.17-2-2.8,2.14-.92.71,2.69s6.94-2.29,5.16-14c0,0-.91,4.56-5,5.36l.21,2.66-3.13.86-.54-1.87-1.74.7.48,2.13-3.68,1.17-.58-3-1.22.22-.65,4.61s-6,.59-5.95.17,0-4.7,0-4.7l-2,.48,0,3.94-4.25.48-.28-4-2.15.75v3.86s-4.64-.06-4.76-.39-.26-3.07-.26-3.07l-2,1-.54,2.67s-2.5-.22-2.53-.47-.3-2.74-.3-2.74A28.7,28.7,0,0,1,538.62,624.25Z"/><path class="cls-36" d="M562.43,636.82l.2,0-.68-2.46h-.21Z"/><polygon class="cls-37" points="565.06 634.28 565.07 636.34 565.13 636.34 565.13 634.28 565.06 634.28"/><polygon class="cls-38" points="575.2 634.65 575.39 634.59 574.78 632.29 574.6 632.37 575.2 634.65"/><polyline class="cls-39" points="579.2 629.42 578.69 629.64 580.07 631.6 580.63 632.48"/><polygon class="cls-40" points="568.41 636.29 568.54 636.28 568.15 634.27 568.03 634.28 568.41 636.29"/><polygon class="cls-41" points="561.67 633.28 561.95 634.32 565.06 634.28 565.06 633.23 561.67 633.28"/><path class="cls-42" d="M581.46,630.37l-.71-2.69-2.13.91.58.83,1.63-.7.71,2.69s6.31-2.08,5.36-12.43C587.35,628.43,581.46,630.37,581.46,630.37Z"/><polygon class="cls-43" points="565.13 636.34 565.14 637.38 568.61 637.33 568.41 636.29 565.13 636.34"/><polygon class="cls-44" points="573.07 635.35 571.54 632.75 567.95 633.24 568.15 634.27 571.62 633.79 573.14 636.39 575.61 635.59 575.38 634.55 573.07 635.35"/><path class="cls-45" d="M559.32,637.49c-.32.12-.78-4-.78-4l-3.87.18s-.18,2.88-.15,3.13-2.8-1.37-2.8-1.37l-.61-2.53-3.3-.64a8.71,8.71,0,0,0-.32,2.31c-5.78-1.82-8.14-7.75-8.78-10.23l-.09-.07c-.28-.21,1.48,9,8.94,11.34a9.13,9.13,0,0,1,.33-2.31l3.29.64.61,2.53s2.83,1.62,2.8,1.37.16-3.13.16-3.13l3.87-.18s.45,4.15.77,4,3.31-.71,3.31-.71l-.27-1C561.75,637,559.58,637.39,559.32,637.49Z"/><polygon class="cls-46" points="577.65 632.57 577.31 630.25 574.53 631.32 574.78 632.29 577.38 631.29 577.72 633.61 580.65 632.44 580.17 631.5 577.65 632.57"/><path class="cls-47" d="M580.75,627.68l.71,2.69s5.89-1.94,5.44-11.39c0-.51-.12-1-.2-1.59,0,0-.91,4.55-5,5.36l.13,1.62h0l.08,1-3.13.86-.54-1.87-1.6.64.26,1.15-.15,0,.23,1-3.68,1.17-.58-3-1.22.22-.65,4.61s-6,.59-5.95.17c0-.11,0-.48,0-1-.06,0-.09,0-.09-.07,0-.29,0-2.35,0-3.65l-1.95.47,0,3.94-4.25.48-.08-1h0l-.2-3-2.15.75v3.86s-4.64-.06-4.76-.39a16.33,16.33,0,0,1-.2-2c0-.33-.05-.7-.07-1l-2,1-.54,2.67s-2.5-.22-2.53-.47-.3-2.74-.3-2.74a28.75,28.75,0,0,1-7-3.83c.64,2.48,3,8.41,8.78,10.23a8.71,8.71,0,0,1,.32-2.31l3.3.64.61,2.53s2.83,1.62,2.8,1.37.15-3.13.15-3.13l3.87-.18s.46,4.14.78,4,2.43-.53,3.11-.67l-.69-2.5H562l-.28-1,3.39,0v1h.07v2.06l3.27-.05-.38-2h.12l-.2-1,3.59-.49,1.53,2.6,2.13-.7-.6-2.28.19-.07-.26-1,2.78-1.07.34,2.32,2.42-1-1.38-2,.51-.22-.58-.83Z"/><path class="cls-48" d="M580.75,627.68l.71,2.69s5.89-1.94,5.44-11.39c0-.51-.12-1-.2-1.59,0,0-.91,4.55-5,5.36l.13,1.62h0l.08,1-3.13.86-.54-1.87-1.6.64.26,1.15-.15,0,.23,1-3.68,1.17-.58-3-1.22.22-.65,4.61s-6,.59-5.95.17c0-.11,0-.48,0-1-.06,0-.09,0-.09-.07,0-.29,0-2.35,0-3.65l-1.95.47,0,3.94-4.25.48-.08-1h0l-.2-3-2.15.75v3.86s-4.64-.06-4.76-.39a16.33,16.33,0,0,1-.2-2c0-.33-.05-.7-.07-1l-2,1-.54,2.67s-2.5-.22-2.53-.47-.3-2.74-.3-2.74a28.75,28.75,0,0,1-7-3.83c.64,2.48,3,8.41,8.78,10.23a8.71,8.71,0,0,1,.32-2.31l3.3.64.61,2.53s2.83,1.62,2.8,1.37.15-3.13.15-3.13l3.87-.18s.46,4.14.78,4,2.43-.53,3.11-.67l-.69-2.5H562l-.28-1,3.39,0v1h.07v2.06l3.27-.05-.38-2h.12l-.2-1,3.59-.49,1.53,2.6,2.13-.7-.6-2.28.19-.07-.26-1,2.78-1.07.34,2.32L580,631.3l-1.3-1.66.51-.22-.58-.83Z"/><g class="cls-5"><path class="cls-49" d="M538.71,624.32a15.61,15.61,0,0,0,2.91,6.85,11.76,11.76,0,0,0,2.66,2.61,12.87,12.87,0,0,0,3.31,1.72l-.13.08.17-1.42c0-.23.06-.47.1-.71a1,1,0,0,1,.06-.21c0-.07.16-.07.17-.06h.1l.35.06c.94.17,1.87.36,2.8.56l.07,0,0,.07.6,2.54-.06-.07,2.79,1.37-.13.08.16-3.12v-.08h.07l3.87-.17h.06v0l.75,4,0,0,3.32-.67-3.3.74h0v0l-.8-4,.07.06-3.87.2.08-.08-.14,3.12V638l-.13-.07-2.8-1.35,0,0v0l-.62-2.53.09.08c-.93-.2-1.85-.4-2.78-.58l-.35-.05c-.06,0-.13,0-.07,0s0,.09,0,.13c0,.23-.08.47-.11.7l-.17,1.41,0,.13-.11-.05a13.08,13.08,0,0,1-3.35-1.76,12.08,12.08,0,0,1-2.67-2.67,14.33,14.33,0,0,1-1.83-3.29A15.29,15.29,0,0,1,538.71,624.32Z"/></g><g class="cls-5"><path class="cls-50" d="M565.34,637.4a12.6,12.6,0,0,1,3.47-.06,11.36,11.36,0,0,1-1.74.15A11.08,11.08,0,0,1,565.34,637.4Z"/></g><g class="cls-5"><path class="cls-51" d="M568,634.28c1.19-.18,2.38-.39,3.58-.55h0l0,0,1.55,2.59-.11,0,2.56-.83-.08.13c-.3-1.07-.57-2.14-.85-3.22l0-.08.08,0,2.55-1,.1,0v.1l.32,2.32-.08-.05,2.95-1.11-2.91,1.23-.07,0v-.08l-.36-2.31.11.06-2.53,1.09.06-.12c.3,1.07.6,2.14.87,3.21l0,.1-.1,0-2.56.8-.07,0,0-.06-1.5-2.61.06,0C570.43,634,569.23,634.14,568,634.28Z"/></g><g class="cls-5"><path class="cls-52" d="M581.57,631.4a7.88,7.88,0,0,0,3.09-2.48,10.32,10.32,0,0,0,1.68-3.58,16.48,16.48,0,0,0,.59-4c0-.67,0-1.34,0-2l-.15-2,.27,2c0,.67,0,1.34.08,2a16.46,16.46,0,0,1-.52,4,10.49,10.49,0,0,1-1.79,3.62A7.15,7.15,0,0,1,581.57,631.4Z"/></g><g class="cls-5"><path class="cls-53" d="M558.6,630.56a18.59,18.59,0,0,1,2.11-.36,19.05,19.05,0,0,1,2.14-.12,17.23,17.23,0,0,1-2.11.36A17.06,17.06,0,0,1,558.6,630.56Z"/></g><g class="cls-5"><path class="cls-54" d="M578.77,626.28a9.71,9.71,0,0,1,1.56-.57,11.26,11.26,0,0,1,1.63-.35,9.71,9.71,0,0,1-1.56.57A11.26,11.26,0,0,1,578.77,626.28Z"/></g><g class="cls-5"><path class="cls-55" d="M551.35,630.82a23.32,23.32,0,0,1,4.72.36,23.32,23.32,0,0,1-4.72-.36Z"/></g><g class="cls-5"><path class="cls-56" d="M564.79,630.46c1-.13,2-.18,3-.23s2-.05,3,0c-1,.13-2,.18-3,.23S565.8,630.52,564.79,630.46Z"/></g><polygon class="cls-57" points="562.87 613.76 558.09 622.73 569.48 621.45 562.87 613.76 558.09 622.73 569.48 621.45 562.87 613.76"/><polygon class="cls-58" points="562.87 613.76 558.09 622.73 569.48 621.45 562.87 613.76 558.09 622.73 569.48 621.45 562.87 613.76"/><polygon class="cls-59" points="562.88 613.87 559.44 621.85 567.97 620.89 562.88 613.87 559.44 621.85 567.97 620.89 562.88 613.87"/><path class="cls-22" d="M558.09,622.73q5.67-.83,11.39-1.28Q563.81,622.28,558.09,622.73Z"/><path d="M323.65,594.9c10.84-44.67,41-54.47,55.18-39a33.5,33.5,0,0,1,9.92-1.83c.7-14.32,6.78-41.16,30.61-15l-10.56,5.42s2.93-15.72-7.86-11.14c-4.55,1.93,5.43,26.63,6.2,30,.36.59,46-8.38,35.3,52.48,0,0-11.47,58.92-41.81,39.72-.85-.16-16.78,9.41-28.73-3.85,0,0-16.16,4.81-20.54-3.88C350.76,647.41,312.8,639.57,323.65,594.9Z"/><g class="cls-5"><path class="cls-6" d="M392.11,597c.63.09,15.55,3.89,23.23-10.19,0,0,6.1,22.18-9.5,22.84S392.11,597,392.11,597Z"/><path class="cls-60" d="M415.34,586.84s6.1,22.18-9.5,22.84l-1.1,0c-14.41,0-12.63-12.67-12.63-12.67a25.08,25.08,0,0,0,5.12.53,19.69,19.69,0,0,0,18.11-10.72m.19-1.68-.75,1.37a19,19,0,0,1-17.55,10.4,23.86,23.86,0,0,1-4.8-.48l-.23,0-.62-.09-.09.62c0,.23-.73,5.52,2.66,9.42,2.29,2.64,5.85,4,10.59,4l1.13,0c3.8-.16,6.7-1.57,8.61-4.2,4.89-6.7,1.61-18.92,1.47-19.44l-.42-1.51Z"/></g><path class="cls-6" d="M391.65,596.94c.62.09,16.06,3.18,23.74-10.9,0,0,5.79,23-9.82,23.65S391.65,596.94,391.65,596.94Z"/><path class="cls-61" d="M391.65,596.94c.62.09,16.06,3.18,23.74-10.9,0,0,5.67,23.09-9.93,23.75S391.65,596.94,391.65,596.94Z"/><path class="cls-62" d="M405.05,604.75c10.89-.46,11.29-12.24,10.54-19.32l-.08-.34c-7.68,14.09-23.3,11.2-23.92,11.12,0,0,0,.29,0,.77C392.87,600.82,396.28,605.12,405.05,604.75Z"/><g class="cls-5"><path class="cls-6" d="M377.48,595.09c-.62-.09-16-.31-19.85-15.93,0,0-11.53,19.84,3.38,24.55S377.48,595.09,377.48,595.09Z"/><path class="cls-63" d="M357.63,579.16c3.85,15.62,19.23,15.84,19.85,15.93,0,0-1.13,9.63-10.62,9.63a19.41,19.41,0,0,1-5.85-1c-14.91-4.71-3.38-24.55-3.38-24.55m.24-1.67-.78,1.36c-.27.46-6.54,11.38-3.54,19.14,1.18,3,3.62,5.17,7.27,6.33a20.23,20.23,0,0,0,6,1c9.94,0,11.24-10.1,11.25-10.2l.07-.62-.62-.08-.23,0c-3.65-.24-15.79-2.07-19.08-15.43l-.38-1.52Z"/></g><path class="cls-6" d="M378,595.12c-.62-.08-16.32-1.12-20.16-16.74,0,0-11.44,20.71,3.47,25.42S378,595.12,378,595.12Z"/><path class="cls-64" d="M378,595.12c-.62-.08-16.32-1.12-20.16-16.74,0,0-11.35,20.83,3.56,25.54S378,595.12,378,595.12Z"/><path class="cls-65" d="M363,599.16c-10.4-3.29-7.8-14.77-5.27-21.42l.16-.31c3.84,15.62,19.67,16.92,20.29,17,0,0-.05.29-.17.75C375.79,598.55,371.4,601.81,363,599.16Z"/><polygon class="cls-66" points="385.11 603.08 376.46 612.37 388.59 615.36 385.11 603.08 376.46 612.37 388.59 615.36 385.11 603.08"/><polygon class="cls-67" points="385.11 603.08 376.46 612.37 388.59 615.36 385.11 603.08 376.46 612.37 388.59 615.36 385.11 603.08"/><polygon class="cls-68" points="385.07 603.23 378.2 611.81 387.3 614.05 385.07 603.23 378.2 611.81 387.3 614.05 385.07 603.23"/><path class="cls-22" d="M376.46,612.37c2.05.41,4.07.9,6.1,1.38s4,1,6,1.61c-2-.41-4.06-.9-6.09-1.39S378.46,613,376.46,612.37Z"/><path class="cls-69" d="M344.64,612.12c.74.43,11.11,18.45,11.11,18.45l6-3.18,5.24,9.26,7-3.83,5.7,8.19,10.75-8,8.91,10.26,5.38-7,2.18,5,15.47-21.63-14.81,9.82-3.43-3.86-5.45,8.56-9.41-8.88-8.06,5.62L374.83,622l-5.59,5-4.68-8.7-7.8,2.6Z"/><path class="cls-69" d="M344.64,612.12c.74.43,11.11,18.45,11.11,18.45l6-3.18,5.24,9.26,7-3.83,5.7,8.19,10.75-8,8.91,10.26,5.38-7,2.18,5,15.47-21.63-14.81,9.82-3.43-3.86-5.45,8.56-9.41-8.88-8.06,5.62L374.83,622l-5.59,5-4.68-8.7-7.8,2.6Z"/><path class="cls-70" d="M407.25,638.78l-2.17-5-5.39,7-8.9-10.26-10.76,8-5.69-8.2-7,3.84-5.23-9.26-6,3.18s-4.49-7.8-7.77-13.26l-3.69-2.67c.74.43,11.11,18.45,11.11,18.45l6-3.18,5.24,9.26,7-3.83,5.7,8.19,10.75-8,8.91,10.26,5.38-7,2.18,5,15.47-21.63-2.78,1.84Z"/><path class="cls-71" d="M362.08,624.87l5.23,9.26,7-3.84,5.69,8.2,10.76-8,8.9,10.26,5.39-7,2.17,5,12.35-17.26-12,8-3.43-3.86-5.45,8.56-9.41-8.88-8.06,5.62L374.83,622l-5.59,5-4.68-8.7-7.8,2.6-8.43-6.11c3.28,5.46,7.77,13.26,7.77,13.26Z"/><path class="cls-71" d="M362.08,624.87l5.23,9.26,7-3.84,5.69,8.2,10.76-8,8.9,10.26,5.39-7,2.17,5,12.35-17.26-12,8-3.43-3.86-5.45,8.56-9.41-8.88-8.06,5.62L374.83,622l-5.59,5-4.68-8.7-7.8,2.6-8.43-6.11c3.28,5.46,7.77,13.26,7.77,13.26Z"/><g class="cls-23"><path class="cls-22" d="M344.64,612.12l7.42,12,3.69,6,.12.19,0,0,0,0a.14.14,0,0,0-.1,0l.06,0,.39-.17.78-.4,1.55-.85,3.07-1.75.2-.12.11.21c1.48,2.73,3,5.46,4.53,8.14a11.06,11.06,0,0,0,.61,1c-.35,0,0-.08.15-.18l.51-.28,2-1.12,4.08-2.24.23-.12.15.21,5.71,8.19-.44-.07,10.76-8,.23-.17.18.21,8.88,10.28h-.42l5.41-7,.26-.33.16.39,2.15,5-.38,0q7.78-10.78,15.65-21.5-7.62,10.89-15.29,21.75l-.23.31-.15-.35-2.2-4.95.42,0-5.37,7-.2.26-.22-.25-8.92-10.24.4,0-10.75,8-.26.19-.18-.26L373.75,633l.38.09L370,635.3,368,636.42l-.51.27-.26.14-.06,0,0,0s0,0-.12,0a.35.35,0,0,1-.24-.08l0,0-.07-.08c-.26-.35-.44-.68-.65-1-1.57-2.71-3-5.46-4.46-8.21l.32.09-3.1,1.72-1.57.83-.8.4a4.08,4.08,0,0,1-.42.19l-.15,0s-.09,0-.15,0-.06-.05-.07-.06l0,0-.11-.19-3.62-6.1Z"/></g><path d="M335.3,598.58c-2.85-57.91-37.81-77.38-59-61.69a42.73,42.73,0,0,0-11.85-4.67c2.53-17.9,1.36-52.59-34.31-26.08l11.78,9.28s.1-20.16,12.36-11.87c5.18,3.5-13,31.63-14.75,35.56-.59.65-55-21.58-56.1,56.33,0,0,.24,75.7,42.33,59.33,1.1,0,18.53,15.73,36.46,2.23,0,0,18.85,9.89,26.32.21C289.33,656.94,338.15,656.48,335.3,598.58Z"/><g class="cls-5"><path class="cls-6" d="M269.54,579.65c.92-.08,23.36.68,30-21.81,0,0,15.45,29.73-6.6,35.55S269.54,579.65,269.54,579.65Z"/><path class="cls-72" d="M299.57,557.84S315,587.57,293,593.39a30,30,0,0,1-7.57,1.08c-14.82,0-15.86-14.82-15.86-14.82.92-.08,23.36.68,30-21.81m-.24-2.46-.65,2.2c-5.7,19.23-23.54,21-28.87,21.14h-.34l-.91.08.06.9c0,.16,1.28,15.68,16.78,15.68a30.78,30.78,0,0,0,7.8-1.11c5.39-1.42,9.1-4.35,11-8.7,4.92-11.1-3.48-27.48-3.84-28.17l-1.05-2Z"/></g><path class="cls-6" d="M268.85,579.67c.92-.08,23.88-.49,30.54-23,0,0,15.26,31-6.8,36.81S268.85,579.67,268.85,579.67Z"/><path class="cls-73" d="M268.85,579.67c.92-.08,23.88-.49,30.54-23,0,0,15.12,31.15-6.94,37S268.85,579.67,268.85,579.67Z"/><path class="cls-74" d="M290.34,586.61c15.39-4.06,12.38-21,9.15-30.86-.13-.29-.21-.45-.21-.45-6.67,22.49-29.83,23.27-30.74,23.34,0,0,0,.42.2,1.11C271.77,584.82,278,589.88,290.34,586.61Z"/><g class="cls-5"><path class="cls-6" d="M248.08,581.45c-.91.08-22.93,4.58-33.15-16.49,0,0-10.43,31.9,12.27,34S248.08,581.45,248.08,581.45Z"/><path class="cls-75" d="M214.93,565c7.12,14.68,20,16.95,27.42,16.95a35.25,35.25,0,0,0,5.73-.46s1.65,17.62-17.65,17.62c-1,0-2.09-.05-3.23-.15-22.7-2.06-12.27-34-12.27-34m-.17-2.46-.71,2.17c-.24.74-5.87,18.32.8,28.44,2.6,4,6.73,6.23,12.27,6.73,1.14.1,2.25.15,3.31.15,6.25,0,11.06-1.79,14.28-5.33,5-5.45,4.32-13,4.29-13.29l-.09-.91-.91.07-.34.05a34.73,34.73,0,0,1-5.31.4c-8.49,0-20-2.85-26.59-16.43l-1-2Z"/></g><path class="cls-6" d="M248.76,581.36c-.91.07-23.62,3.5-33.85-17.57,0,0-10,33.12,12.68,35.17S248.76,581.36,248.76,581.36Z"/><path class="cls-76" d="M248.76,581.36c-.91.07-23.62,3.5-33.85-17.57,0,0-9.85,33.26,12.85,35.32S248.76,581.36,248.76,581.36Z"/><path class="cls-77" d="M228.69,591.79c-15.84-1.43-15.61-18.63-14-28.9l.13-.49c10.23,21.07,33.2,18,34.11,17.9,0,0,0,.42,0,1.12C246.72,586.92,241.45,593,228.69,591.79Z"/><path class="cls-78" d="M207.86,601.48s8.6,15.14,34.17,13c.23,2.78.61,10.21.61,10.21L257,623.47l-.3-9.3s32-1.77,53.44-21.3c0,0,4.92,18-24.39,36.35l-.7-8.57-16.67,1.4,1.18,14.36S219.4,644.13,207.86,601.48Z"/><path class="cls-6" d="M209.65,603.86a17,17,0,0,1-1.79-2.38c11.54,42.65,61.72,34.93,61.72,34.93l-.32-3.86S224.17,639.48,209.65,603.86Z"/><path class="cls-79" d="M242.43,620.81c-.12-2.25-.28-4.91-.4-6.34H242c.18,3,.35,6.35.35,6.35Z"/><polygon class="cls-6" points="268.09 618.19 268.4 622.05 285.07 620.65 284.75 616.78 268.09 618.19"/><path class="cls-6" d="M310.14,592.89c-.23,6.28-3.61,19.29-24.68,32.47l.31,3.86c29.31-18.33,24.39-36.35,24.39-36.35Z"/><path class="cls-80" d="M209.65,603.86a17,17,0,0,1-1.79-2.38c11.54,42.65,61.72,34.93,61.72,34.93l-.32-3.86S224.17,639.48,209.65,603.86Z"/><polygon class="cls-81" points="284.75 616.78 268.09 618.19 268.4 622.05 285.07 620.65 284.75 616.78"/><path class="cls-82" d="M310.16,592.87l0,0c-.23,6.28-3.61,19.29-24.68,32.47l.31,3.86C315.08,610.89,310.16,592.87,310.16,592.87Z"/><path class="cls-83" d="M310.14,592.89c-21.39,19.51-53.42,21.28-53.42,21.28l.3,9.3-14.38,1.21s-.09-1.75-.21-3.87h-.11s-.17-3.32-.35-6.35c-19.06,1.59-28.67-6.44-32.32-10.61,14.52,35.62,59.61,28.69,59.61,28.69l-.86-10.5-.31-3.86,16.67-1.4.31,3.86.39,4.71C306.53,612.18,309.91,599.17,310.14,592.89Z"/><path class="cls-83" d="M310.14,592.89c-21.39,19.51-53.42,21.28-53.42,21.28l.3,9.3-14.38,1.21s-.09-1.75-.21-3.87h-.11s-.17-3.32-.35-6.35c-19.06,1.59-28.67-6.44-32.32-10.61,14.52,35.62,59.61,28.69,59.61,28.69l-.86-10.5-.31-3.86,16.67-1.4.31,3.86.39,4.71C306.53,612.18,309.91,599.17,310.14,592.89Z"/><polygon class="cls-84" points="261.39 590.47 251.88 606.43 270.09 606.89 261.39 590.47 251.88 606.43 270.09 606.89 261.39 590.47"/><polygon class="cls-85" points="261.39 590.47 251.88 606.43 270.09 606.89 261.39 590.47 251.88 606.43 270.09 606.89 261.39 590.47"/><polygon class="cls-86" points="261.38 590.69 254.19 605.09 267.85 605.43 261.38 590.69 254.19 605.09 267.85 605.43 261.38 590.69"/><path class="cls-22" d="M251.88,606.43c1.52,0,3,0,4.56,0l4.55.08,4.55.16c1.52.06,3,.14,4.55.24-1.52,0-3,0-4.56,0l-4.55-.08-4.55-.15C254.91,606.61,253.4,606.53,251.88,606.43Z"/><g class="cls-23"><path class="cls-22" d="M285.77,629.22c1.68-1,3.28-2,4.85-3.16s3.11-2.29,4.59-3.53a54.8,54.8,0,0,0,8.08-8.25,33.92,33.92,0,0,0,5.68-10,27,27,0,0,0,1.26-5.62,25.4,25.4,0,0,0-.09-5.78,25.48,25.48,0,0,1,.25,5.79,26.25,26.25,0,0,1-1.21,5.68,34.39,34.39,0,0,1-5.63,10.13,55.83,55.83,0,0,1-8.2,8.21A61.73,61.73,0,0,1,285.77,629.22Z"/></g></g></g></g></svg>