<svg xmlns="http://www.w3.org/2000/svg" xmlns:xlink="http://www.w3.org/1999/xlink" viewBox="0 0 750 465.26"><defs><style>.cls-1{fill:url(#Degradado_sin_nombre_12);}.cls-2{fill:#cdd4ff;}.cls-3{opacity:0.5;}.cls-4{fill:#94a3e7;}.cls-5{opacity:0.4;fill:url(#Degradado_sin_nombre_12-2);}.cls-6{fill:#001661;}.cls-7{fill:#090939;}.cls-8{fill:#00001d;}</style><linearGradient id="Degradado_sin_nombre_12" x1="378.13" y1="-1682.98" x2="378.13" y2="644.78" gradientUnits="userSpaceOnUse"><stop offset="0" stop-color="#fff"/><stop offset="0.22" stop-color="#fff" stop-opacity="0.76"/><stop offset="0.6" stop-color="#fff" stop-opacity="0.36"/><stop offset="0.87" stop-color="#fff" stop-opacity="0.1"/><stop offset="1" stop-color="#fff" stop-opacity="0"/></linearGradient><linearGradient id="Degradado_sin_nombre_12-2" x1="375" y1="123.1" x2="375" y2="333.3" xlink:href="#Degradado_sin_nombre_12"/></defs><title>Asset 7</title><g id="Layer_2" data-name="Layer 2"><g id="BACKGROUND_2" data-name="BACKGROUND 2"><path class="cls-1" d="M378.13,319.71A160,160,0,0,1,225.89,111l.71-2.21,0,0A159.73,159.73,0,0,1,378.13,0c3.5,0,7.05.12,10.54.34a159.9,159.9,0,0,1,51.68,306.8A158.82,158.82,0,0,1,378.13,319.71Z"/><path class="cls-2" d="M520.37,159.85a142.25,142.25,0,1,1-277.71-43.51h0A142.32,142.32,0,0,1,378.13,17.61c3.15,0,6.29.1,9.39.3A142.26,142.26,0,0,1,520.37,159.85Z"/><g class="cls-3"><path class="cls-4" d="M475.26,200.91c4.26,7.56,15.15,9.5,24.31,4.33s13.12-15.48,8.86-23-15.15-9.5-24.31-4.33S471,193.35,475.26,200.91Z"/></g><g class="cls-3"><path class="cls-4" d="M403.05,135.81c5.62,9.95,19.94,12.5,32,5.69s17.27-20.37,11.66-30.32-19.93-12.49-32-5.69S397.44,125.86,403.05,135.81Z"/></g><g class="cls-3"><path class="cls-4" d="M494.55,164.84c.61,2.9,4.66,4.5,9,3.58s7.42-4,6.8-6.92-4.65-4.51-9-3.58S493.94,161.94,494.55,164.84Z"/></g><g class="cls-3"><path class="cls-4" d="M469,67.48c2-2.2,6.28-1.57,9.6,1.42s4.42,7.19,2.44,9.39-6.28,1.58-9.61-1.41S467,69.69,469,67.48Z"/></g><g class="cls-3"><path class="cls-4" d="M252.67,138.15c2.86.77,4.23,4.9,3.06,9.21s-4.43,7.18-7.29,6.41-4.23-4.9-3.07-9.21S249.81,137.38,252.67,138.15Z"/></g><g class="cls-3"><path class="cls-4" d="M358.81,56.71c6,9.33-2.14,25.31-18.23,35.67s-34,11.2-40,1.87,2.15-25.31,18.23-35.68S352.8,47.37,358.81,56.71Z"/></g><g class="cls-3"><path class="cls-4" d="M306,54.86c2.42,2.67,1.1,7.8-2.93,11.44s-9.26,4.42-11.68,1.74-1.1-7.79,2.93-11.44S303.62,52.18,306,54.86Z"/></g><g class="cls-3"><path class="cls-4" d="M321.11,47.51c1.21,1.85-.06,4.83-2.84,6.66s-6,1.82-7.24,0,.06-4.83,2.84-6.66S319.89,45.67,321.11,47.51Z"/></g><g class="cls-3"><path class="cls-4" d="M318.23,200.09c5,8.63-1.77,23.4-15.05,33s-28.07,10.35-33,1.72,1.77-23.4,15.05-33S313.27,191.45,318.23,200.09Z"/></g><g class="cls-3"><path class="cls-4" d="M273.37,199.09c1.48,2.19.3,6-2.64,8.48s-6.51,2.75-8,.57-.3-6,2.63-8.47S271.89,196.91,273.37,199.09Z"/></g><g class="cls-3"><path class="cls-4" d="M300.88,173.64c3,4.47.61,12.24-5.4,17.36s-13.35,5.64-16.38,1.17-.61-12.23,5.4-17.35S297.84,169.18,300.88,173.64Z"/></g><g class="cls-3"><path class="cls-4" d="M520.37,159.85a142.25,142.25,0,1,1-277.71-43.51h0c-4.95,46.73,41.6,119,109.35,128.27,80.17,11,137.66-67.86,123-131.24-17.64-76.28-87.5-95.44-87.5-95.44h0A142.26,142.26,0,0,1,520.37,159.85Z"/></g><path class="cls-5" d="M750,165.45a104.18,104.18,0,0,0-82.53,28.18h0a49.44,49.44,0,0,0-67.4,22.29A79.47,79.47,0,0,0,565.24,227a80.27,80.27,0,0,0-25.71,24.67,62.33,62.33,0,0,0-13-1.36A61.62,61.62,0,0,0,489,263a82.1,82.1,0,0,0-142.35-4.57A63.43,63.43,0,0,0,281,257.6a51.08,51.08,0,0,0-80.7-1.49h0a59.54,59.54,0,0,0-27-11.29h0c0-.22,0-.44,0-.67a50.77,50.77,0,0,0-76.71-43.37h0A88.4,88.4,0,0,0,0,190.61V341.67c28.29-8.1,115.53-7.24,229.5,8.81,139.07,19.58,252.63-1.94,315-5,81.88-4,150.15,2.43,205.5,5Z"/><path class="cls-6" d="M0,287.21S55.86,261.55,78.36,261s110.32,58.19,110.32,58.19H0Z"/><path class="cls-6" d="M211.87,287.21s55.86-25.66,78.36-26.26,110.32,58.19,110.32,58.19H211.87Z"/><path class="cls-6" d="M418.18,287.81s70.09-33.68,92.58-34.27,135.18,65.6,135.18,65.6H445Z"/><path class="cls-6" d="M750,274.89c-16.29-7.55-30-12.76-36.34-12.59-22.53.59-92.7,34.28-92.7,34.28l26.83,31.33H750Z"/><path class="cls-7" d="M750,295.1V465.26H0V306.55s121.1-44.18,173.32-48c21-1.55,68.55,16.7,108.73,39,33.83-14.91,75.25-30.77,102.15-32.76,20.14-1.49,77.4,14.25,140.15,34.14,41-22.89,82.12-41.84,103.55-40.26C656.77,260.74,709,282.63,750,295.1Z"/><path class="cls-8" d="M750,348.67V465.26H0V348.67s54-33.28,93.35-39.37c18.3-2.83,79.22,30.66,139.19,67.32,64.34-36.84,129.42-70.83,148-69.23,33,2.84,91.52,30.63,148.56,62.13,56-33.76,110.39-62.86,127.5-60.22C696,315.39,750,348.67,750,348.67Z"/><polygon class="cls-7" points="572.02 259.02 573.71 250.39 587.57 248.49 575.4 241.77 576.22 237.62 585.63 242.36 576.67 235.31 577.12 233.04 589.3 235.57 577.73 229.9 580.24 217.11 589.83 215.52 581.49 210.77 584.14 197.25 589.3 193.59 584.78 193.97 585.57 189.96 593.56 188.6 586.63 184.54 595.65 138.55 600.27 162.09 593.56 168.13 600.81 164.86 602.38 172.87 602.38 172.87 597.7 176.13 603.02 176.13 605.2 187.21 597.7 196.25 605.97 191.16 611.37 218.65 602.89 227.17 611.97 221.72 615.85 241.5 606.49 250.63 616.57 245.17 617.28 248.8 609.69 254.76 617.97 252.31 619.28 259.02 598.14 259.02 598.14 283.22 593.17 283.22 593.17 259.02 572.02 259.02"/><polygon class="cls-7" points="514.29 245.57 515.98 236.94 529.84 235.05 517.67 228.33 518.49 224.18 527.9 228.92 518.94 221.86 519.39 219.59 531.57 222.12 520 216.45 522.51 203.66 532.1 202.07 523.75 197.32 526.41 183.8 531.57 180.14 527.05 180.52 527.84 176.51 535.83 175.15 528.9 171.09 537.92 125.1 542.54 148.64 535.83 154.68 543.08 151.42 544.65 159.42 544.65 159.42 539.96 162.68 545.29 162.68 547.47 173.76 539.96 182.8 548.24 177.71 553.63 205.2 545.16 213.72 554.24 208.27 558.12 228.05 548.76 237.18 558.84 231.72 559.55 235.35 551.96 241.31 560.24 238.86 561.55 245.57 540.41 245.57 540.41 269.77 535.44 269.77 535.44 245.57 514.29 245.57"/><polygon class="cls-7" points="184.55 245.75 182.86 237.12 169.01 235.22 181.17 228.5 180.36 224.35 170.94 229.09 179.9 222.04 179.46 219.77 167.28 222.29 178.84 216.63 176.33 203.84 166.74 202.25 175.09 197.49 172.44 183.97 167.28 180.31 171.79 180.7 171.01 176.69 163.01 175.32 169.94 171.27 160.92 125.28 156.3 148.81 163.01 154.86 155.76 151.59 154.19 159.59 154.19 159.59 158.88 162.85 153.55 162.85 151.38 173.93 158.88 182.98 150.6 177.88 145.21 205.38 153.68 213.9 144.61 208.44 140.73 228.22 150.08 237.35 140.01 231.9 139.29 235.53 146.88 241.48 138.61 239.03 137.29 245.75 158.44 245.75 158.44 269.95 163.41 269.95 163.41 245.75 184.55 245.75"/><polygon class="cls-7" points="122.99 256.27 121.3 247.65 107.45 245.75 119.61 239.03 118.8 234.88 109.38 239.62 118.34 232.56 117.9 230.29 105.71 232.82 117.28 227.15 114.77 214.36 105.18 212.77 113.53 208.02 110.87 194.5 105.71 190.84 110.23 191.22 109.44 187.21 101.45 185.85 108.38 181.79 99.36 135.8 94.74 159.34 101.45 165.38 94.2 162.12 92.63 170.12 92.63 170.12 97.32 173.38 91.99 173.38 89.81 184.46 97.32 193.5 89.04 188.41 83.65 215.9 92.12 224.42 83.05 218.97 79.17 238.75 88.52 247.88 78.44 242.42 77.73 246.05 85.32 252.01 77.05 249.56 75.73 256.27 96.88 256.27 96.88 280.47 101.84 280.47 101.84 256.27 122.99 256.27"/><polygon class="cls-7" points="57.98 275.31 56.28 266.69 42.43 264.79 54.59 258.07 53.78 253.92 44.36 258.65 53.32 251.6 52.88 249.33 40.7 251.86 52.26 246.19 49.75 233.4 40.16 231.81 48.51 227.06 45.86 213.54 40.7 209.88 45.21 210.26 44.43 206.25 36.43 204.89 43.36 200.83 34.34 154.84 29.73 178.38 36.43 184.42 29.18 181.16 27.61 189.16 27.61 189.16 32.3 192.42 26.97 192.42 24.8 203.5 32.3 212.54 24.02 207.45 18.63 234.94 27.1 243.46 18.03 238.01 14.15 257.79 23.5 266.92 13.43 261.46 12.71 265.09 20.3 271.05 12.03 268.6 10.71 275.31 31.86 275.31 31.86 299.51 36.83 299.51 36.83 275.31 57.98 275.31"/><polygon class="cls-7" points="629.34 256.27 631.03 247.65 644.89 245.75 632.72 239.03 633.54 234.88 642.95 239.62 633.99 232.56 634.44 230.29 646.62 232.82 635.05 227.15 637.56 214.36 647.15 212.77 638.81 208.02 641.46 194.5 646.62 190.84 642.1 191.22 642.89 187.21 650.88 185.85 643.95 181.79 652.97 135.8 657.59 159.34 650.88 165.38 658.13 162.12 659.7 170.12 659.7 170.12 655.01 173.38 660.35 173.38 662.52 184.46 655.01 193.5 663.29 188.41 668.69 215.9 660.21 224.42 669.29 218.97 673.17 238.75 663.81 247.88 673.89 242.42 674.6 246.05 667.01 252.01 675.29 249.56 676.61 256.27 655.46 256.27 655.46 280.47 650.49 280.47 650.49 256.27 629.34 256.27"/><polygon class="cls-7" points="694.36 275.31 696.05 266.69 709.9 264.79 697.74 258.07 698.55 253.92 707.97 258.65 699.01 251.6 699.46 249.33 711.64 251.86 700.07 246.19 702.58 233.4 712.17 231.81 703.82 227.06 706.48 213.54 711.64 209.88 707.12 210.26 707.91 206.25 715.9 204.89 708.97 200.83 717.99 154.84 722.61 178.38 715.9 184.42 723.15 181.16 724.72 189.16 724.72 189.16 720.03 192.42 725.36 192.42 727.54 203.5 720.03 212.54 728.31 207.45 733.7 234.94 725.23 243.46 734.3 238.01 738.18 257.79 728.83 266.92 738.91 261.46 739.62 265.09 732.03 271.05 740.3 268.6 741.62 275.31 720.48 275.31 720.48 299.51 715.51 299.51 715.51 275.31 694.36 275.31"/><polygon class="cls-7" points="238.78 247.35 237.09 238.72 223.24 236.82 235.4 230.1 234.59 225.95 225.17 230.69 234.13 223.63 233.69 221.37 221.51 223.89 233.07 218.22 230.56 205.44 220.97 203.85 229.32 199.09 226.67 185.57 221.51 181.91 226.02 182.3 225.24 178.28 217.24 176.92 224.17 172.87 215.15 126.87 210.53 150.41 217.24 156.46 209.99 153.19 208.42 161.19 208.42 161.19 213.11 164.45 207.78 164.45 205.61 175.53 213.11 184.58 204.83 179.48 199.44 206.98 207.91 215.5 198.84 210.04 194.96 229.82 204.31 238.95 194.24 233.49 193.53 237.13 201.12 243.08 192.84 240.63 191.52 247.35 212.67 247.35 212.67 271.55 217.64 271.55 217.64 247.35 238.78 247.35"/></g></g></svg>