<svg xmlns="http://www.w3.org/2000/svg" viewBox="0 0 725.03 246.27"><defs><style>.cls-1{isolation:isolate;}.cls-2{mix-blend-mode:screen;}.cls-3{fill:#233caa;}</style></defs><title>Asset 8</title><g class="cls-1"><g id="Layer_2" data-name="Layer 2"><g id="BACKGROUND_2" data-name="BACKGROUND 2"><g class="cls-2"><circle class="cls-3" cx="488.78" cy="35.16" r="7.26"/><circle class="cls-3" cx="555.68" cy="213.06" r="7.26"/><circle class="cls-3" cx="218.29" cy="16.31" r="7.26"/><path class="cls-3" d="M188.07,158.17c-6.5.43-6.84.77-7.26,7.27-.42-6.5-.76-6.84-7.26-7.27,6.5-.42,6.84-.76,7.26-7.26C181.23,157.41,181.57,157.75,188.07,158.17Z"/><circle class="cls-3" cx="201.7" cy="125.64" r="7.26"/><circle class="cls-3" cx="234.25" cy="54.55" r="7.26" transform="translate(142.88 277.04) rotate(-80.78)"/><circle class="cls-3" cx="173.84" cy="48" r="14.71"/><circle class="cls-3" cx="541.15" cy="75.26" r="14.51" transform="translate(343.58 584.64) rotate(-76.72)"/><path class="cls-3" d="M132.48,102.92a1.83,1.83,0,1,1-1.83-1.83A1.83,1.83,0,0,1,132.48,102.92Z"/><path class="cls-3" d="M145.93,68.05a1.12,1.12,0,1,1-1.12-1.12A1.12,1.12,0,0,1,145.93,68.05Z"/><path class="cls-3" d="M128.82,38.55a1.12,1.12,0,1,1-1.12-1.12A1.12,1.12,0,0,1,128.82,38.55Z"/><path class="cls-3" d="M160.25,129.38a1.12,1.12,0,1,1-1.12-1.12A1.12,1.12,0,0,1,160.25,129.38Z"/><path class="cls-3" d="M566.59,102.92a1.12,1.12,0,1,1-1.11-1.12A1.12,1.12,0,0,1,566.59,102.92Z"/><path class="cls-3" d="M525.25,14.71a1.12,1.12,0,1,1-1.12-1.12A1.12,1.12,0,0,1,525.25,14.71Z"/><path class="cls-3" d="M562.43,177.17a1.12,1.12,0,1,1-1.12-1.12A1.12,1.12,0,0,1,562.43,177.17Z"/><path class="cls-3" d="M579.15,46.4A1.12,1.12,0,1,1,578,45.28,1.12,1.12,0,0,1,579.15,46.4Z"/><path class="cls-3" d="M292,15.83a1.12,1.12,0,1,1-1.12-1.12A1.12,1.12,0,0,1,292,15.83Z"/><path class="cls-3" d="M418.67,13.07A1.12,1.12,0,1,1,417.55,12,1.12,1.12,0,0,1,418.67,13.07Z"/><path class="cls-3" d="M561.31,245.15a1.12,1.12,0,1,1-1.12-1.12A1.12,1.12,0,0,1,561.31,245.15Z"/><path class="cls-3" d="M181.93,223.38a1.12,1.12,0,1,1-1.12-1.12A1.12,1.12,0,0,1,181.93,223.38Z"/><path class="cls-3" d="M598.79,74.71a1.12,1.12,0,1,1-1.12-1.12A1.12,1.12,0,0,1,598.79,74.71Z"/><path class="cls-3" d="M153.87,12A1.83,1.83,0,1,1,152,10.12,1.83,1.83,0,0,1,153.87,12Z"/><path class="cls-3" d="M365.12,10.13a1.83,1.83,0,1,1-1.83-1.83A1.83,1.83,0,0,1,365.12,10.13Z"/><circle class="cls-3" cx="207.56" cy="71.48" r="1.83"/><path class="cls-3" d="M174.55,91.1a1.83,1.83,0,1,1-1.82-1.83A1.81,1.81,0,0,1,174.55,91.1Z"/><circle class="cls-3" cx="126.58" cy="147.66" r="1.83"/><path class="cls-3" d="M81.49,46.17a1.83,1.83,0,1,1-1.83-1.82A1.82,1.82,0,0,1,81.49,46.17Z"/><circle class="cls-3" cx="101.96" cy="9.04" r="7.26"/><circle class="cls-3" cx="16.9" cy="56.13" r="7.26"/><circle class="cls-3" cx="109.22" cy="77.43" r="7.26" transform="translate(-4.25 148.5) rotate(-67.39)"/><circle class="cls-3" cx="110.65" cy="169.46" r="7.26"/><circle class="cls-3" cx="50.25" cy="176.01" r="14.71"/><path class="cls-3" d="M15.78,109.09A1.83,1.83,0,1,0,14,110.92,1.83,1.83,0,0,0,15.78,109.09Z"/><path class="cls-3" d="M22.33,156a1.12,1.12,0,1,0-1.12,1.12A1.12,1.12,0,0,0,22.33,156Z"/><path class="cls-3" d="M61.34,85.62a1.12,1.12,0,1,0-1.12,1.12A1.12,1.12,0,0,0,61.34,85.62Z"/><path class="cls-3" d="M16.9,4.43a1.12,1.12,0,1,0-1.12,1.12A1.12,1.12,0,0,0,16.9,4.43Z"/><path class="cls-3" d="M3.66,180.65a1.83,1.83,0,1,0-1.83,1.83A1.83,1.83,0,0,0,3.66,180.65Z"/><path class="cls-3" d="M90.48,120.2A1.83,1.83,0,1,0,88.65,122,1.82,1.82,0,0,0,90.48,120.2Z"/><circle class="cls-3" cx="49.13" cy="114.93" r="1.83"/><path class="cls-3" d="M52.79,21.27A1.83,1.83,0,1,0,51,23.09,1.83,1.83,0,0,0,52.79,21.27Z"/><path class="cls-3" d="M695.48,140.19a1.83,1.83,0,1,0-1.83,1.82A1.82,1.82,0,0,0,695.48,140.19Z"/><circle class="cls-3" cx="717.77" cy="162.2" r="7.26"/><circle class="cls-3" cx="632.71" cy="136.38" r="7.26" transform="translate(396.75 739.08) rotate(-80.78)"/><circle class="cls-3" cx="714.54" cy="106.89" r="7.26"/><circle class="cls-3" cx="714.54" cy="29.42" r="7.26"/><circle class="cls-3" cx="674.77" cy="14.71" r="14.71"/><path class="cls-3" d="M629.77,97.05a1.83,1.83,0,1,1-1.83-1.82A1.82,1.82,0,0,1,629.77,97.05Z"/><path class="cls-3" d="M636.35,54.55a1.12,1.12,0,1,1-1.12-1.11A1.12,1.12,0,0,1,636.35,54.55Z"/><path class="cls-3" d="M677.15,106.89a1.12,1.12,0,1,1-1.12-1.12A1.12,1.12,0,0,1,677.15,106.89Z"/><path class="cls-3" d="M621.71,188.08a1.12,1.12,0,1,1-1.12-1.12A1.12,1.12,0,0,1,621.71,188.08Z"/><path class="cls-3" d="M622.42,19.44a1.83,1.83,0,1,1-1.83-1.83A1.83,1.83,0,0,1,622.42,19.44Z"/><path class="cls-3" d="M704.47,66.93a1.83,1.83,0,1,1-1.83-1.83A1.83,1.83,0,0,1,704.47,66.93Z"/><path class="cls-3" d="M664.94,75.82A1.83,1.83,0,1,1,663.11,74,1.83,1.83,0,0,1,664.94,75.82Z"/><path class="cls-3" d="M676.6,173.07a1.83,1.83,0,1,1-1.83-1.83A1.83,1.83,0,0,1,676.6,173.07Z"/><path class="cls-3" d="M578.74,9a1.83,1.83,0,1,1-1.82-1.83A1.82,1.82,0,0,1,578.74,9Z"/><path class="cls-3" d="M593.6,131.21a1.83,1.83,0,1,1-1.83-1.83A1.83,1.83,0,0,1,593.6,131.21Z"/><path class="cls-3" d="M454.15,10.13a1.83,1.83,0,1,1-1.83-1.83A1.83,1.83,0,0,1,454.15,10.13Z"/><path class="cls-3" d="M603.16,169.41a1.83,1.83,0,1,1-1.83-1.83A1.83,1.83,0,0,1,603.16,169.41Z"/><circle class="cls-3" cx="548.42" cy="142.55" r="7.26" transform="translate(59.83 429.54) rotate(-45)"/></g></g></g></g></svg>