<svg xmlns="http://www.w3.org/2000/svg" viewBox="0 0 196.86 144.32"><defs><style>.cls-1{fill:#090939;}</style></defs><title>Asset 9</title><g id="Layer_2" data-name="Layer 2"><g id="BACKGROUND_2" data-name="BACKGROUND 2"><path class="cls-1" d="M129.66,23.15s-1.77-7.33-6.85-7.8-5.9-4.13-10.27-7.79S92.11,0,92.11,0s-10.28.83-12,4.13-5.21,3.94-6.37,7.44c-.78,2.34-7.07,7-10.33,9.25a.4.4,0,0,0,.33.71c4-1.14,11.84-3.64,12.71-5.84,1-2.61,2.36-1.75,4.49-4.12s4.72-4.72,7.91-4.48,9.8,2.12,11.34,7.2a15.94,15.94,0,0,0,6.73,9.57c3.31,2.48,1.3,6.61,1.3,6.61s-9.45-1.54-16.18.94-13,0-12.4,2.48,13.23.71,19.37,2,11.22-.71,15.35-1.89,11.92-4.65,17.41-6.52,12.47-6.47,15.89-8.95,8.74-3.19,10.75-5.19-4-.95-9.45.94S129.66,23.15,129.66,23.15Z"/><path class="cls-1" d="M138.24,40.08a8.53,8.53,0,0,0-2.36-2.76,16.23,16.23,0,0,0-3.93-1,7.43,7.43,0,0,1-1.42,2.81,4.34,4.34,0,0,0-1.12,2,6.42,6.42,0,0,0,.49,2.26c.57,1,1.77,3.72-.53,2.84s-5.31-4.81-5.31-4.81h0c-.6-.67-1-1.2-1-1.2S118.72,23.86,130.53,27c0,0,1.18,3.94.31,6.23,0,0,4.81,1.07,6,3.09A11.18,11.18,0,0,1,138.24,40.08Z"/><path class="cls-1" d="M130.25,83.56c-.73-.36-1.43-.67-2.07-.94l-1.53-.47L125,81.63c-4.3-1.41-9.63-3.57-9.35-6.87.47-5.51,4.57-13.34,6.62-16.77s3.49-7,1.48-11.22a14.37,14.37,0,0,1-1.48-5.92l-12.69,4.42S100.3,54.56,91.79,62,78.72,76.6,78.25,82c-.35,4,.22,6.24,3.54,8.28h0c.09,0,1.17.44,2.79,1.11,4.49,1.86,13.09,5.76,16.18,9.46,4.25,5.08-.57,8.56,3.78,7.68a13.1,13.1,0,0,0,4.12-2c3.21-2.1,7.2-5.07,12.51-5.62a16.67,16.67,0,0,1,3.24,0h0a47.46,47.46,0,0,0,10.2.11,19.13,19.13,0,0,0,9.16-3.84C147.92,94.1,137.37,87,130.25,83.56Z"/><path class="cls-1" d="M84.59,91.35A4.33,4.33,0,0,1,83.21,91a15.16,15.16,0,0,1-1.41-.77C81.89,90.27,83,90.68,84.59,91.35Z"/><path class="cls-1" d="M112.58,132c.92,3.8,5.52,12.3,5.52,12.3s-8.78-4.4-9.66-6.74-3.08-7.17-3.08-7.17l-1.17,5.12-4.12-2.2,2.48-5.41s6.18-12.66,5.89-16.94a21.37,21.37,0,0,1,.23-4.54c3.21-2.1,7.2-5.07,12.51-5.62-4.73,5.82-6.76,13.2-8.6,18C110.57,124.11,111.66,128.21,112.58,132Z"/><path class="cls-1" d="M128.46,128.64c.92,3.8,5.52,12.29,5.52,12.29s-8.78-4.39-9.66-6.73-3.08-7.17-3.08-7.17l-1.17,5.12L116,130l2.47-5.41s6.18-12.66,5.89-16.94a45.12,45.12,0,0,1,.1-6.79h0a47.46,47.46,0,0,0,10.2.11c-3.07,5.07-4.69,10.64-6.17,14.54C126.45,120.73,127.54,124.83,128.46,128.64Z"/><path class="cls-1" d="M102.74,51.81l3-1a154.09,154.09,0,0,0,15.19-5.93c5.52-2.73,6.15-16.43,6.15-16.43l-14.41,4.17s-9.45,2-11.89,5.67a21.65,21.65,0,0,1-3.58,4.68,6.56,6.56,0,0,1-4.92,1.45,12.42,12.42,0,0,0-8.66,2.77c-5.52,4.09-1.11,10.55-7.56,12s-9.58,4.54-8.35,11.49c.64,3.62,6.77,6,11.34,1.73S88.71,60.94,95,59.14a11.35,11.35,0,0,0,7.77-7.33"/><path class="cls-1" d="M115.92,56.14s-4.07,7.92-3.53,10.65,24.94,14.85,24.94,14.85l6.46-.63s-22.43-13.54-21.17-17.79a21.29,21.29,0,0,0,1.17-6.12Z"/><path class="cls-1" d="M120.41,58.81s8.86,8,11.46,11c1.83,2.09,18.94,10.82,18.94,10.82l5.27-2.25s-11.67-3.75-18.72-11.54c-3.82-4.23-12.77-14.37-12.77-14.37Z"/><path class="cls-1" d="M136.27,81.11s1.9,4.31,5.68,4.16A9.25,9.25,0,0,0,148.19,82l-6.95-2.12Z"/><path class="cls-1" d="M147.88,78.39s1.9,4.32,5.68,4.16a9.29,9.29,0,0,0,6.25-3.31l-7-2.12Z"/><path class="cls-1" d="M59,94.24,196.86,70h0a17.57,17.57,0,0,1-8.74,4.44L60,98.49S57,98.26,59,94.24Z"/><path class="cls-1" d="M61.74,101c-2.51,4.14-5-1.92-5-1.92L9.57,123.42a21.22,21.22,0,0,1-3.78-4l10.66-7.05-12,5a29.36,29.36,0,0,1-2.92-7.12l6.93-3.14-7.29,1.7A46.81,46.81,0,0,1,0,98.2L16,96H.05c.1-2.09.28-3.39.28-3.39s36.75,1.07,43.83,1.19l12.05-.24s.31-5,4.6-4.72c1.85.13.59,5.79.59,5.79S62.3,100.1,61.74,101Z"/></g></g></svg>